KhmerDigital-Regular.ufo
<glyph name="u0021" format="2">
  <advance width="592"/>
  <unicode hex="0021"/>
  <outline>
    <contour>
      <point x="358" y="444" type="line"/>
      <point x="233" y="444" type="line"/>
      <point x="177" y="1576" type="line"/>
      <point x="415" y="1576" type="line"/>
    </contour>
    <contour>
      <point x="158" y="120" type="qcurve" smooth="yes"/>
      <point x="158" y="200"/>
      <point x="238" y="267"/>
      <point x="295" y="267" type="qcurve" smooth="yes"/>
      <point x="350" y="267"/>
      <point x="432" y="200"/>
      <point x="432" y="120" type="qcurve" smooth="yes"/>
      <point x="432" y="40"/>
      <point x="350" y="-31"/>
      <point x="295" y="-31" type="qcurve" smooth="yes"/>
      <point x="238" y="-31"/>
      <point x="158" y="40"/>
    </contour>
  </outline>
</glyph>
<glyph name="u0022" format="2">
  <advance width="900"/>
  <unicode hex="0022"/>
  <outline>
    <contour>
      <point x="712" y="1007" type="line"/>
      <point x="591" y="1007" type="line"/>
      <point x="547" y="1576" type="line"/>
      <point x="756" y="1576" type="line"/>
    </contour>
    <contour>
      <point x="309" y="1007" type="line"/>
      <point x="187" y="1007" type="line"/>
      <point x="143" y="1576" type="line"/>
      <point x="353" y="1576" type="line"/>
    </contour>
  </outline>
</glyph>
<glyph name="u0023" format="2">
  <advance width="1426"/>
  <unicode hex="0023"/>
  <outline>
    <contour>
      <point x="403" y="0" type="line"/>
      <point x="248" y="0" type="line"/>
      <point x="332" y="461" type="line"/>
      <point x="54" y="461" type="line"/>
      <point x="54" y="609" type="line"/>
      <point x="361" y="609" type="line"/>
      <point x="431" y="963" type="line"/>
      <point x="136" y="963" type="line"/>
      <point x="136" y="1108" type="line"/>
      <point x="458" y="1108" type="line"/>
      <point x="547" y="1576" type="line"/>
      <point x="705" y="1576" type="line"/>
      <point x="617" y="1108" type="line"/>
      <point x="935" y="1108" type="line"/>
      <point x="1023" y="1576" type="line"/>
      <point x="1175" y="1576" type="line"/>
      <point x="1087" y="1108" type="line"/>
      <point x="1368" y="1108" type="line"/>
      <point x="1368" y="963" type="line"/>
      <point x="1059" y="963" type="line"/>
      <point x="990" y="609" type="line"/>
      <point x="1293" y="609" type="line"/>
      <point x="1293" y="461" type="line"/>
      <point x="962" y="461" type="line"/>
      <point x="871" y="0" type="line"/>
      <point x="714" y="0" type="line"/>
      <point x="804" y="461" type="line"/>
      <point x="488" y="461" type="line"/>
    </contour>
    <contour>
      <point x="586" y="963" type="line"/>
      <point x="517" y="609" type="line"/>
      <point x="833" y="609" type="line"/>
      <point x="901" y="963" type="line"/>
    </contour>
  </outline>
</glyph>
<glyph name="u0024" format="2">
  <advance width="1262"/>
  <unicode hex="0024"/>
  <outline>
    <contour>
      <point x="698" y="1480" type="line"/>
      <point x="933" y="1471"/>
      <point x="1087" y="1401" type="qcurve"/>
      <point x="1026" y="1239" type="line"/>
      <point x="888" y="1302"/>
      <point x="698" y="1312" type="qcurve"/>
      <point x="698" y="872" type="line"/>
      <point x="1137" y="707"/>
      <point x="1137" y="486" type="qcurve" smooth="yes"/>
      <point x="1137" y="340"/>
      <point x="907" y="127"/>
      <point x="698" y="111" type="qcurve"/>
      <point x="698" y="-128" type="line"/>
      <point x="556" y="-128" type="line"/>
      <point x="556" y="109" type="line"/>
      <point x="316" y="117"/>
      <point x="135" y="181" type="qcurve"/>
      <point x="135" y="369" type="line"/>
      <point x="352" y="292"/>
      <point x="556" y="280" type="qcurve"/>
      <point x="556" y="727" type="line"/>
      <point x="135" y="900"/>
      <point x="135" y="1110" type="qcurve" smooth="yes"/>
      <point x="135" y="1168"/>
      <point x="164" y="1290"/>
      <point x="250" y="1398"/>
      <point x="418" y="1470"/>
      <point x="556" y="1479" type="qcurve"/>
      <point x="556" y="1675" type="line"/>
      <point x="698" y="1675" type="line"/>
    </contour>
    <contour>
      <point x="556" y="1312" type="line"/>
      <point x="455" y="1304"/>
      <point x="325" y="1230"/>
      <point x="325" y="1143" type="qcurve" smooth="yes"/>
      <point x="325" y="1039"/>
      <point x="556" y="931" type="qcurve"/>
    </contour>
    <contour>
      <point x="698" y="280" type="line"/>
      <point x="833" y="292"/>
      <point x="948" y="397"/>
      <point x="948" y="472" type="qcurve" smooth="yes"/>
      <point x="948" y="564"/>
      <point x="698" y="670" type="qcurve"/>
    </contour>
  </outline>
</glyph>
<glyph name="u0025" format="2">
  <advance width="1833"/>
  <unicode hex="0025"/>
  <outline>
    <contour>
      <point x="107" y="1106" type="qcurve" smooth="yes"/>
      <point x="107" y="1340"/>
      <point x="261" y="1599"/>
      <point x="429" y="1599" type="qcurve" smooth="yes"/>
      <point x="591" y="1599"/>
      <point x="760" y="1340"/>
      <point x="760" y="1106" type="qcurve" smooth="yes"/>
      <point x="760" y="872"/>
      <point x="600" y="609"/>
      <point x="429" y="609" type="qcurve" smooth="yes"/>
      <point x="273" y="609"/>
      <point x="107" y="872"/>
    </contour>
    <contour>
      <point x="394" y="0" type="line"/>
      <point x="1268" y="1576" type="line"/>
      <point x="1438" y="1576" type="line"/>
      <point x="564" y="0" type="line"/>
    </contour>
    <contour>
      <point x="600" y="1106" type="qcurve" smooth="yes"/>
      <point x="600" y="1462"/>
      <point x="429" y="1462" type="qcurve" smooth="yes"/>
      <point x="269" y="1462"/>
      <point x="269" y="1106" type="qcurve" smooth="yes"/>
      <point x="269" y="748"/>
      <point x="429" y="748" type="qcurve" smooth="yes"/>
      <point x="600" y="748"/>
    </contour>
    <contour>
      <point x="1072" y="474" type="qcurve" smooth="yes"/>
      <point x="1072" y="708"/>
      <point x="1226" y="967"/>
      <point x="1394" y="967" type="qcurve" smooth="yes"/>
      <point x="1555" y="967"/>
      <point x="1725" y="708"/>
      <point x="1725" y="474" type="qcurve" smooth="yes"/>
      <point x="1725" y="240"/>
      <point x="1564" y="-22"/>
      <point x="1394" y="-22" type="qcurve" smooth="yes"/>
      <point x="1238" y="-22"/>
      <point x="1072" y="240"/>
    </contour>
    <contour>
      <point x="1564" y="474" type="qcurve" smooth="yes"/>
      <point x="1564" y="828"/>
      <point x="1394" y="828" type="qcurve" smooth="yes"/>
      <point x="1232" y="828"/>
      <point x="1232" y="474" type="qcurve" smooth="yes"/>
      <point x="1232" y="117"/>
      <point x="1394" y="117" type="qcurve" smooth="yes"/>
      <point x="1564" y="117"/>
    </contour>
  </outline>
</glyph>
<glyph name="u0026" format="2">
  <advance width="1615"/>
  <unicode hex="0026"/>
  <outline>
    <contour>
      <point x="116" y="411" type="qcurve" smooth="yes"/>
      <point x="116" y="715"/>
      <point x="462" y="884" type="qcurve"/>
      <point x="264" y="1094"/>
      <point x="264" y="1256" type="qcurve" smooth="yes"/>
      <point x="264" y="1601"/>
      <point x="670" y="1601" type="qcurve" smooth="yes"/>
      <point x="1052" y="1601"/>
      <point x="1052" y="1260" type="qcurve" smooth="yes"/>
      <point x="1052" y="1006"/>
      <point x="748" y="844" type="qcurve"/>
      <point x="1165" y="420" type="line"/>
      <point x="1266" y="565"/>
      <point x="1317" y="788" type="qcurve"/>
      <point x="1513" y="788" type="line"/>
      <point x="1442" y="480"/>
      <point x="1294" y="289" type="qcurve"/>
      <point x="1580" y="0" type="line"/>
      <point x="1335" y="0" type="line"/>
      <point x="1173" y="163" type="line"/>
      <point x="954" y="-22"/>
      <point x="613" y="-22" type="qcurve" smooth="yes"/>
      <point x="116" y="-22"/>
    </contour>
    <contour>
      <point x="860" y="1260" type="qcurve" smooth="yes"/>
      <point x="852" y="1441"/>
      <point x="664" y="1441" type="qcurve" smooth="yes"/>
      <point x="453" y="1441"/>
      <point x="453" y="1258" type="qcurve" smooth="yes"/>
      <point x="453" y="1137"/>
      <point x="625" y="968" type="qcurve"/>
      <point x="860" y="1107"/>
    </contour>
    <contour>
      <point x="619" y="150" type="qcurve" smooth="yes"/>
      <point x="878" y="150"/>
      <point x="1048" y="291" type="qcurve"/>
      <point x="584" y="761" type="line"/>
      <point x="319" y="610"/>
      <point x="319" y="417" type="qcurve" smooth="yes"/>
      <point x="319" y="150"/>
    </contour>
  </outline>
</glyph>
<glyph name="u0027" format="2">
  <advance width="495"/>
  <unicode hex="0027"/>
  <outline>
    <contour>
      <point x="309" y="1007" type="line"/>
      <point x="187" y="1007" type="line"/>
      <point x="143" y="1576" type="line"/>
      <point x="353" y="1576" type="line"/>
    </contour>
  </outline>
</glyph>
<glyph name="u0028" format="2">
  <advance width="661"/>
  <unicode hex="0028"/>
  <outline>
    <contour>
      <point x="411" y="-349" type="line"/>
      <point x="87" y="55"/>
      <point x="87" y="605" type="qcurve" smooth="yes"/>
      <point x="87" y="1187"/>
      <point x="411" y="1576" type="qcurve"/>
      <point x="595" y="1576" type="line"/>
      <point x="283" y="1203"/>
      <point x="283" y="607" type="qcurve" smooth="yes"/>
      <point x="283" y="34"/>
      <point x="593" y="-349" type="qcurve"/>
    </contour>
  </outline>
</glyph>
<glyph name="u0029" format="2">
  <advance width="661"/>
  <unicode hex="0029"/>
  <outline>
    <contour>
      <point x="89" y="-349" type="line"/>
      <point x="399" y="34"/>
      <point x="399" y="607" type="qcurve" smooth="yes"/>
      <point x="399" y="1203"/>
      <point x="87" y="1576" type="qcurve"/>
      <point x="270" y="1576" type="line"/>
      <point x="595" y="1187"/>
      <point x="595" y="605" type="qcurve" smooth="yes"/>
      <point x="595" y="55"/>
      <point x="270" y="-349" type="qcurve"/>
    </contour>
  </outline>
</glyph>
<glyph name="u002A" format="2">
  <advance width="1215"/>
  <unicode hex="002A"/>
  <outline>
    <contour>
      <point x="786" y="684" type="line"/>
      <point x="599" y="1070" type="line"/>
      <point x="429" y="684" type="line"/>
      <point x="232" y="788" type="line"/>
      <point x="491" y="1137" type="line"/>
      <point x="89" y="1170" type="line"/>
      <point x="120" y="1373" type="line"/>
      <point x="540" y="1254" type="line"/>
      <point x="493" y="1677" type="line"/>
      <point x="709" y="1677" type="line"/>
      <point x="666" y="1254" type="line"/>
      <point x="1089" y="1373" type="line"/>
      <point x="1119" y="1170" type="line"/>
      <point x="714" y="1137" type="line"/>
      <point x="976" y="788" type="line"/>
    </contour>
  </outline>
</glyph>
<glyph name="u002B" format="2">
  <advance width="1262"/>
  <unicode hex="002B"/>
  <outline>
    <contour>
      <point x="707" y="245" type="line"/>
      <point x="549" y="245" type="line"/>
      <point x="549" y="700" type="line"/>
      <point x="109" y="700" type="line"/>
      <point x="109" y="857" type="line"/>
      <point x="549" y="857" type="line"/>
      <point x="549" y="1314" type="line"/>
      <point x="707" y="1314" type="line"/>
      <point x="707" y="857" type="line"/>
      <point x="1147" y="857" type="line"/>
      <point x="1147" y="700" type="line"/>
      <point x="707" y="700" type="line"/>
    </contour>
  </outline>
</glyph>
<glyph name="u002C" format="2">
  <advance width="590"/>
  <unicode hex="002C"/>
  <outline>
    <contour>
      <point x="407" y="257" type="line"/>
      <point x="422" y="232" type="line"/>
      <point x="392" y="114"/>
      <point x="285" y="-166"/>
      <point x="232" y="-285" type="qcurve"/>
      <point x="89" y="-285" type="line"/>
      <point x="109" y="-200"/>
      <point x="189" y="180"/>
      <point x="199" y="257" type="qcurve"/>
    </contour>
  </outline>
</glyph>
<glyph name="u002D" format="2">
  <advance width="710"/>
  <unicode hex="002D"/>
  <outline>
    <contour>
      <point x="622" y="506" type="line"/>
      <point x="87" y="506" type="line"/>
      <point x="87" y="678" type="line"/>
      <point x="622" y="678" type="line"/>
    </contour>
  </outline>
</glyph>
<glyph name="u002F" format="2">
  <advance width="820"/>
  <unicode hex="002F"/>
  <outline>
    <contour>
      <point x="211" y="0" type="line"/>
      <point x="21" y="0" type="line"/>
      <point x="608" y="1576" type="line"/>
      <point x="798" y="1576" type="line"/>
    </contour>
  </outline>
</glyph>
<glyph name="u0030" format="2">
  <advance width="1262"/>
  <unicode hex="0030"/>
  <outline>
    <contour>
      <point x="107" y="750" type="qcurve" smooth="yes"/>
      <point x="107" y="1500"/>
      <point x="628" y="1500" type="qcurve" smooth="yes"/>
      <point x="1154" y="1500"/>
      <point x="1154" y="750" type="qcurve" smooth="yes"/>
      <point x="1154" y="0"/>
      <point x="628" y="0" type="qcurve" smooth="yes"/>
      <point x="107" y="0"/>
    </contour>
    <contour>
      <point x="956" y="750" type="qcurve" smooth="yes"/>
      <point x="956" y="1347"/>
      <point x="628" y="1347" type="qcurve" smooth="yes"/>
      <point x="301" y="1347"/>
      <point x="301" y="750" type="qcurve" smooth="yes"/>
      <point x="301" y="152"/>
      <point x="628" y="152" type="qcurve" smooth="yes"/>
      <point x="956" y="152"/>
    </contour>
  </outline>
</glyph>
<glyph name="u0031" format="2">
  <advance width="1262"/>
  <unicode hex="0031"/>
  <outline>
    <contour>
      <point x="783" y="0" type="line"/>
      <point x="594" y="0" type="line"/>
      <point x="594" y="1307" type="line"/>
      <point x="297" y="1061" type="line"/>
      <point x="196" y="1185" type="line"/>
      <point x="622" y="1500" type="line"/>
      <point x="783" y="1500" type="line"/>
    </contour>
  </outline>
</glyph>
<glyph name="u0032" format="2">
  <advance width="1262"/>
  <unicode hex="0032"/>
  <outline>
    <contour>
      <point x="1147" y="0" type="line"/>
      <point x="105" y="0" type="line"/>
      <point x="105" y="168" type="line"/>
      <point x="944" y="818"/>
      <point x="944" y="1065" type="qcurve" smooth="yes"/>
      <point x="944" y="1344"/>
      <point x="606" y="1344" type="qcurve" smooth="yes"/>
      <point x="412" y="1344"/>
      <point x="227" y="1204" type="qcurve"/>
      <point x="122" y="1326" type="line"/>
      <point x="353" y="1500"/>
      <point x="606" y="1500" type="qcurve" smooth="yes"/>
      <point x="1143" y="1500"/>
      <point x="1143" y="1076" type="qcurve" smooth="yes"/>
      <point x="1143" y="778"/>
      <point x="353" y="166" type="qcurve"/>
      <point x="1147" y="166" type="line"/>
    </contour>
  </outline>
</glyph>
<glyph name="u0033" format="2">
  <advance width="1262"/>
  <unicode hex="0033"/>
  <outline>
    <contour>
      <point x="99" y="80" type="qcurve"/>
      <point x="99" y="247" type="line"/>
      <point x="316" y="151"/>
      <point x="533" y="151" type="qcurve" smooth="yes"/>
      <point x="933" y="151"/>
      <point x="933" y="440" type="qcurve" smooth="yes"/>
      <point x="933" y="697"/>
      <point x="492" y="697" type="qcurve" smooth="yes"/>
      <point x="339" y="697" type="line"/>
      <point x="339" y="849" type="line"/>
      <point x="495" y="849" type="line" smooth="yes"/>
      <point x="889" y="849"/>
      <point x="889" y="1125" type="qcurve" smooth="yes"/>
      <point x="889" y="1348"/>
      <point x="602" y="1348" type="qcurve" smooth="yes"/>
      <point x="378" y="1348"/>
      <point x="205" y="1225" type="qcurve"/>
      <point x="108" y="1348" type="line"/>
      <point x="316" y="1500"/>
      <point x="600" y="1500" type="qcurve" smooth="yes"/>
      <point x="1089" y="1500"/>
      <point x="1089" y="1137" type="qcurve" smooth="yes"/>
      <point x="1089" y="842"/>
      <point x="761" y="788" type="qcurve"/>
      <point x="761" y="780" type="line"/>
      <point x="1137" y="734"/>
      <point x="1137" y="435" type="qcurve" smooth="yes"/>
      <point x="1137" y="0"/>
      <point x="531" y="0" type="qcurve" smooth="yes"/>
      <point x="279" y="0"/>
    </contour>
  </outline>
</glyph>
<glyph name="u0034" format="2">
  <advance width="1262"/>
  <unicode hex="0034"/>
  <outline>
    <contour>
      <point x="988" y="0" type="line"/>
      <point x="801" y="0" type="line"/>
      <point x="801" y="339" type="line"/>
      <point x="46" y="339" type="line"/>
      <point x="46" y="495" type="line"/>
      <point x="788" y="1500" type="line"/>
      <point x="988" y="1500" type="line"/>
      <point x="988" y="503" type="line"/>
      <point x="1218" y="503" type="line"/>
      <point x="1218" y="339" type="line"/>
      <point x="988" y="339" type="line"/>
    </contour>
    <contour>
      <point x="801" y="1294" type="line"/>
      <point x="236" y="503" type="line"/>
      <point x="801" y="503" type="line"/>
    </contour>
  </outline>
</glyph>
<glyph name="u0035" format="2">
  <advance width="1262"/>
  <unicode hex="0035"/>
  <outline>
    <contour>
      <point x="139" y="81" type="qcurve"/>
      <point x="139" y="253" type="line"/>
      <point x="324" y="155"/>
      <point x="550" y="155" type="qcurve" smooth="yes"/>
      <point x="938" y="155"/>
      <point x="938" y="475" type="qcurve" smooth="yes"/>
      <point x="938" y="774"/>
      <point x="543" y="774" type="qcurve" smooth="yes"/>
      <point x="393" y="774"/>
      <point x="274" y="744" type="qcurve"/>
      <point x="177" y="802" type="line"/>
      <point x="236" y="1500" type="line"/>
      <point x="1026" y="1500" type="line"/>
      <point x="1026" y="1334" type="line"/>
      <point x="402" y="1334" type="line"/>
      <point x="364" y="905" type="line"/>
      <point x="454" y="928"/>
      <point x="607" y="928" type="qcurve" smooth="yes"/>
      <point x="1137" y="928"/>
      <point x="1137" y="493" type="qcurve" smooth="yes"/>
      <point x="1137" y="0"/>
      <point x="548" y="0" type="qcurve" smooth="yes"/>
      <point x="291" y="0"/>
    </contour>
  </outline>
</glyph>
<glyph name="u0036" format="2">
  <advance width="1262"/>
  <unicode hex="0036"/>
  <outline>
    <contour>
      <point x="120" y="644" type="qcurve" smooth="yes"/>
      <point x="120" y="1500"/>
      <point x="842" y="1500" type="qcurve" smooth="yes"/>
      <point x="964" y="1500"/>
      <point x="1036" y="1481" type="qcurve"/>
      <point x="1036" y="1328" type="line"/>
      <point x="949" y="1352"/>
      <point x="847" y="1352" type="qcurve" smooth="yes"/>
      <point x="360" y="1352"/>
      <point x="318" y="762" type="qcurve"/>
      <point x="472" y="933"/>
      <point x="701" y="933" type="qcurve" smooth="yes"/>
      <point x="1158" y="933"/>
      <point x="1158" y="490" type="qcurve" smooth="yes"/>
      <point x="1158" y="0"/>
      <point x="657" y="0" type="qcurve" smooth="yes"/>
      <point x="120" y="0"/>
    </contour>
    <contour>
      <point x="316" y="566" type="qcurve"/>
      <point x="342" y="151"/>
      <point x="655" y="151" type="qcurve" smooth="yes"/>
      <point x="965" y="151"/>
      <point x="965" y="490" type="qcurve" smooth="yes"/>
      <point x="965" y="792"/>
      <point x="661" y="792" type="qcurve" smooth="yes"/>
      <point x="441" y="792"/>
    </contour>
  </outline>
</glyph>
<glyph name="u0037" format="2">
  <advance width="1262"/>
  <unicode hex="0037"/>
  <outline>
    <contour>
      <point x="514" y="0" type="line"/>
      <point x="300" y="0" type="line"/>
      <point x="946" y="1332" type="line"/>
      <point x="97" y="1332" type="line"/>
      <point x="97" y="1500" type="line"/>
      <point x="1154" y="1500" type="line"/>
      <point x="1154" y="1357" type="line"/>
    </contour>
  </outline>
</glyph>
<glyph name="u0038" format="2">
  <advance width="1262"/>
  <unicode hex="0038"/>
  <outline>
    <contour>
      <point x="107" y="392" type="qcurve" smooth="yes"/>
      <point x="107" y="644"/>
      <point x="426" y="781" type="qcurve"/>
      <point x="158" y="913"/>
      <point x="158" y="1152" type="qcurve" smooth="yes"/>
      <point x="158" y="1500"/>
      <point x="628" y="1500" type="qcurve" smooth="yes"/>
      <point x="1101" y="1500"/>
      <point x="1101" y="1150" type="qcurve" smooth="yes"/>
      <point x="1101" y="929"/>
      <point x="812" y="796" type="qcurve"/>
      <point x="1151" y="663"/>
      <point x="1151" y="399" type="qcurve" smooth="yes"/>
      <point x="1151" y="0"/>
      <point x="634" y="0" type="qcurve" smooth="yes"/>
      <point x="107" y="0"/>
    </contour>
    <contour>
      <point x="630" y="862" type="qcurve"/>
      <point x="908" y="985"/>
      <point x="908" y="1144" type="qcurve" smooth="yes"/>
      <point x="908" y="1354"/>
      <point x="625" y="1354" type="qcurve" smooth="yes"/>
      <point x="347" y="1354"/>
      <point x="347" y="1144" type="qcurve" smooth="yes"/>
      <point x="347" y="980"/>
    </contour>
    <contour>
      <point x="962" y="396" type="qcurve" smooth="yes"/>
      <point x="962" y="586"/>
      <point x="604" y="713" type="qcurve"/>
      <point x="297" y="582"/>
      <point x="297" y="390" type="qcurve" smooth="yes"/>
      <point x="297" y="143"/>
      <point x="630" y="143" type="qcurve" smooth="yes"/>
      <point x="962" y="143"/>
    </contour>
  </outline>
</glyph>
<glyph name="u0039" format="2">
  <advance width="1262"/>
  <unicode hex="0039"/>
  <outline>
    <contour>
      <point x="231" y="19" type="qcurve"/>
      <point x="231" y="172" type="line"/>
      <point x="318" y="148"/>
      <point x="421" y="148" type="qcurve" smooth="yes"/>
      <point x="907" y="148"/>
      <point x="949" y="738" type="qcurve"/>
      <point x="795" y="567"/>
      <point x="566" y="567" type="qcurve" smooth="yes"/>
      <point x="109" y="567"/>
      <point x="109" y="1010" type="qcurve" smooth="yes"/>
      <point x="109" y="1500"/>
      <point x="610" y="1500" type="qcurve" smooth="yes"/>
      <point x="1147" y="1500"/>
      <point x="1147" y="856" type="qcurve" smooth="yes"/>
      <point x="1147" y="0"/>
      <point x="425" y="0" type="qcurve" smooth="yes"/>
      <point x="303" y="0"/>
    </contour>
    <contour>
      <point x="606" y="708" type="qcurve" smooth="yes"/>
      <point x="826" y="708"/>
      <point x="951" y="934" type="qcurve"/>
      <point x="925" y="1349"/>
      <point x="612" y="1349" type="qcurve" smooth="yes"/>
      <point x="302" y="1349"/>
      <point x="302" y="1010" type="qcurve" smooth="yes"/>
      <point x="302" y="708"/>
    </contour>
  </outline>
</glyph>
<glyph name="u003A" format="2">
  <advance width="590"/>
  <unicode hex="003A"/>
  <outline>
    <contour>
      <point x="158" y="1064" type="qcurve" smooth="yes"/>
      <point x="158" y="1148"/>
      <point x="238" y="1214"/>
      <point x="293" y="1214" type="qcurve" smooth="yes"/>
      <point x="348" y="1214"/>
      <point x="432" y="1148"/>
      <point x="432" y="1064" type="qcurve" smooth="yes"/>
      <point x="432" y="984"/>
      <point x="348" y="914"/>
      <point x="293" y="914" type="qcurve" smooth="yes"/>
      <point x="238" y="914"/>
      <point x="158" y="984"/>
    </contour>
    <contour>
      <point x="158" y="120" type="qcurve" smooth="yes"/>
      <point x="158" y="200"/>
      <point x="238" y="267"/>
      <point x="293" y="267" type="qcurve" smooth="yes"/>
      <point x="348" y="267"/>
      <point x="432" y="200"/>
      <point x="432" y="120" type="qcurve" smooth="yes"/>
      <point x="432" y="40"/>
      <point x="348" y="-31"/>
      <point x="293" y="-31" type="qcurve" smooth="yes"/>
      <point x="238" y="-31"/>
      <point x="158" y="40"/>
    </contour>
  </outline>
</glyph>
<glyph name="u003B" format="2">
  <advance width="590"/>
  <unicode hex="003B"/>
  <outline>
    <contour>
      <point x="153" y="1064" type="qcurve" smooth="yes"/>
      <point x="153" y="1148"/>
      <point x="233" y="1214"/>
      <point x="288" y="1214" type="qcurve" smooth="yes"/>
      <point x="345" y="1214"/>
      <point x="427" y="1148"/>
      <point x="427" y="1064" type="qcurve" smooth="yes"/>
      <point x="427" y="984"/>
      <point x="345" y="914"/>
      <point x="288" y="914" type="qcurve" smooth="yes"/>
      <point x="233" y="914"/>
      <point x="153" y="984"/>
    </contour>
    <contour>
      <point x="67" y="-285" type="line"/>
      <point x="77" y="-244"/>
      <point x="174" y="218"/>
      <point x="179" y="257" type="qcurve"/>
      <point x="387" y="257" type="line"/>
      <point x="402" y="232" type="line"/>
      <point x="374" y="114"/>
      <point x="265" y="-168"/>
      <point x="213" y="-285" type="qcurve"/>
    </contour>
  </outline>
</glyph>
<glyph name="u003C" format="2">
  <advance width="1262"/>
  <unicode hex="003C"/>
  <outline>
    <contour>
      <point x="1149" y="428" type="line"/>
      <point x="1149" y="257" type="line"/>
      <point x="109" y="714" type="line"/>
      <point x="109" y="824" type="line"/>
      <point x="1149" y="1342" type="line"/>
      <point x="1149" y="1170" type="line"/>
      <point x="317" y="777" type="line"/>
    </contour>
  </outline>
</glyph>
<glyph name="u003D" format="2">
  <advance width="1262"/>
  <unicode hex="003D"/>
  <outline>
    <contour>
      <point x="1133" y="918" type="line"/>
      <point x="122" y="918" type="line"/>
      <point x="122" y="1075" type="line"/>
      <point x="1133" y="1075" type="line"/>
    </contour>
    <contour>
      <point x="1133" y="479" type="line"/>
      <point x="122" y="479" type="line"/>
      <point x="122" y="636" type="line"/>
      <point x="1133" y="636" type="line"/>
    </contour>
  </outline>
</glyph>
<glyph name="u003E" format="2">
  <advance width="1262"/>
  <unicode hex="003E"/>
  <outline>
    <contour>
      <point x="1149" y="714" type="line"/>
      <point x="109" y="257" type="line"/>
      <point x="109" y="428" type="line"/>
      <point x="941" y="775" type="line"/>
      <point x="109" y="1170" type="line"/>
      <point x="109" y="1342" type="line"/>
      <point x="1149" y="824" type="line"/>
    </contour>
  </outline>
</glyph>
<glyph name="u003F" format="2">
  <advance width="957"/>
  <unicode hex="003F"/>
  <outline>
    <contour>
      <point x="463" y="444" type="line"/>
      <point x="307" y="444" type="line"/>
      <point x="307" y="503" type="line" smooth="yes"/>
      <point x="307" y="750"/>
      <point x="493" y="878" type="qcurve" smooth="yes"/>
      <point x="714" y="1030"/>
      <point x="714" y="1207" type="qcurve" smooth="yes"/>
      <point x="714" y="1428"/>
      <point x="446" y="1428" type="qcurve" smooth="yes"/>
      <point x="317" y="1428"/>
      <point x="93" y="1336" type="qcurve"/>
      <point x="25" y="1490" type="line"/>
      <point x="288" y="1599"/>
      <point x="459" y="1599" type="qcurve" smooth="yes"/>
      <point x="899" y="1599"/>
      <point x="899" y="1212" type="qcurve" smooth="yes"/>
      <point x="899" y="969"/>
      <point x="638" y="790" type="qcurve" smooth="yes"/>
      <point x="463" y="667"/>
      <point x="463" y="481" type="qcurve" smooth="yes"/>
    </contour>
    <contour>
      <point x="257" y="120" type="qcurve" smooth="yes"/>
      <point x="257" y="200"/>
      <point x="334" y="267"/>
      <point x="394" y="267" type="qcurve" smooth="yes"/>
      <point x="449" y="267"/>
      <point x="528" y="200"/>
      <point x="528" y="120" type="qcurve" smooth="yes"/>
      <point x="528" y="40"/>
      <point x="449" y="-31"/>
      <point x="394" y="-31" type="qcurve" smooth="yes"/>
      <point x="334" y="-31"/>
      <point x="257" y="40"/>
    </contour>
  </outline>
</glyph>
<glyph name="u0040" format="2">
  <advance width="1984"/>
  <unicode hex="0040"/>
  <outline>
    <contour>
      <point x="127" y="618" type="qcurve" smooth="yes"/>
      <point x="127" y="1576"/>
      <point x="1063" y="1576" type="qcurve" smooth="yes"/>
      <point x="1856" y="1576"/>
      <point x="1856" y="788" type="qcurve" smooth="yes"/>
      <point x="1856" y="240"/>
      <point x="1473" y="240" type="qcurve" smooth="yes"/>
      <point x="1265" y="240"/>
      <point x="1207" y="428" type="qcurve"/>
      <point x="1086" y="240"/>
      <point x="919" y="240" type="qcurve" smooth="yes"/>
      <point x="569" y="240"/>
      <point x="569" y="651" type="qcurve" smooth="yes"/>
      <point x="569" y="1148"/>
      <point x="1037" y="1148" type="qcurve" smooth="yes"/>
      <point x="1226" y="1148"/>
      <point x="1374" y="1095" type="qcurve"/>
      <point x="1353" y="647" type="line" smooth="yes"/>
      <point x="1339" y="377"/>
      <point x="1487" y="377" type="qcurve" smooth="yes"/>
      <point x="1701" y="377"/>
      <point x="1701" y="790" type="qcurve" smooth="yes"/>
      <point x="1701" y="1430"/>
      <point x="1063" y="1430" type="qcurve" smooth="yes"/>
      <point x="285" y="1430"/>
      <point x="285" y="625" type="qcurve" smooth="yes"/>
      <point x="285" y="-51"/>
      <point x="955" y="-51" type="qcurve" smooth="yes"/>
      <point x="1197" y="-51"/>
      <point x="1429" y="44" type="qcurve"/>
      <point x="1429" y="-106" type="line"/>
      <point x="1206" y="-196"/>
      <point x="955" y="-196" type="qcurve" smooth="yes"/>
      <point x="127" y="-196"/>
    </contour>
    <contour>
      <point x="948" y="377" type="qcurve" smooth="yes"/>
      <point x="1082" y="377"/>
      <point x="1184" y="628" type="qcurve"/>
      <point x="1184" y="642"/>
      <point x="1185" y="656" type="qcurve" smooth="yes"/>
      <point x="1202" y="986" type="line"/>
      <point x="1139" y="1009"/>
      <point x="1039" y="1009" type="qcurve" smooth="yes"/>
      <point x="740" y="1009"/>
      <point x="740" y="647" type="qcurve" smooth="yes"/>
      <point x="740" y="377"/>
    </contour>
  </outline>
</glyph>
<glyph name="u0041" format="2">
  <advance width="1409"/>
  <unicode hex="0041"/>
  <outline>
    <contour>
      <point x="1180" y="0" type="line"/>
      <point x="1007" y="466" type="line"/>
      <point x="400" y="466" type="line"/>
      <point x="223" y="0" type="line"/>
      <point x="32" y="0" type="line"/>
      <point x="619" y="1510" type="line"/>
      <point x="790" y="1510" type="line"/>
      <point x="1377" y="0" type="line"/>
    </contour>
    <contour>
      <point x="464" y="634" type="line"/>
      <point x="944" y="634" type="line"/>
      <point x="774" y="1089" type="line" smooth="yes"/>
      <point x="768" y="1105"/>
      <point x="702" y="1315" type="qcurve"/>
      <point x="650" y="1126"/>
      <point x="637" y="1089" type="qcurve" smooth="yes"/>
    </contour>
  </outline>
</glyph>
<glyph name="u0042" format="2">
  <advance width="1434"/>
  <unicode hex="0042"/>
  <outline>
    <contour>
      <point x="236" y="0" type="line"/>
      <point x="236" y="1510" type="line"/>
      <point x="672" y="1510" type="line" smooth="yes"/>
      <point x="1241" y="1509"/>
      <point x="1241" y="1136" type="qcurve" smooth="yes"/>
      <point x="1240" y="853"/>
      <point x="953" y="801" type="qcurve"/>
      <point x="953" y="791" type="line"/>
      <point x="1292" y="741"/>
      <point x="1292" y="429" type="qcurve" smooth="yes"/>
      <point x="1292" y="0"/>
      <point x="706" y="0" type="qcurve" smooth="yes"/>
    </contour>
    <contour>
      <point x="426" y="1348" type="line"/>
      <point x="426" y="867" type="line"/>
      <point x="706" y="867" type="line" smooth="yes"/>
      <point x="1044" y="868"/>
      <point x="1044" y="1114" type="qcurve" smooth="yes"/>
      <point x="1043" y="1348"/>
      <point x="672" y="1348" type="qcurve" smooth="yes"/>
    </contour>
    <contour>
      <point x="426" y="708" type="line"/>
      <point x="426" y="161" type="line"/>
      <point x="706" y="161" type="line" smooth="yes"/>
      <point x="1088" y="162"/>
      <point x="1088" y="444" type="qcurve" smooth="yes"/>
      <point x="1087" y="708"/>
      <point x="706" y="708" type="qcurve" smooth="yes"/>
    </contour>
  </outline>
</glyph>
<glyph name="u0043" format="2">
  <advance width="1394"/>
  <unicode hex="0043"/>
  <outline>
    <contour>
      <point x="174" y="734" type="qcurve" smooth="yes"/>
      <point x="174" y="1488"/>
      <point x="879" y="1488" type="qcurve" smooth="yes"/>
      <point x="1093" y="1488"/>
      <point x="1284" y="1401" type="qcurve"/>
      <point x="1210" y="1245" type="line"/>
      <point x="1035" y="1325"/>
      <point x="877" y="1325" type="qcurve"/>
      <point x="369" y="1324"/>
      <point x="369" y="733" type="qcurve" smooth="yes"/>
      <point x="370" y="140"/>
      <point x="874" y="140" type="qcurve" smooth="yes"/>
      <point x="1045" y="140"/>
      <point x="1227" y="199" type="qcurve"/>
      <point x="1227" y="38" type="line"/>
      <point x="1046" y="-22"/>
      <point x="848" y="-22" type="qcurve" smooth="yes"/>
      <point x="174" y="-21"/>
    </contour>
  </outline>
</glyph>
<glyph name="u0044" format="2">
  <advance width="1611"/>
  <unicode hex="0044"/>
  <outline>
    <contour>
      <point x="239" y="0" type="line"/>
      <point x="239" y="1510" type="line"/>
      <point x="695" y="1510" type="line" smooth="yes"/>
      <point x="1449" y="1509"/>
      <point x="1449" y="755" type="qcurve" smooth="yes"/>
      <point x="1449" y="0"/>
      <point x="695" y="0" type="qcurve" smooth="yes"/>
    </contour>
    <contour>
      <point x="429" y="1348" type="line"/>
      <point x="429" y="163" type="line"/>
      <point x="695" y="163" type="line" smooth="yes"/>
      <point x="1248" y="164"/>
      <point x="1248" y="756" type="qcurve" smooth="yes"/>
      <point x="1247" y="1348"/>
      <point x="695" y="1348" type="qcurve" smooth="yes"/>
    </contour>
  </outline>
</glyph>
<glyph name="u0045" format="2">
  <advance width="1226"/>
  <unicode hex="0045"/>
  <outline>
    <contour>
      <point x="1076" y="0" type="line"/>
      <point x="231" y="0" type="line"/>
      <point x="231" y="1510" type="line"/>
      <point x="1076" y="1510" type="line"/>
      <point x="1076" y="1342" type="line"/>
      <point x="421" y="1342" type="line"/>
      <point x="421" y="872" type="line"/>
      <point x="1037" y="872" type="line"/>
      <point x="1037" y="706" type="line"/>
      <point x="421" y="706" type="line"/>
      <point x="421" y="168" type="line"/>
      <point x="1076" y="168" type="line"/>
    </contour>
  </outline>
</glyph>
<glyph name="u0046" format="2">
  <advance width="1144"/>
  <unicode hex="0046"/>
  <outline>
    <contour>
      <point x="421" y="0" type="line"/>
      <point x="231" y="0" type="line"/>
      <point x="231" y="1510" type="line"/>
      <point x="1076" y="1510" type="line"/>
      <point x="1076" y="1342" type="line"/>
      <point x="421" y="1342" type="line"/>
      <point x="421" y="808" type="line"/>
      <point x="1035" y="808" type="line"/>
      <point x="1035" y="641" type="line"/>
      <point x="421" y="641" type="line"/>
    </contour>
  </outline>
</glyph>
<glyph name="u0047" format="2">
  <advance width="1606"/>
  <unicode hex="0047"/>
  <outline>
    <contour>
      <point x="178" y="733" type="qcurve" smooth="yes"/>
      <point x="178" y="1488"/>
      <point x="939" y="1488" type="qcurve" smooth="yes"/>
      <point x="1200" y="1488"/>
      <point x="1377" y="1401" type="qcurve"/>
      <point x="1307" y="1240" type="line"/>
      <point x="1133" y="1325"/>
      <point x="929" y="1325" type="qcurve"/>
      <point x="372" y="1324"/>
      <point x="372" y="733" type="qcurve" smooth="yes"/>
      <point x="373" y="138"/>
      <point x="924" y="138" type="qcurve" smooth="yes"/>
      <point x="1138" y="138"/>
      <point x="1212" y="174" type="qcurve"/>
      <point x="1212" y="609" type="line"/>
      <point x="890" y="609" type="line"/>
      <point x="890" y="774" type="line"/>
      <point x="1397" y="774" type="line"/>
      <point x="1397" y="53" type="line"/>
      <point x="1236" y="-22"/>
      <point x="881" y="-22" type="qcurve" smooth="yes"/>
      <point x="178" y="-21"/>
    </contour>
  </outline>
</glyph>
<glyph name="u0048" format="2">
  <advance width="1635"/>
  <unicode hex="0048"/>
  <outline>
    <contour>
      <point x="428" y="0" type="line"/>
      <point x="238" y="0" type="line"/>
      <point x="238" y="1510" type="line"/>
      <point x="428" y="1510" type="line"/>
      <point x="428" y="872" type="line"/>
      <point x="1203" y="872" type="line"/>
      <point x="1203" y="1510" type="line"/>
      <point x="1393" y="1510" type="line"/>
      <point x="1393" y="0" type="line"/>
      <point x="1203" y="0" type="line"/>
      <point x="1203" y="704" type="line"/>
      <point x="428" y="704" type="line"/>
    </contour>
  </outline>
</glyph>
<glyph name="u0049" format="2">
  <advance width="748"/>
  <unicode hex="0049"/>
  <outline>
    <contour>
      <point x="644" y="0" type="line"/>
      <point x="99" y="0" type="line"/>
      <point x="99" y="109" type="line"/>
      <point x="276" y="149" type="line"/>
      <point x="276" y="1358" type="line"/>
      <point x="99" y="1401" type="line"/>
      <point x="99" y="1510" type="line"/>
      <point x="644" y="1510" type="line"/>
      <point x="644" y="1401" type="line"/>
      <point x="467" y="1358" type="line"/>
      <point x="467" y="149" type="line"/>
      <point x="644" y="109" type="line"/>
    </contour>
  </outline>
</glyph>
<glyph name="u004A" format="2">
  <advance width="602"/>
  <unicode hex="004A"/>
  <outline>
    <contour>
      <point x="-171" y="-390" type="qcurve"/>
      <point x="-171" y="-223" type="line"/>
      <point x="-100" y="-245"/>
      <point x="-13" y="-245" type="qcurve" smooth="yes"/>
      <point x="204" y="-245"/>
      <point x="204" y="9" type="qcurve" smooth="yes"/>
      <point x="204" y="1510" type="line"/>
      <point x="402" y="1510" type="line"/>
      <point x="402" y="25" type="line" smooth="yes"/>
      <point x="402" y="-419"/>
      <point x="-7" y="-419" type="qcurve" smooth="yes"/>
      <point x="-74" y="-419"/>
    </contour>
  </outline>
</glyph>
<glyph name="u004B" format="2">
  <advance width="1365"/>
  <unicode hex="004B"/>
  <outline>
    <contour>
      <point x="427" y="0" type="line"/>
      <point x="237" y="0" type="line"/>
      <point x="237" y="1511" type="line"/>
      <point x="427" y="1511" type="line"/>
      <point x="427" y="766" type="line"/>
      <point x="621" y="981"/>
      <point x="687" y="1054" type="qcurve" smooth="yes"/>
      <point x="1096" y="1511" type="line"/>
      <point x="1319" y="1511" type="line"/>
      <point x="719" y="852" type="line"/>
      <point x="1341" y="0" type="line"/>
      <point x="1117" y="0" type="line"/>
      <point x="582" y="721" type="line"/>
      <point x="427" y="586" type="line"/>
    </contour>
  </outline>
</glyph>
<glyph name="u004C" format="2">
  <advance width="1156"/>
  <unicode hex="004C"/>
  <outline>
    <contour>
      <point x="1082" y="0" type="line"/>
      <point x="231" y="0" type="line"/>
      <point x="231" y="1511" type="line"/>
      <point x="421" y="1511" type="line"/>
      <point x="421" y="170" type="line"/>
      <point x="1082" y="170" type="line"/>
    </contour>
  </outline>
</glyph>
<glyph name="u004D" format="2">
  <advance width="2001"/>
  <unicode hex="004D"/>
  <outline>
    <contour>
      <point x="421" y="0" type="line"/>
      <point x="246" y="0" type="line"/>
      <point x="246" y="1510" type="line"/>
      <point x="527" y="1510" type="line"/>
      <point x="992" y="273" type="line"/>
      <point x="1001" y="273" type="line"/>
      <point x="1475" y="1510" type="line"/>
      <point x="1754" y="1510" type="line"/>
      <point x="1754" y="0" type="line"/>
      <point x="1566" y="0" type="line"/>
      <point x="1566" y="928" type="line" smooth="yes"/>
      <point x="1566" y="1038"/>
      <point x="1581" y="1322" type="qcurve"/>
      <point x="1572" y="1322" type="line"/>
      <point x="1069" y="0" type="line"/>
      <point x="912" y="0" type="line"/>
      <point x="416" y="1324" type="line"/>
      <point x="407" y="1324" type="line"/>
      <point x="421" y="1036"/>
      <point x="421" y="916" type="qcurve" smooth="yes"/>
    </contour>
  </outline>
</glyph>
<glyph name="u004E" format="2">
  <advance width="1677"/>
  <unicode hex="004E"/>
  <outline>
    <contour>
      <point x="414" y="0" type="line"/>
      <point x="239" y="0" type="line"/>
      <point x="239" y="1510" type="line"/>
      <point x="460" y="1510" type="line"/>
      <point x="1264" y="261" type="line"/>
      <point x="1273" y="261" type="line"/>
      <point x="1259" y="588"/>
      <point x="1259" y="658" type="qcurve" smooth="yes"/>
      <point x="1259" y="1510" type="line"/>
      <point x="1436" y="1510" type="line"/>
      <point x="1436" y="0" type="line"/>
      <point x="1215" y="0" type="line"/>
      <point x="407" y="1254" type="line"/>
      <point x="398" y="1254" type="line"/>
      <point x="414" y="959"/>
      <point x="414" y="844" type="qcurve" smooth="yes"/>
    </contour>
  </outline>
</glyph>
<glyph name="u004F" format="2">
  <advance width="1723"/>
  <unicode hex="004F"/>
  <outline>
    <contour>
      <point x="184" y="733" type="qcurve" smooth="yes"/>
      <point x="184" y="1488"/>
      <point x="861" y="1488" type="qcurve" smooth="yes"/>
      <point x="1537" y="1487"/>
      <point x="1537" y="733" type="qcurve" smooth="yes"/>
      <point x="1537" y="-22"/>
      <point x="861" y="-22" type="qcurve" smooth="yes"/>
      <point x="184" y="-21"/>
    </contour>
    <contour>
      <point x="1342" y="734" type="qcurve" smooth="yes"/>
      <point x="1341" y="1327"/>
      <point x="861" y="1327" type="qcurve"/>
      <point x="379" y="1326"/>
      <point x="379" y="734" type="qcurve" smooth="yes"/>
      <point x="380" y="140"/>
      <point x="861" y="140" type="qcurve" smooth="yes"/>
      <point x="1342" y="141"/>
    </contour>
  </outline>
</glyph>
<glyph name="u0050" format="2">
  <advance width="1335"/>
  <unicode hex="0050"/>
  <outline>
    <contour>
      <point x="424" y="0" type="line"/>
      <point x="234" y="0" type="line"/>
      <point x="234" y="1510" type="line"/>
      <point x="618" y="1510" type="line" smooth="yes"/>
      <point x="1201" y="1509"/>
      <point x="1201" y="1049" type="qcurve" smooth="yes"/>
      <point x="1200" y="587"/>
      <point x="618" y="587" type="qcurve" smooth="yes"/>
      <point x="424" y="587" type="line"/>
    </contour>
    <contour>
      <point x="424" y="1348" type="line"/>
      <point x="424" y="751" type="line"/>
      <point x="618" y="751" type="line" smooth="yes"/>
      <point x="1003" y="752"/>
      <point x="1003" y="1050" type="qcurve" smooth="yes"/>
      <point x="1002" y="1348"/>
      <point x="618" y="1348" type="qcurve" smooth="yes"/>
    </contour>
  </outline>
</glyph>
<glyph name="u0051" format="2">
  <advance width="1723"/>
  <unicode hex="0051"/>
  <outline>
    <contour>
      <point x="133" y="790" type="qcurve" smooth="yes"/>
      <point x="133" y="1510"/>
      <point x="861" y="1510" type="qcurve" smooth="yes"/>
      <point x="1588" y="1510"/>
      <point x="1588" y="790" type="qcurve" smooth="yes"/>
      <point x="1588" y="153"/>
      <point x="1140" y="16" type="qcurve"/>
      <point x="1506" y="-375" type="line"/>
      <point x="1222" y="-375" type="line"/>
      <point x="922" y="-20" type="line"/>
      <point x="892" y="-22"/>
      <point x="861" y="-22" type="qcurve" smooth="yes"/>
      <point x="133" y="-22"/>
    </contour>
    <contour>
      <point x="1378" y="790" type="qcurve" smooth="yes"/>
      <point x="1378" y="1337"/>
      <point x="861" y="1337" type="qcurve" smooth="yes"/>
      <point x="343" y="1337"/>
      <point x="343" y="790" type="qcurve" smooth="yes"/>
      <point x="343" y="152"/>
      <point x="861" y="152" type="qcurve" smooth="yes"/>
      <point x="1378" y="152"/>
    </contour>
  </outline>
</glyph>
<glyph name="u0052" format="2">
  <advance width="1372"/>
  <unicode hex="0052"/>
  <outline>
    <contour>
      <point x="429" y="583" type="line"/>
      <point x="429" y="0" type="line"/>
      <point x="240" y="0" type="line"/>
      <point x="240" y="1500" type="line"/>
      <point x="622" y="1500" type="line" smooth="yes"/>
      <point x="1200" y="1499"/>
      <point x="1200" y="1042" type="qcurve" smooth="yes"/>
      <point x="1200" y="726"/>
      <point x="926" y="629" type="qcurve"/>
      <point x="1311" y="0" type="line"/>
      <point x="1091" y="0" type="line"/>
      <point x="745" y="590" type="line"/>
      <point x="686" y="583"/>
      <point x="622" y="583" type="qcurve" smooth="yes"/>
    </contour>
    <contour>
      <point x="429" y="1339" type="line"/>
      <point x="429" y="746" type="line"/>
      <point x="622" y="746" type="line" smooth="yes"/>
      <point x="1004" y="747"/>
      <point x="1004" y="1042" type="qcurve" smooth="yes"/>
      <point x="1003" y="1339"/>
      <point x="622" y="1339" type="qcurve" smooth="yes"/>
    </contour>
  </outline>
</glyph>
<glyph name="u0053" format="2">
  <advance width="1211"/>
  <unicode hex="0053"/>
  <outline>
    <contour>
      <point x="146" y="48" type="qcurve"/>
      <point x="146" y="225" type="line"/>
      <point x="421" y="138"/>
      <point x="558" y="138" type="qcurve" smooth="yes"/>
      <point x="889" y="139"/>
      <point x="889" y="375" type="qcurve" smooth="yes"/>
      <point x="890" y="567"/>
      <point x="543" y="678" type="qcurve" smooth="yes"/>
      <point x="164" y="798"/>
      <point x="164" y="1113" type="qcurve" smooth="yes"/>
      <point x="164" y="1488"/>
      <point x="633" y="1488" type="qcurve" smooth="yes"/>
      <point x="844" y="1488"/>
      <point x="1039" y="1405" type="qcurve"/>
      <point x="981" y="1247" type="line"/>
      <point x="798" y="1325"/>
      <point x="629" y="1325" type="qcurve"/>
      <point x="352" y="1324"/>
      <point x="352" y="1111" type="qcurve" smooth="yes"/>
      <point x="353" y="916"/>
      <point x="672" y="815" type="qcurve" smooth="yes"/>
      <point x="1074" y="686"/>
      <point x="1074" y="391" type="qcurve" smooth="yes"/>
      <point x="1074" y="-22"/>
      <point x="549" y="-22" type="qcurve" smooth="yes"/>
      <point x="372" y="-22"/>
    </contour>
  </outline>
</glyph>
<glyph name="u0054" format="2">
  <advance width="1226"/>
  <unicode hex="0054"/>
  <outline>
    <contour>
      <point x="708" y="0" type="line"/>
      <point x="518" y="0" type="line"/>
      <point x="518" y="1342" type="line"/>
      <point x="46" y="1342" type="line"/>
      <point x="46" y="1510" type="line"/>
      <point x="1177" y="1510" type="line"/>
      <point x="1177" y="1342" type="line"/>
      <point x="708" y="1342" type="line"/>
    </contour>
  </outline>
</glyph>
<glyph name="u0055" format="2">
  <advance width="1613"/>
  <unicode hex="0055"/>
  <outline>
    <contour>
      <point x="231" y="529" type="qcurve" smooth="yes"/>
      <point x="231" y="1488" type="line"/>
      <point x="419" y="1488" type="line"/>
      <point x="419" y="529" type="line" smooth="yes"/>
      <point x="420" y="141"/>
      <point x="806" y="141" type="qcurve" smooth="yes"/>
      <point x="1193" y="142"/>
      <point x="1193" y="529" type="qcurve" smooth="yes"/>
      <point x="1193" y="1488" type="line"/>
      <point x="1379" y="1488" type="line"/>
      <point x="1379" y="529" type="line" smooth="yes"/>
      <point x="1379" y="-22"/>
      <point x="806" y="-22" type="qcurve" smooth="yes"/>
      <point x="231" y="-21"/>
    </contour>
  </outline>
</glyph>
<glyph name="u0056" format="2">
  <advance width="1323"/>
  <unicode hex="0056"/>
  <outline>
    <contour>
      <point x="758" y="0" type="line"/>
      <point x="567" y="0" type="line"/>
      <point x="28" y="1510" type="line"/>
      <point x="227" y="1510" type="line"/>
      <point x="567" y="541" type="line" smooth="yes"/>
      <point x="601" y="448"/>
      <point x="662" y="212" type="qcurve"/>
      <point x="724" y="449"/>
      <point x="758" y="545" type="qcurve" smooth="yes"/>
      <point x="1096" y="1510" type="line"/>
      <point x="1297" y="1510" type="line"/>
    </contour>
  </outline>
</glyph>
<glyph name="u0057" format="2">
  <advance width="2052"/>
  <unicode hex="0057"/>
  <outline>
    <contour>
      <point x="659" y="0" type="line"/>
      <point x="466" y="0" type="line"/>
      <point x="67" y="1510" type="line"/>
      <point x="266" y="1510" type="line"/>
      <point x="501" y="587" type="line" smooth="yes"/>
      <point x="526" y="492"/>
      <point x="572" y="228" type="qcurve"/>
      <point x="625" y="506"/>
      <point x="652" y="599" type="qcurve" smooth="yes"/>
      <point x="919" y="1510" type="line"/>
      <point x="1116" y="1510" type="line"/>
      <point x="1393" y="592" type="line" smooth="yes"/>
      <point x="1423" y="493"/>
      <point x="1475" y="228" type="qcurve"/>
      <point x="1524" y="491"/>
      <point x="1550" y="589" type="qcurve" smooth="yes"/>
      <point x="1782" y="1510" type="line"/>
      <point x="1980" y="1510" type="line"/>
      <point x="1579" y="0" type="line"/>
      <point x="1387" y="0" type="line"/>
      <point x="1092" y="990" type="line" smooth="yes"/>
      <point x="1074" y="1048"/>
      <point x="1017" y="1288" type="qcurve"/>
      <point x="972" y="1083"/>
      <point x="944" y="983" type="qcurve" smooth="yes"/>
    </contour>
  </outline>
</glyph>
<glyph name="u0058" format="2">
  <advance width="1293"/>
  <unicode hex="0058"/>
  <outline>
    <contour>
      <point x="1042" y="0" type="line"/>
      <point x="641" y="621" type="line"/>
      <point x="236" y="0" type="line"/>
      <point x="35" y="0" type="line"/>
      <point x="541" y="775" type="line"/>
      <point x="66" y="1510" type="line"/>
      <point x="278" y="1510" type="line"/>
      <point x="648" y="940" type="line"/>
      <point x="1020" y="1510" type="line"/>
      <point x="1222" y="1510" type="line"/>
      <point x="749" y="785" type="line"/>
      <point x="1257" y="0" type="line"/>
    </contour>
  </outline>
</glyph>
<glyph name="u0059" format="2">
  <advance width="1249"/>
  <unicode hex="0059"/>
  <outline>
    <contour>
      <point x="720" y="0" type="line"/>
      <point x="529" y="0" type="line"/>
      <point x="529" y="578" type="line"/>
      <point x="26" y="1510" type="line"/>
      <point x="234" y="1510" type="line"/>
      <point x="625" y="767" type="line"/>
      <point x="1019" y="1510" type="line"/>
      <point x="1223" y="1510" type="line"/>
      <point x="720" y="585" type="line"/>
    </contour>
  </outline>
</glyph>
<glyph name="u005A" format="2">
  <advance width="1262"/>
  <unicode hex="005A"/>
  <outline>
    <contour>
      <point x="1152" y="0" type="line"/>
      <point x="105" y="0" type="line"/>
      <point x="105" y="144" type="line"/>
      <point x="900" y="1340" type="line"/>
      <point x="131" y="1340" type="line"/>
      <point x="131" y="1510" type="line"/>
      <point x="1130" y="1510" type="line"/>
      <point x="1130" y="1366" type="line"/>
      <point x="335" y="170" type="line"/>
      <point x="1152" y="170" type="line"/>
    </contour>
  </outline>
</glyph>
<glyph name="u005B" format="2">
  <advance width="725"/>
  <unicode hex="005B"/>
  <outline>
    <contour>
      <point x="670" y="-349" type="line"/>
      <point x="175" y="-349" type="line"/>
      <point x="175" y="1576" type="line"/>
      <point x="670" y="1576" type="line"/>
      <point x="670" y="1417" type="line"/>
      <point x="365" y="1417" type="line"/>
      <point x="365" y="-190" type="line"/>
      <point x="670" y="-190" type="line"/>
    </contour>
  </outline>
</glyph>
<glyph name="u005C" format="2">
  <advance width="820"/>
  <unicode hex="005C"/>
  <outline>
    <contour>
      <point x="800" y="0" type="line"/>
      <point x="608" y="0" type="line"/>
      <point x="21" y="1576" type="line"/>
      <point x="211" y="1576" type="line"/>
    </contour>
  </outline>
</glyph>
<glyph name="u005D" format="2">
  <advance width="725"/>
  <unicode hex="005D"/>
  <outline>
    <contour>
      <point x="549" y="-349" type="line"/>
      <point x="54" y="-349" type="line"/>
      <point x="54" y="-190" type="line"/>
      <point x="359" y="-190" type="line"/>
      <point x="359" y="1417" type="line"/>
      <point x="54" y="1417" type="line"/>
      <point x="54" y="1576" type="line"/>
      <point x="549" y="1576" type="line"/>
    </contour>
  </outline>
</glyph>
<glyph name="u005E" format="2">
  <advance width="1262"/>
  <unicode hex="005E"/>
  <outline>
    <contour>
      <point x="334" y="1072" type="line"/>
      <point x="162" y="1072" type="line"/>
      <point x="550" y="1618" type="line"/>
      <point x="661" y="1618" type="line"/>
      <point x="1067" y="1072" type="line"/>
      <point x="895" y="1072" type="line"/>
      <point x="607" y="1412" type="line"/>
    </contour>
  </outline>
</glyph>
<glyph name="u005F" format="2">
  <advance width="979"/>
  <unicode hex="005F"/>
  <outline>
    <contour>
      <point x="986" y="-340" type="line"/>
      <point x="-4" y="-340" type="line"/>
      <point x="-4" y="-198" type="line"/>
      <point x="986" y="-198" type="line"/>
    </contour>
  </outline>
</glyph>
<glyph name="u0060" format="2">
  <advance width="619"/>
  <unicode hex="0060"/>
  <outline>
    <contour>
      <point x="401" y="1338" type="line"/>
      <point x="375" y="1357"/>
      <point x="100" y="1649"/>
      <point x="87" y="1669" type="qcurve"/>
      <point x="87" y="1691" type="line"/>
      <point x="319" y="1691" type="line"/>
      <point x="354" y="1621"/>
      <point x="471" y="1437"/>
      <point x="531" y="1365" type="qcurve"/>
      <point x="531" y="1338" type="line"/>
    </contour>
  </outline>
</glyph>
<glyph name="u0061" format="2">
  <advance width="1237"/>
  <unicode hex="0061"/>
  <outline>
    <contour>
      <point x="231" y="1102" type="line"/>
      <point x="456" y="1203"/>
      <point x="636" y="1203" type="qcurve" smooth="yes"/>
      <point x="1059" y="1203"/>
      <point x="1059" y="806" type="qcurve" smooth="yes"/>
      <point x="1059" y="0" type="line"/>
      <point x="918" y="0" type="line"/>
      <point x="871" y="215" type="line"/>
      <point x="709" y="-22"/>
      <point x="474" y="-22" type="qcurve" smooth="yes"/>
      <point x="101" y="-22"/>
      <point x="101" y="329" type="qcurve" smooth="yes"/>
      <point x="101" y="670"/>
      <point x="668" y="704" type="qcurve" smooth="yes"/>
      <point x="870" y="714" type="line"/>
      <point x="870" y="806" type="line" smooth="yes"/>
      <point x="870" y="1047"/>
      <point x="624" y="1047" type="qcurve" smooth="yes"/>
      <point x="488" y="1047"/>
      <point x="291" y="956" type="qcurve"/>
    </contour>
    <contour>
      <point x="518" y="135" type="qcurve" smooth="yes"/>
      <point x="741" y="135"/>
      <point x="870" y="385" type="qcurve"/>
      <point x="870" y="579" type="line"/>
      <point x="693" y="570" type="line" smooth="yes"/>
      <point x="301" y="548"/>
      <point x="301" y="327" type="qcurve" smooth="yes"/>
      <point x="301" y="135"/>
    </contour>
  </outline>
</glyph>
<glyph name="u0062" format="2">
  <advance width="1357"/>
  <unicode hex="0062"/>
  <outline>
    <contour>
      <point x="377" y="189" type="qcurve"/>
      <point x="326" y="0" type="line"/>
      <point x="187" y="0" type="line"/>
      <point x="187" y="1677" type="line"/>
      <point x="381" y="1677" type="line"/>
      <point x="381" y="999" type="line"/>
      <point x="565" y="1205"/>
      <point x="769" y="1205" type="qcurve" smooth="yes"/>
      <point x="1236" y="1205"/>
      <point x="1236" y="592" type="qcurve" smooth="yes"/>
      <point x="1236" y="-22"/>
      <point x="769" y="-22" type="qcurve" smooth="yes"/>
      <point x="563" y="-22"/>
    </contour>
    <contour>
      <point x="381" y="800" type="qcurve"/>
      <point x="381" y="384" type="line"/>
      <point x="555" y="139"/>
      <point x="741" y="139" type="qcurve" smooth="yes"/>
      <point x="1034" y="139"/>
      <point x="1034" y="592" type="qcurve" smooth="yes"/>
      <point x="1034" y="1044"/>
      <point x="741" y="1044" type="qcurve" smooth="yes"/>
      <point x="555" y="1044"/>
    </contour>
  </outline>
</glyph>
<glyph name="u0063" format="2">
  <advance width="1059"/>
  <unicode hex="0063"/>
  <outline>
    <contour>
      <point x="120" y="585" type="qcurve" smooth="yes"/>
      <point x="120" y="1205"/>
      <point x="674" y="1205" type="qcurve" smooth="yes"/>
      <point x="837" y="1205"/>
      <point x="986" y="1141" type="qcurve"/>
      <point x="926" y="980" type="line"/>
      <point x="796" y="1036"/>
      <point x="670" y="1036" type="qcurve" smooth="yes"/>
      <point x="320" y="1036"/>
      <point x="320" y="587" type="qcurve" smooth="yes"/>
      <point x="320" y="146"/>
      <point x="659" y="146" type="qcurve" smooth="yes"/>
      <point x="799" y="146"/>
      <point x="965" y="215" type="qcurve"/>
      <point x="965" y="42" type="line"/>
      <point x="816" y="-22"/>
      <point x="661" y="-22" type="qcurve" smooth="yes"/>
      <point x="120" y="-22"/>
    </contour>
  </outline>
</glyph>
<glyph name="u0064" format="2">
  <advance width="1357"/>
  <unicode hex="0064"/>
  <outline>
    <contour>
      <point x="120" y="592" type="qcurve" smooth="yes"/>
      <point x="120" y="1205"/>
      <point x="587" y="1205" type="qcurve" smooth="yes"/>
      <point x="790" y="1205"/>
      <point x="975" y="999" type="qcurve"/>
      <point x="975" y="1677" type="line"/>
      <point x="1169" y="1677" type="line"/>
      <point x="1169" y="0" type="line"/>
      <point x="1030" y="0" type="line"/>
      <point x="979" y="189" type="line"/>
      <point x="793" y="-22"/>
      <point x="587" y="-22" type="qcurve" smooth="yes"/>
      <point x="120" y="-22"/>
    </contour>
    <contour>
      <point x="615" y="139" type="qcurve" smooth="yes"/>
      <point x="801" y="139"/>
      <point x="975" y="384" type="qcurve"/>
      <point x="975" y="800" type="line"/>
      <point x="801" y="1044"/>
      <point x="615" y="1044" type="qcurve" smooth="yes"/>
      <point x="322" y="1044"/>
      <point x="322" y="592" type="qcurve" smooth="yes"/>
      <point x="322" y="139"/>
    </contour>
  </outline>
</glyph>
<glyph name="u0065" format="2">
  <advance width="1244"/>
  <unicode hex="0065"/>
  <outline>
    <contour>
      <point x="120" y="592" type="qcurve" smooth="yes"/>
      <point x="120" y="1205"/>
      <point x="626" y="1205" type="qcurve" smooth="yes"/>
      <point x="1131" y="1205"/>
      <point x="1131" y="672" type="qcurve" smooth="yes"/>
      <point x="1131" y="554" type="line"/>
      <point x="324" y="554" type="line"/>
      <point x="340" y="143"/>
      <point x="699" y="143" type="qcurve" smooth="yes"/>
      <point x="897" y="143"/>
      <point x="1078" y="225" type="qcurve"/>
      <point x="1078" y="55" type="line"/>
      <point x="910" y="-22"/>
      <point x="689" y="-22" type="qcurve" smooth="yes"/>
      <point x="120" y="-22"/>
    </contour>
    <contour>
      <point x="328" y="708" type="qcurve"/>
      <point x="928" y="708" type="line"/>
      <point x="926" y="1047"/>
      <point x="623" y="1047" type="qcurve" smooth="yes"/>
      <point x="363" y="1047"/>
    </contour>
  </outline>
</glyph>
<glyph name="u0066" format="2">
  <advance width="758"/>
  <unicode hex="0066"/>
  <outline>
    <contour>
      <point x="434" y="0" type="line"/>
      <point x="240" y="0" type="line"/>
      <point x="240" y="1033" type="line"/>
      <point x="32" y="1033" type="line"/>
      <point x="32" y="1123" type="line"/>
      <point x="240" y="1190" type="line"/>
      <point x="240" y="1258" type="line" smooth="yes"/>
      <point x="240" y="1689"/>
      <point x="624" y="1689" type="qcurve" smooth="yes"/>
      <point x="697" y="1689"/>
      <point x="853" y="1649" type="qcurve"/>
      <point x="803" y="1497" type="line"/>
      <point x="682" y="1530"/>
      <point x="626" y="1530" type="qcurve" smooth="yes"/>
      <point x="434" y="1530"/>
      <point x="434" y="1260" type="qcurve" smooth="yes"/>
      <point x="434" y="1184" type="line"/>
      <point x="732" y="1184" type="line"/>
      <point x="732" y="1033" type="line"/>
      <point x="434" y="1033" type="line"/>
    </contour>
  </outline>
</glyph>
<glyph name="u0067" format="2">
  <advance width="1357"/>
  <unicode hex="0067"/>
  <outline>
    <contour>
      <point x="120" y="592" type="qcurve" smooth="yes"/>
      <point x="120" y="1205"/>
      <point x="587" y="1205" type="qcurve" smooth="yes"/>
      <point x="795" y="1205"/>
      <point x="982" y="991" type="qcurve"/>
      <point x="1014" y="1184" type="line"/>
      <point x="1169" y="1184" type="line"/>
      <point x="1169" y="-19" type="line" smooth="yes"/>
      <point x="1169" y="-530"/>
      <point x="638" y="-530" type="qcurve" smooth="yes"/>
      <point x="394" y="-530"/>
      <point x="213" y="-455" type="qcurve"/>
      <point x="213" y="-276" type="line"/>
      <point x="441" y="-369"/>
      <point x="650" y="-369" type="qcurve" smooth="yes"/>
      <point x="977" y="-369"/>
      <point x="977" y="-19" type="qcurve" smooth="yes"/>
      <point x="977" y="188" type="line"/>
      <point x="792" y="-22"/>
      <point x="587" y="-22" type="qcurve" smooth="yes"/>
      <point x="120" y="-22"/>
    </contour>
    <contour>
      <point x="615" y="139" type="qcurve" smooth="yes"/>
      <point x="802" y="139"/>
      <point x="977" y="387" type="qcurve"/>
      <point x="977" y="797" type="line"/>
      <point x="802" y="1044"/>
      <point x="615" y="1044" type="qcurve" smooth="yes"/>
      <point x="322" y="1044"/>
      <point x="322" y="592" type="qcurve" smooth="yes"/>
      <point x="322" y="139"/>
    </contour>
  </outline>
</glyph>
<glyph name="u0069" format="2">
  <advance width="569"/>
  <unicode hex="0069"/>
  <outline>
    <contour>
      <point x="171" y="1504" type="qcurve" smooth="yes"/>
      <point x="171" y="1567"/>
      <point x="237" y="1627"/>
      <point x="285" y="1627" type="qcurve" smooth="yes"/>
      <point x="329" y="1627"/>
      <point x="398" y="1567"/>
      <point x="398" y="1504" type="qcurve" smooth="yes"/>
      <point x="398" y="1439"/>
      <point x="329" y="1380"/>
      <point x="285" y="1380" type="qcurve" smooth="yes"/>
      <point x="237" y="1380"/>
      <point x="171" y="1439"/>
    </contour>
    <contour>
      <point x="381" y="0" type="line"/>
      <point x="186" y="0" type="line"/>
      <point x="186" y="1184" type="line"/>
      <point x="381" y="1184" type="line"/>
    </contour>
  </outline>
</glyph>
<glyph name="u006A" format="2">
  <advance width="569"/>
  <unicode hex="006A"/>
  <outline>
    <contour>
      <point x="173" y="1504" type="qcurve" smooth="yes"/>
      <point x="173" y="1567"/>
      <point x="240" y="1627"/>
      <point x="289" y="1627" type="qcurve" smooth="yes"/>
      <point x="333" y="1627"/>
      <point x="401" y="1567"/>
      <point x="401" y="1504" type="qcurve" smooth="yes"/>
      <point x="401" y="1439"/>
      <point x="333" y="1380"/>
      <point x="289" y="1380" type="qcurve" smooth="yes"/>
      <point x="240" y="1380"/>
      <point x="173" y="1439"/>
    </contour>
    <contour>
      <point x="-120" y="-503" type="qcurve"/>
      <point x="-120" y="-347" type="line"/>
      <point x="-38" y="-369"/>
      <point x="26" y="-369" type="qcurve" smooth="yes"/>
      <point x="189" y="-369"/>
      <point x="189" y="-183" type="qcurve" smooth="yes"/>
      <point x="189" y="1184" type="line"/>
      <point x="383" y="1184" type="line"/>
      <point x="383" y="-177" type="line" smooth="yes"/>
      <point x="383" y="-530"/>
      <point x="50" y="-530" type="qcurve" smooth="yes"/>
      <point x="-19" y="-530"/>
    </contour>
  </outline>
</glyph>
<glyph name="u006B" format="2">
  <advance width="1198"/>
  <unicode hex="006B"/>
  <outline>
    <contour>
      <point x="379" y="0" type="line"/>
      <point x="187" y="0" type="line"/>
      <point x="187" y="1677" type="line"/>
      <point x="379" y="1677" type="line"/>
      <point x="379" y="609" type="line"/>
      <point x="897" y="1184" type="line"/>
      <point x="1125" y="1184" type="line"/>
      <point x="646" y="678" type="line"/>
      <point x="1158" y="0" type="line"/>
      <point x="924" y="0" type="line"/>
      <point x="514" y="552" type="line"/>
      <point x="379" y="434" type="line"/>
    </contour>
  </outline>
</glyph>
<glyph name="u006C" format="2">
  <advance width="569"/>
  <unicode hex="006C"/>
  <outline>
    <contour>
      <point x="381" y="0" type="line"/>
      <point x="187" y="0" type="line"/>
      <point x="187" y="1677" type="line"/>
      <point x="381" y="1677" type="line"/>
    </contour>
  </outline>
</glyph>
<glyph name="u006D" format="2">
  <advance width="2063"/>
  <unicode hex="006D"/>
  <outline>
    <contour>
      <point x="343" y="1184" type="line"/>
      <point x="377" y="1041" type="line"/>
      <point x="528" y="1203"/>
      <point x="710" y="1203" type="qcurve" smooth="yes"/>
      <point x="1001" y="1203"/>
      <point x="1091" y="998" type="qcurve"/>
      <point x="1257" y="1203"/>
      <point x="1462" y="1203" type="qcurve" smooth="yes"/>
      <point x="1885" y="1203"/>
      <point x="1885" y="771" type="qcurve" smooth="yes"/>
      <point x="1885" y="0" type="line"/>
      <point x="1693" y="0" type="line"/>
      <point x="1693" y="757" type="line" smooth="yes"/>
      <point x="1693" y="1042"/>
      <point x="1428" y="1042" type="qcurve" smooth="yes"/>
      <point x="1262" y="1042"/>
      <point x="1132" y="866" type="qcurve"/>
      <point x="1132" y="0" type="line"/>
      <point x="940" y="0" type="line"/>
      <point x="940" y="757" type="line" smooth="yes"/>
      <point x="940" y="1042"/>
      <point x="675" y="1042" type="qcurve" smooth="yes"/>
      <point x="509" y="1042"/>
      <point x="381" y="874" type="qcurve"/>
      <point x="381" y="0" type="line"/>
      <point x="187" y="0" type="line"/>
      <point x="187" y="1184" type="line"/>
    </contour>
  </outline>
</glyph>
<glyph name="u006E" format="2">
  <advance width="1363"/>
  <unicode hex="006E"/>
  <outline>
    <contour>
      <point x="381" y="794" type="qcurve"/>
      <point x="381" y="0" type="line"/>
      <point x="187" y="0" type="line"/>
      <point x="187" y="1184" type="line"/>
      <point x="343" y="1184" type="line"/>
      <point x="381" y="990" type="line"/>
      <point x="381" y="984" type="line"/>
      <point x="551" y="1203"/>
      <point x="763" y="1203" type="qcurve" smooth="yes"/>
      <point x="1185" y="1203"/>
      <point x="1185" y="771" type="qcurve" smooth="yes"/>
      <point x="1185" y="0" type="line"/>
      <point x="993" y="0" type="line"/>
      <point x="993" y="757" type="line" smooth="yes"/>
      <point x="993" y="1042"/>
      <point x="728" y="1042" type="qcurve" smooth="yes"/>
      <point x="527" y="1042"/>
    </contour>
  </outline>
</glyph>
<glyph name="u006F" format="2">
  <advance width="1335"/>
  <unicode hex="006F"/>
  <outline>
    <contour>
      <point x="120" y="592" type="qcurve" smooth="yes"/>
      <point x="120" y="1205"/>
      <point x="668" y="1205" type="qcurve" smooth="yes"/>
      <point x="1215" y="1205"/>
      <point x="1215" y="592" type="qcurve" smooth="yes"/>
      <point x="1215" y="-22"/>
      <point x="668" y="-22" type="qcurve" smooth="yes"/>
      <point x="120" y="-22"/>
    </contour>
    <contour>
      <point x="1014" y="591" type="qcurve" smooth="yes"/>
      <point x="1014" y="1042"/>
      <point x="668" y="1042" type="qcurve" smooth="yes"/>
      <point x="320" y="1042"/>
      <point x="320" y="591" type="qcurve" smooth="yes"/>
      <point x="320" y="139"/>
      <point x="668" y="139" type="qcurve" smooth="yes"/>
      <point x="1014" y="139"/>
    </contour>
  </outline>
</glyph>
<glyph name="u0070" format="2">
  <advance width="1357"/>
  <unicode hex="0070"/>
  <outline>
    <contour>
      <point x="379" y="184" type="qcurve"/>
      <point x="379" y="-494" type="line"/>
      <point x="185" y="-494" type="line"/>
      <point x="185" y="1184" type="line"/>
      <point x="324" y="1184" type="line"/>
      <point x="375" y="995" type="line"/>
      <point x="561" y="1205"/>
      <point x="767" y="1205" type="qcurve" smooth="yes"/>
      <point x="1234" y="1205"/>
      <point x="1234" y="592" type="qcurve" smooth="yes"/>
      <point x="1234" y="-22"/>
      <point x="767" y="-22" type="qcurve" smooth="yes"/>
      <point x="563" y="-22"/>
    </contour>
    <contour>
      <point x="379" y="800" type="qcurve"/>
      <point x="379" y="384" type="line"/>
      <point x="553" y="139"/>
      <point x="739" y="139" type="qcurve" smooth="yes"/>
      <point x="1032" y="139"/>
      <point x="1032" y="592" type="qcurve" smooth="yes"/>
      <point x="1032" y="1044"/>
      <point x="739" y="1044" type="qcurve" smooth="yes"/>
      <point x="553" y="1044"/>
    </contour>
  </outline>
</glyph>
<glyph name="u0071" format="2">
  <advance width="1357"/>
  <unicode hex="0071"/>
  <outline>
    <contour>
      <point x="120" y="592" type="qcurve" smooth="yes"/>
      <point x="120" y="1205"/>
      <point x="587" y="1205" type="qcurve" smooth="yes"/>
      <point x="793" y="1205"/>
      <point x="979" y="995" type="qcurve"/>
      <point x="1030" y="1184" type="line"/>
      <point x="1169" y="1184" type="line"/>
      <point x="1169" y="-494" type="line"/>
      <point x="975" y="-494" type="line"/>
      <point x="975" y="184" type="line"/>
      <point x="790" y="-22"/>
      <point x="587" y="-22" type="qcurve" smooth="yes"/>
      <point x="120" y="-22"/>
    </contour>
    <contour>
      <point x="615" y="139" type="qcurve" smooth="yes"/>
      <point x="801" y="139"/>
      <point x="975" y="384" type="qcurve"/>
      <point x="975" y="800" type="line"/>
      <point x="801" y="1044"/>
      <point x="615" y="1044" type="qcurve" smooth="yes"/>
      <point x="322" y="1044"/>
      <point x="322" y="592" type="qcurve" smooth="yes"/>
      <point x="322" y="139"/>
    </contour>
  </outline>
</glyph>
<glyph name="u0072" format="2">
  <advance width="910"/>
  <unicode hex="0072"/>
  <outline>
    <contour>
      <point x="381" y="794" type="qcurve"/>
      <point x="381" y="0" type="line"/>
      <point x="187" y="0" type="line"/>
      <point x="187" y="1184" type="line"/>
      <point x="343" y="1184" type="line"/>
      <point x="381" y="990" type="line"/>
      <point x="381" y="988" type="line"/>
      <point x="546" y="1205"/>
      <point x="739" y="1205" type="qcurve" smooth="yes"/>
      <point x="827" y="1205"/>
      <point x="878" y="1192" type="qcurve"/>
      <point x="853" y="1013" type="line"/>
      <point x="797" y="1028"/>
      <point x="726" y="1028" type="qcurve" smooth="yes"/>
      <point x="527" y="1028"/>
    </contour>
  </outline>
</glyph>
<glyph name="u0073" format="2">
  <advance width="1056"/>
  <unicode hex="0073"/>
  <outline>
    <contour>
      <point x="114" y="53" type="qcurve"/>
      <point x="114" y="230" type="line"/>
      <point x="330" y="135"/>
      <point x="489" y="135" type="qcurve" smooth="yes"/>
      <point x="770" y="135"/>
      <point x="770" y="309" type="qcurve" smooth="yes"/>
      <point x="770" y="447"/>
      <point x="478" y="539" type="qcurve" smooth="yes"/>
      <point x="112" y="654"/>
      <point x="112" y="891" type="qcurve" smooth="yes"/>
      <point x="112" y="1205"/>
      <point x="556" y="1205" type="qcurve" smooth="yes"/>
      <point x="739" y="1205"/>
      <point x="933" y="1125" type="qcurve"/>
      <point x="867" y="971" type="line"/>
      <point x="682" y="1047"/>
      <point x="542" y="1047" type="qcurve" smooth="yes"/>
      <point x="297" y="1047"/>
      <point x="297" y="903" type="qcurve" smooth="yes"/>
      <point x="297" y="774"/>
      <point x="602" y="678" type="qcurve" smooth="yes"/>
      <point x="957" y="566"/>
      <point x="957" y="327" type="qcurve" smooth="yes"/>
      <point x="957" y="-22"/>
      <point x="485" y="-22" type="qcurve" smooth="yes"/>
      <point x="282" y="-22"/>
    </contour>
  </outline>
</glyph>
<glyph name="u0074" format="2">
  <advance width="796"/>
  <unicode hex="0074"/>
  <outline>
    <contour>
      <point x="202" y="344" type="qcurve" smooth="yes"/>
      <point x="202" y="1033" type="line"/>
      <point x="34" y="1033" type="line"/>
      <point x="34" y="1125" type="line"/>
      <point x="204" y="1203" type="line"/>
      <point x="281" y="1455" type="line"/>
      <point x="396" y="1455" type="line"/>
      <point x="396" y="1184" type="line"/>
      <point x="738" y="1184" type="line"/>
      <point x="738" y="1033" type="line"/>
      <point x="396" y="1033" type="line"/>
      <point x="396" y="349" type="line" smooth="yes"/>
      <point x="396" y="137"/>
      <point x="582" y="137" type="qcurve" smooth="yes"/>
      <point x="661" y="137"/>
      <point x="748" y="162" type="qcurve"/>
      <point x="748" y="13" type="line"/>
      <point x="633" y="-22"/>
      <point x="548" y="-22" type="qcurve" smooth="yes"/>
      <point x="202" y="-22"/>
    </contour>
  </outline>
</glyph>
<glyph name="u0075" format="2">
  <advance width="1363"/>
  <unicode hex="0075"/>
  <outline>
    <contour>
      <point x="187" y="411" type="qcurve" smooth="yes"/>
      <point x="187" y="1181" type="line"/>
      <point x="379" y="1181" type="line"/>
      <point x="379" y="425" type="line" smooth="yes"/>
      <point x="379" y="139"/>
      <point x="644" y="139" type="qcurve" smooth="yes"/>
      <point x="846" y="139"/>
      <point x="991" y="387" type="qcurve"/>
      <point x="991" y="1181" type="line"/>
      <point x="1185" y="1181" type="line"/>
      <point x="1185" y="-2" type="line"/>
      <point x="1029" y="-2" type="line"/>
      <point x="991" y="192" type="line"/>
      <point x="991" y="197" type="line"/>
      <point x="821" y="-22"/>
      <point x="610" y="-22" type="qcurve" smooth="yes"/>
      <point x="187" y="-22"/>
    </contour>
  </outline>
</glyph>
<glyph name="u0076" format="2">
  <advance width="1121"/>
  <unicode hex="0076"/>
  <outline>
    <contour>
      <point x="672" y="0" type="line"/>
      <point x="448" y="0" type="line"/>
      <point x="0" y="1184" type="line"/>
      <point x="208" y="1184" type="line"/>
      <point x="459" y="486" type="line" smooth="yes"/>
      <point x="476" y="438"/>
      <point x="554" y="172" type="qcurve"/>
      <point x="563" y="172" type="line"/>
      <point x="645" y="438"/>
      <point x="662" y="486" type="qcurve" smooth="yes"/>
      <point x="914" y="1184" type="line"/>
      <point x="1121" y="1184" type="line"/>
    </contour>
  </outline>
</glyph>
<glyph name="u0077" format="2">
  <advance width="1734"/>
  <unicode hex="0077"/>
  <outline>
    <contour>
      <point x="568" y="2" type="line"/>
      <point x="347" y="2" type="line"/>
      <point x="23" y="1186" type="line"/>
      <point x="223" y="1186" type="line"/>
      <point x="387" y="554" type="line" smooth="yes"/>
      <point x="411" y="459"/>
      <point x="465" y="200" type="qcurve"/>
      <point x="474" y="200" type="line"/>
      <point x="537" y="470"/>
      <point x="553" y="518" type="qcurve" smooth="yes"/>
      <point x="762" y="1186" type="line"/>
      <point x="975" y="1186" type="line"/>
      <point x="1177" y="518" type="line" smooth="yes"/>
      <point x="1200" y="442"/>
      <point x="1257" y="203" type="qcurve"/>
      <point x="1266" y="203" type="line"/>
      <point x="1319" y="453"/>
      <point x="1346" y="554" type="qcurve" smooth="yes"/>
      <point x="1510" y="1186" type="line"/>
      <point x="1710" y="1186" type="line"/>
      <point x="1381" y="2" type="line"/>
      <point x="1154" y="2" type="line"/>
      <point x="950" y="669" type="line" smooth="yes"/>
      <point x="922" y="760"/>
      <point x="868" y="982" type="qcurve"/>
      <point x="859" y="982" type="line"/>
      <point x="811" y="760"/>
      <point x="780" y="666" type="qcurve" smooth="yes"/>
    </contour>
  </outline>
</glyph>
<glyph name="u0078" format="2">
  <advance width="1167"/>
  <unicode hex="0078"/>
  <outline>
    <contour>
      <point x="257" y="0" type="line"/>
      <point x="38" y="0" type="line"/>
      <point x="471" y="606" type="line"/>
      <point x="57" y="1184" type="line"/>
      <point x="278" y="1184" type="line"/>
      <point x="582" y="760" type="line"/>
      <point x="885" y="1184" type="line"/>
      <point x="1104" y="1184" type="line"/>
      <point x="691" y="607" type="line"/>
      <point x="1127" y="0" type="line"/>
      <point x="906" y="0" type="line"/>
      <point x="581" y="453" type="line"/>
    </contour>
  </outline>
</glyph>
<glyph name="u0079" format="2">
  <advance width="1125"/>
  <unicode hex="0079"/>
  <outline>
    <contour>
      <point x="24" y="-512" type="qcurve"/>
      <point x="24" y="-358" type="line"/>
      <point x="58" y="-371"/>
      <point x="154" y="-371" type="qcurve" smooth="yes"/>
      <point x="322" y="-371"/>
      <point x="417" y="-137" type="qcurve" smooth="yes"/>
      <point x="465" y="-8" type="line"/>
      <point x="2" y="1184" type="line"/>
      <point x="210" y="1184" type="line"/>
      <point x="563" y="249" type="line"/>
      <point x="916" y="1184" type="line"/>
      <point x="1125" y="1184" type="line"/>
      <point x="615" y="-164" type="line" smooth="yes"/>
      <point x="469" y="-530"/>
      <point x="185" y="-530" type="qcurve" smooth="yes"/>
      <point x="76" y="-530"/>
    </contour>
  </outline>
</glyph>
<glyph name="u007A" format="2">
  <advance width="1036"/>
  <unicode hex="007A"/>
  <outline>
    <contour>
      <point x="951" y="0" type="line"/>
      <point x="85" y="0" type="line"/>
      <point x="85" y="128" type="line"/>
      <point x="721" y="1033" type="line"/>
      <point x="123" y="1033" type="line"/>
      <point x="123" y="1184" type="line"/>
      <point x="934" y="1184" type="line"/>
      <point x="934" y="1038" type="line"/>
      <point x="308" y="150" type="line"/>
      <point x="951" y="150" type="line"/>
    </contour>
  </outline>
</glyph>
<glyph name="u007B" format="2">
  <advance width="838"/>
  <unicode hex="007B"/>
  <outline>
    <contour>
      <point x="776" y="-349" type="line"/>
      <point x="338" y="-349"/>
      <point x="338" y="0" type="qcurve" smooth="yes"/>
      <point x="338" y="329" type="line" smooth="yes"/>
      <point x="338" y="532"/>
      <point x="70" y="535" type="qcurve"/>
      <point x="70" y="695" type="line"/>
      <point x="338" y="695"/>
      <point x="338" y="903" type="qcurve" smooth="yes"/>
      <point x="338" y="1226" type="line" smooth="yes"/>
      <point x="338" y="1574"/>
      <point x="776" y="1576" type="qcurve"/>
      <point x="776" y="1417" type="line"/>
      <point x="530" y="1415"/>
      <point x="531" y="1212" type="qcurve" smooth="yes"/>
      <point x="531" y="889" type="line" smooth="yes"/>
      <point x="531" y="663"/>
      <point x="290" y="620" type="qcurve"/>
      <point x="290" y="607" type="line"/>
      <point x="531" y="566"/>
      <point x="531" y="337" type="qcurve" smooth="yes"/>
      <point x="531" y="17" type="line" smooth="yes"/>
      <point x="533" y="-185"/>
      <point x="776" y="-190" type="qcurve"/>
    </contour>
  </outline>
</glyph>
<glyph name="u007C" format="2">
  <advance width="1215"/>
  <unicode hex="007C"/>
  <outline>
    <contour>
      <point x="689" y="-532" type="line"/>
      <point x="527" y="-532" type="line"/>
      <point x="527" y="1677" type="line"/>
      <point x="689" y="1677" type="line"/>
    </contour>
  </outline>
</glyph>
<glyph name="u007D" format="2">
  <advance width="838"/>
  <unicode hex="007D"/>
  <outline>
    <contour>
      <point x="508" y="0" type="line" smooth="yes"/>
      <point x="504" y="-349"/>
      <point x="70" y="-349" type="qcurve"/>
      <point x="70" y="-190" type="line"/>
      <point x="314" y="-185"/>
      <point x="315" y="17" type="qcurve" smooth="yes"/>
      <point x="315" y="337" type="line" smooth="yes"/>
      <point x="315" y="566"/>
      <point x="556" y="607" type="qcurve"/>
      <point x="556" y="620" type="line"/>
      <point x="315" y="663"/>
      <point x="315" y="889" type="qcurve" smooth="yes"/>
      <point x="315" y="1212" type="line" smooth="yes"/>
      <point x="317" y="1415"/>
      <point x="70" y="1417" type="qcurve"/>
      <point x="70" y="1576" type="line"/>
      <point x="513" y="1574"/>
      <point x="508" y="1226" type="qcurve" smooth="yes"/>
      <point x="508" y="903" type="line" smooth="yes"/>
      <point x="508" y="695"/>
      <point x="776" y="695" type="qcurve"/>
      <point x="776" y="535" type="line"/>
      <point x="508" y="532"/>
      <point x="508" y="329" type="qcurve" smooth="yes"/>
    </contour>
  </outline>
</glyph>
<glyph name="u007E" format="2">
  <advance width="1262"/>
  <unicode hex="007E"/>
  <outline>
    <contour>
      <point x="1149" y="752" type="line"/>
      <point x="1040" y="634"/>
      <point x="884" y="634" type="qcurve" smooth="yes"/>
      <point x="733" y="634"/>
      <point x="593" y="704" type="qcurve" smooth="yes"/>
      <point x="468" y="764"/>
      <point x="360" y="764" type="qcurve"/>
      <point x="236" y="761"/>
      <point x="109" y="634" type="qcurve"/>
      <point x="109" y="806" type="line"/>
      <point x="221" y="923"/>
      <point x="374" y="923" type="qcurve" smooth="yes"/>
      <point x="523" y="923"/>
      <point x="665" y="853" type="qcurve" smooth="yes"/>
      <point x="786" y="792"/>
      <point x="895" y="792" type="qcurve" smooth="yes"/>
      <point x="1023" y="792"/>
      <point x="1149" y="923" type="qcurve"/>
    </contour>
  </outline>
</glyph>
<glyph name="guillemotleft" format="2">
  <advance width="1123"/>
  <unicode hex="00AB"/>
  <outline>
    <contour>
      <point x="1037" y="205" type="line"/>
      <point x="900" y="124" type="line"/>
      <point x="525" y="567" type="line"/>
      <point x="525" y="596" type="line"/>
      <point x="900" y="1040" type="line"/>
      <point x="1037" y="960" type="line"/>
      <point x="727" y="583" type="line"/>
    </contour>
    <contour>
      <point x="597" y="205" type="line"/>
      <point x="458" y="124" type="line"/>
      <point x="87" y="567" type="line"/>
      <point x="87" y="596" type="line"/>
      <point x="458" y="1040" type="line"/>
      <point x="597" y="960" type="line"/>
      <point x="287" y="583" type="line"/>
    </contour>
  </outline>
</glyph>
<glyph name="guillemotright" format="2">
  <advance width="1123"/>
  <unicode hex="00BB"/>
  <outline>
    <contour>
      <point x="1035" y="567" type="line"/>
      <point x="658" y="124" type="line"/>
      <point x="523" y="205" type="line"/>
      <point x="831" y="583" type="line"/>
      <point x="523" y="960" type="line"/>
      <point x="658" y="1040" type="line"/>
      <point x="1035" y="596" type="line"/>
    </contour>
    <contour>
      <point x="595" y="567" type="line"/>
      <point x="222" y="124" type="line"/>
      <point x="85" y="205" type="line"/>
      <point x="394" y="583" type="line"/>
      <point x="85" y="960" type="line"/>
      <point x="222" y="1040" type="line"/>
      <point x="595" y="596" type="line"/>
    </contour>
  </outline>
</glyph>
<glyph name="uni1780" format="2">
  <advance width="1450"/>
  <unicode hex="1780"/>
  <outline>
    <contour>
      <point x="250" y="750" type="line" smooth="yes"/>
      <point x="250" y="850"/>
      <point x="500" y="1050"/>
      <point x="700" y="1050" type="qcurve" smooth="yes"/>
      <point x="750" y="1050" type="line" smooth="yes"/>
      <point x="950" y="1050"/>
      <point x="1200" y="850"/>
      <point x="1200" y="750" type="qcurve" smooth="yes"/>
      <point x="1200" y="0" type="line"/>
      <point x="1012" y="0" type="line"/>
      <point x="1012" y="750" type="line" smooth="yes"/>
      <point x="1012" y="808"/>
      <point x="856" y="906"/>
      <point x="750" y="906" type="qcurve" smooth="yes"/>
      <point x="700" y="906" type="line" smooth="yes"/>
      <point x="594" y="906"/>
      <point x="438" y="808"/>
      <point x="438" y="750" type="qcurve" smooth="yes"/>
      <point x="438" y="0" type="line"/>
      <point x="250" y="0" type="line"/>
    </contour>
    <contour>
      <point x="338" y="987" type="line"/>
      <point x="180" y="1048"/>
      <point x="180" y="1147" type="qcurve" smooth="yes"/>
      <point x="180" y="1202" type="line" smooth="yes"/>
      <point x="180" y="1254"/>
      <point x="442" y="1500"/>
      <point x="474" y="1500" type="qcurve" smooth="yes"/>
      <point x="511" y="1500"/>
      <point x="700" y="1303"/>
      <point x="730" y="1303" type="qcurve" smooth="yes"/>
      <point x="755" y="1303"/>
      <point x="932" y="1500"/>
      <point x="968" y="1500" type="qcurve" smooth="yes"/>
      <point x="1003" y="1500"/>
      <point x="1208" y="1283"/>
      <point x="1264" y="1283" type="qcurve" smooth="yes"/>
      <point x="1284" y="1283"/>
      <point x="1300" y="1294" type="qcurve"/>
      <point x="1230" y="1127"/>
      <point x="1165" y="1127" type="qcurve" smooth="yes"/>
      <point x="1097" y="1127"/>
      <point x="943" y="1288"/>
      <point x="910" y="1288" type="qcurve" smooth="yes"/>
      <point x="867" y="1288"/>
      <point x="750" y="1127"/>
      <point x="700" y="1127" type="qcurve" smooth="yes"/>
      <point x="628" y="1127"/>
      <point x="455" y="1288"/>
      <point x="417" y="1288" type="qcurve" smooth="yes"/>
      <point x="394" y="1288"/>
      <point x="330" y="1224"/>
      <point x="330" y="1178" type="qcurve" smooth="yes"/>
      <point x="330" y="1148"/>
      <point x="467" y="1078" type="qcurve"/>
    </contour>
  </outline>
</glyph>
<glyph name="uni1782" format="2">
  <advance width="1450"/>
  <unicode hex="1782"/>
  <outline>
    <contour>
      <point x="428" y="284" type="line"/>
      <point x="483" y="372" type="line" smooth="yes"/>
      <point x="562" y="500"/>
      <point x="662" y="500" type="qcurve" smooth="yes"/>
      <point x="800" y="500"/>
      <point x="800" y="380" type="qcurve" smooth="yes"/>
      <point x="800" y="300"/>
      <point x="723" y="300" type="qcurve" smooth="yes"/>
      <point x="666" y="300"/>
      <point x="666" y="333" type="qcurve" smooth="yes"/>
      <point x="666" y="366"/>
      <point x="642" y="366" type="qcurve" smooth="yes"/>
      <point x="618" y="366"/>
      <point x="568" y="283" type="qcurve" smooth="yes"/>
      <point x="428" y="51" type="line"/>
    </contour>
    <contour>
      <point x="250" y="750" type="line" smooth="yes"/>
      <point x="250" y="850"/>
      <point x="500" y="1050"/>
      <point x="700" y="1050" type="qcurve" smooth="yes"/>
      <point x="750" y="1050" type="line" smooth="yes"/>
      <point x="950" y="1050"/>
      <point x="1200" y="850"/>
      <point x="1200" y="750" type="qcurve" smooth="yes"/>
      <point x="1200" y="0" type="line"/>
      <point x="1012" y="0" type="line"/>
      <point x="1012" y="750" type="line" smooth="yes"/>
      <point x="1012" y="808"/>
      <point x="856" y="906"/>
      <point x="750" y="906" type="qcurve" smooth="yes"/>
      <point x="700" y="906" type="line" smooth="yes"/>
      <point x="594" y="906"/>
      <point x="438" y="808"/>
      <point x="438" y="750" type="qcurve" smooth="yes"/>
      <point x="438" y="0" type="line"/>
      <point x="250" y="0" type="line"/>
    </contour>
    <contour>
      <point x="338" y="987" type="line"/>
      <point x="180" y="1048"/>
      <point x="180" y="1147" type="qcurve" smooth="yes"/>
      <point x="180" y="1202" type="line" smooth="yes"/>
      <point x="180" y="1254"/>
      <point x="442" y="1500"/>
      <point x="474" y="1500" type="qcurve" smooth="yes"/>
      <point x="511" y="1500"/>
      <point x="700" y="1303"/>
      <point x="730" y="1303" type="qcurve" smooth="yes"/>
      <point x="755" y="1303"/>
      <point x="932" y="1500"/>
      <point x="968" y="1500" type="qcurve" smooth="yes"/>
      <point x="1003" y="1500"/>
      <point x="1208" y="1283"/>
      <point x="1264" y="1283" type="qcurve" smooth="yes"/>
      <point x="1284" y="1283"/>
      <point x="1300" y="1294" type="qcurve"/>
      <point x="1230" y="1127"/>
      <point x="1165" y="1127" type="qcurve" smooth="yes"/>
      <point x="1097" y="1127"/>
      <point x="943" y="1288"/>
      <point x="910" y="1288" type="qcurve" smooth="yes"/>
      <point x="867" y="1288"/>
      <point x="750" y="1127"/>
      <point x="700" y="1127" type="qcurve" smooth="yes"/>
      <point x="628" y="1127"/>
      <point x="455" y="1288"/>
      <point x="417" y="1288" type="qcurve" smooth="yes"/>
      <point x="394" y="1288"/>
      <point x="330" y="1224"/>
      <point x="330" y="1178" type="qcurve" smooth="yes"/>
      <point x="330" y="1148"/>
      <point x="467" y="1078" type="qcurve"/>
    </contour>
  </outline>
</glyph>
<glyph name="uni1783" format="2">
  <advance width="2137"/>
  <unicode hex="1783"/>
  <outline>
    <contour>
      <point x="243" y="1000" type="line" smooth="yes"/>
      <point x="75" y="1000"/>
      <point x="75" y="1155" type="qcurve" smooth="yes"/>
      <point x="75" y="1248"/>
      <point x="184" y="1405" type="qcurve" smooth="yes"/>
      <point x="250" y="1500"/>
      <point x="344" y="1500" type="qcurve" smooth="yes"/>
      <point x="438" y="1500"/>
      <point x="438" y="1435" type="qcurve" smooth="yes"/>
      <point x="438" y="300" type="line" smooth="yes"/>
      <point x="438" y="242"/>
      <point x="594" y="144"/>
      <point x="715" y="144" type="qcurve" smooth="yes"/>
      <point x="836" y="144"/>
      <point x="992" y="242"/>
      <point x="992" y="300" type="qcurve" smooth="yes"/>
      <point x="992" y="993" type="line"/>
      <point x="905" y="1046" type="line" smooth="yes"/>
      <point x="817" y="1099"/>
      <point x="817" y="1131" type="qcurve" smooth="yes"/>
      <point x="817" y="1162"/>
      <point x="873" y="1247" type="qcurve" smooth="yes"/>
      <point x="1041" y="1500" type="line"/>
      <point x="1203" y="1406" type="line" smooth="yes"/>
      <point x="1257" y="1375"/>
      <point x="1276" y="1375" type="qcurve" smooth="yes"/>
      <point x="1294" y="1375"/>
      <point x="1330" y="1385" type="qcurve"/>
      <point x="1330" y="1350"/>
      <point x="1242" y="1212"/>
      <point x="1202" y="1212" type="qcurve" smooth="yes"/>
      <point x="1161" y="1212"/>
      <point x="1099" y="1249" type="qcurve" smooth="yes"/>
      <point x="1031" y="1288" type="line"/>
      <point x="988" y="1213" type="line"/>
      <point x="1180" y="1100" type="line"/>
      <point x="1180" y="300" type="line" smooth="yes"/>
      <point x="1180" y="200"/>
      <point x="930" y="0"/>
      <point x="715" y="0" type="qcurve" smooth="yes"/>
      <point x="500" y="0"/>
      <point x="250" y="200"/>
      <point x="250" y="300" type="qcurve" smooth="yes"/>
      <point x="250" y="1266" type="line"/>
      <point x="200" y="1216"/>
      <point x="200" y="1185" type="qcurve" smooth="yes"/>
      <point x="200" y="1139"/>
      <point x="243" y="1139" type="qcurve" smooth="yes"/>
      <point x="258" y="1139" type="line"/>
      <point x="258" y="1000" type="line"/>
    </contour>
    <contour>
      <point x="1612" y="1046" type="line" smooth="yes"/>
      <point x="1524" y="1099"/>
      <point x="1524" y="1131" type="qcurve" smooth="yes"/>
      <point x="1524" y="1162"/>
      <point x="1580" y="1247" type="qcurve" smooth="yes"/>
      <point x="1748" y="1500" type="line"/>
      <point x="1910" y="1406" type="line" smooth="yes"/>
      <point x="1964" y="1375"/>
      <point x="1983" y="1375" type="qcurve" smooth="yes"/>
      <point x="2001" y="1375"/>
      <point x="2037" y="1385" type="qcurve"/>
      <point x="2037" y="1350"/>
      <point x="1949" y="1212"/>
      <point x="1909" y="1212" type="qcurve" smooth="yes"/>
      <point x="1868" y="1212"/>
      <point x="1806" y="1249" type="qcurve" smooth="yes"/>
      <point x="1738" y="1288" type="line"/>
      <point x="1695" y="1213" type="line"/>
      <point x="1887" y="1100" type="line"/>
      <point x="1887" y="300" type="line" smooth="yes"/>
      <point x="1887" y="200"/>
      <point x="1637" y="0"/>
      <point x="1422" y="0" type="qcurve" smooth="yes"/>
      <point x="1207" y="0"/>
      <point x="1007" y="200"/>
      <point x="1007" y="300" type="qcurve"/>
      <point x="1165" y="300" type="line"/>
      <point x="1165" y="242"/>
      <point x="1301" y="144"/>
      <point x="1422" y="144" type="qcurve" smooth="yes"/>
      <point x="1543" y="144"/>
      <point x="1699" y="242"/>
      <point x="1699" y="300" type="qcurve" smooth="yes"/>
      <point x="1699" y="993" type="line"/>
    </contour>
  </outline>
</glyph>
<glyph name="uni1784" format="2">
  <advance width="1450"/>
  <unicode hex="1784"/>
  <outline>
    <contour>
      <point x="250" y="756" type="line"/>
      <point x="235" y="756"/>
      <point x="210" y="706"/>
      <point x="210" y="685" type="qcurve" smooth="yes"/>
      <point x="210" y="660"/>
      <point x="250" y="660" type="qcurve" smooth="yes"/>
      <point x="260" y="660" type="line"/>
      <point x="260" y="530" type="line"/>
      <point x="250" y="530" type="line" smooth="yes"/>
      <point x="110" y="530"/>
      <point x="110" y="685" type="qcurve" smooth="yes"/>
      <point x="110" y="732"/>
      <point x="220" y="900"/>
      <point x="314" y="900" type="qcurve" smooth="yes"/>
      <point x="438" y="900"/>
      <point x="438" y="800" type="qcurve" smooth="yes"/>
      <point x="438" y="186" type="line"/>
      <point x="725" y="423" type="line"/>
      <point x="1012" y="186" type="line"/>
      <point x="1012" y="980" type="line" smooth="yes"/>
      <point x="1012" y="1087"/>
      <point x="710" y="1255"/>
      <point x="710" y="1344" type="qcurve" smooth="yes"/>
      <point x="710" y="1500"/>
      <point x="920" y="1500" type="qcurve" smooth="yes"/>
      <point x="1120" y="1500"/>
      <point x="1120" y="1344" type="qcurve" smooth="yes"/>
      <point x="1120" y="1247"/>
      <point x="806" y="1016"/>
      <point x="580" y="1016" type="qcurve" smooth="yes"/>
      <point x="250" y="1016"/>
      <point x="250" y="1266" type="qcurve" smooth="yes"/>
      <point x="250" y="1332"/>
      <point x="300" y="1458"/>
      <point x="300" y="1526" type="qcurve" smooth="yes"/>
      <point x="300" y="1614"/>
      <point x="200" y="1614" type="qcurve"/>
      <point x="200" y="1700"/>
      <point x="300" y="1700" type="qcurve" smooth="yes"/>
      <point x="480" y="1700"/>
      <point x="480" y="1526" type="qcurve" smooth="yes"/>
      <point x="480" y="1444"/>
      <point x="430" y="1336"/>
      <point x="430" y="1266" type="qcurve" smooth="yes"/>
      <point x="430" y="1153"/>
      <point x="580" y="1153" type="qcurve" smooth="yes"/>
      <point x="774" y="1153"/>
      <point x="970" y="1293"/>
      <point x="970" y="1344" type="qcurve" smooth="yes"/>
      <point x="970" y="1396"/>
      <point x="920" y="1396" type="qcurve" smooth="yes"/>
      <point x="860" y="1396"/>
      <point x="860" y="1344" type="qcurve" smooth="yes"/>
      <point x="860" y="1300"/>
      <point x="1200" y="1134"/>
      <point x="1200" y="980" type="qcurve" smooth="yes"/>
      <point x="1200" y="0" type="line"/>
      <point x="1012" y="0" type="line"/>
      <point x="725" y="236" type="line"/>
      <point x="438" y="0" type="line"/>
      <point x="250" y="0" type="line"/>
    </contour>
  </outline>
</glyph>
<glyph name="uni1788" format="2">
  <advance width="2874"/>
  <unicode hex="1788"/>
  <outline>
    <contour>
      <point x="1912" y="300" type="line" smooth="yes"/>
      <point x="1912" y="200"/>
      <point x="1662" y="0"/>
      <point x="1462" y="0" type="qcurve" smooth="yes"/>
      <point x="1262" y="0"/>
      <point x="1012" y="200"/>
      <point x="1012" y="300" type="qcurve" smooth="yes"/>
      <point x="1012" y="1050" type="line" smooth="yes"/>
      <point x="1012" y="1126"/>
      <point x="729" y="1322"/>
      <point x="640" y="1322" type="qcurve" smooth="yes"/>
      <point x="536" y="1322"/>
      <point x="468" y="1271" type="qcurve" smooth="yes"/>
      <point x="339" y="1173" type="line"/>
      <point x="377" y="1148" type="line" smooth="yes"/>
      <point x="438" y="1110"/>
      <point x="438" y="1050" type="qcurve" smooth="yes"/>
      <point x="438" y="184" type="line"/>
      <point x="548" y="284"/>
      <point x="548" y="400" type="qcurve" smooth="yes"/>
      <point x="548" y="461"/>
      <point x="445" y="461" type="qcurve" smooth="yes"/>
      <point x="430" y="461" type="line"/>
      <point x="430" y="600" type="line"/>
      <point x="445" y="600" type="line" smooth="yes"/>
      <point x="693" y="600"/>
      <point x="693" y="400" type="qcurve" smooth="yes"/>
      <point x="693" y="252"/>
      <point x="566" y="126" type="qcurve" smooth="yes"/>
      <point x="438" y="0" type="line"/>
      <point x="250" y="0" type="line"/>
      <point x="250" y="1008" type="line"/>
      <point x="188" y="1046" type="line" smooth="yes"/>
      <point x="140" y="1075"/>
      <point x="140" y="1140" type="qcurve" smooth="yes"/>
      <point x="140" y="1205"/>
      <point x="240" y="1279" type="qcurve" smooth="yes"/>
      <point x="377" y="1381" type="line" smooth="yes"/>
      <point x="538" y="1500"/>
      <point x="640" y="1500" type="qcurve" smooth="yes"/>
      <point x="798" y="1500"/>
      <point x="1200" y="1225"/>
      <point x="1200" y="1050" type="qcurve" smooth="yes"/>
      <point x="1200" y="300" type="line" smooth="yes"/>
      <point x="1200" y="242"/>
      <point x="1356" y="144"/>
      <point x="1462" y="144" type="qcurve" smooth="yes"/>
      <point x="1568" y="144"/>
      <point x="1724" y="242"/>
      <point x="1724" y="300" type="qcurve" smooth="yes"/>
      <point x="1724" y="993" type="line"/>
      <point x="1637" y="1046" type="line" smooth="yes"/>
      <point x="1549" y="1099"/>
      <point x="1549" y="1131" type="qcurve" smooth="yes"/>
      <point x="1549" y="1162"/>
      <point x="1605" y="1247" type="qcurve" smooth="yes"/>
      <point x="1773" y="1500" type="line"/>
      <point x="1935" y="1406" type="line" smooth="yes"/>
      <point x="1989" y="1375"/>
      <point x="2008" y="1375" type="qcurve" smooth="yes"/>
      <point x="2026" y="1375"/>
      <point x="2062" y="1385" type="qcurve"/>
      <point x="2062" y="1350"/>
      <point x="1974" y="1212"/>
      <point x="1934" y="1212" type="qcurve" smooth="yes"/>
      <point x="1893" y="1212"/>
      <point x="1831" y="1249" type="qcurve" smooth="yes"/>
      <point x="1763" y="1288" type="line"/>
      <point x="1720" y="1213" type="line"/>
      <point x="1912" y="1100" type="line"/>
    </contour>
    <contour>
      <point x="2342" y="1046" type="line" smooth="yes"/>
      <point x="2254" y="1099"/>
      <point x="2254" y="1131" type="qcurve" smooth="yes"/>
      <point x="2254" y="1162"/>
      <point x="2310" y="1247" type="qcurve" smooth="yes"/>
      <point x="2478" y="1500" type="line"/>
      <point x="2640" y="1406" type="line" smooth="yes"/>
      <point x="2694" y="1375"/>
      <point x="2713" y="1375" type="qcurve" smooth="yes"/>
      <point x="2731" y="1375"/>
      <point x="2767" y="1385" type="qcurve"/>
      <point x="2767" y="1350"/>
      <point x="2679" y="1212"/>
      <point x="2639" y="1212" type="qcurve" smooth="yes"/>
      <point x="2598" y="1212"/>
      <point x="2536" y="1249" type="qcurve" smooth="yes"/>
      <point x="2468" y="1288" type="line"/>
      <point x="2425" y="1213" type="line"/>
      <point x="2617" y="1100" type="line"/>
      <point x="2617" y="300" type="line" smooth="yes"/>
      <point x="2617" y="200"/>
      <point x="2367" y="0"/>
      <point x="2152" y="0" type="qcurve" smooth="yes"/>
      <point x="1937" y="0"/>
      <point x="1737" y="200"/>
      <point x="1737" y="300" type="qcurve"/>
      <point x="1895" y="300" type="line"/>
      <point x="1895" y="242"/>
      <point x="2031" y="144"/>
      <point x="2152" y="144" type="qcurve" smooth="yes"/>
      <point x="2273" y="144"/>
      <point x="2429" y="242"/>
      <point x="2429" y="300" type="qcurve" smooth="yes"/>
      <point x="2429" y="993" type="line"/>
    </contour>
  </outline>
</glyph>
<glyph name="uni178B" format="2">
  <advance width="1450"/>
  <unicode hex="178B"/>
  <outline>
    <contour>
      <point x="463" y="1435" type="qcurve" smooth="yes"/>
      <point x="463" y="300" type="line" smooth="yes"/>
      <point x="463" y="242"/>
      <point x="619" y="144"/>
      <point x="725" y="144" type="qcurve" smooth="yes"/>
      <point x="775" y="144" type="line" smooth="yes"/>
      <point x="881" y="144"/>
      <point x="1037" y="242"/>
      <point x="1037" y="300" type="qcurve" smooth="yes"/>
      <point x="1037" y="993" type="line"/>
      <point x="950" y="1046" type="line" smooth="yes"/>
      <point x="862" y="1099"/>
      <point x="862" y="1131" type="qcurve" smooth="yes"/>
      <point x="862" y="1162"/>
      <point x="910" y="1247" type="qcurve" smooth="yes"/>
      <point x="1054" y="1500" type="line"/>
      <point x="1196" y="1388"/>
      <point x="1223" y="1388" type="qcurve" smooth="yes"/>
      <point x="1250" y="1388"/>
      <point x="1250" y="1440" type="qcurve" smooth="yes"/>
      <point x="1250" y="1532"/>
      <point x="1073" y="1562"/>
      <point x="1073" y="1631" type="qcurve" smooth="yes"/>
      <point x="1073" y="1700"/>
      <point x="1156" y="1700" type="qcurve" smooth="yes"/>
      <point x="1388" y="1700"/>
      <point x="1388" y="1440" type="qcurve" smooth="yes"/>
      <point x="1388" y="1206"/>
      <point x="1243" y="1206" type="qcurve" smooth="yes"/>
      <point x="1198" y="1206"/>
      <point x="1064" y="1283" type="qcurve"/>
      <point x="1033" y="1213" type="line"/>
      <point x="1225" y="1100" type="line"/>
      <point x="1225" y="300" type="line" smooth="yes"/>
      <point x="1225" y="200"/>
      <point x="975" y="0"/>
      <point x="775" y="0" type="qcurve" smooth="yes"/>
      <point x="725" y="0" type="line" smooth="yes"/>
      <point x="525" y="0"/>
      <point x="275" y="200"/>
      <point x="275" y="300" type="qcurve" smooth="yes"/>
      <point x="275" y="1266" type="line"/>
      <point x="225" y="1216"/>
      <point x="225" y="1185" type="qcurve" smooth="yes"/>
      <point x="225" y="1139"/>
      <point x="268" y="1139" type="qcurve" smooth="yes"/>
      <point x="283" y="1139" type="line"/>
      <point x="283" y="1000" type="line"/>
      <point x="268" y="1000" type="line" smooth="yes"/>
      <point x="100" y="1000"/>
      <point x="100" y="1155" type="qcurve" smooth="yes"/>
      <point x="100" y="1248"/>
      <point x="209" y="1405" type="qcurve" smooth="yes"/>
      <point x="275" y="1500"/>
      <point x="369" y="1500" type="qcurve" smooth="yes"/>
      <point x="463" y="1500"/>
    </contour>
  </outline>
</glyph>
<glyph name="uni178C" format="2">
  <advance width="1450"/>
  <unicode hex="178C"/>
  <outline>
    <contour>
      <point x="1200" y="50" type="line" smooth="yes"/>
      <point x="1200" y="-100"/>
      <point x="1046" y="-100" type="qcurve" smooth="yes"/>
      <point x="942" y="-100"/>
      <point x="942" y="-28" type="qcurve"/>
      <point x="1012" y="4"/>
      <point x="1012" y="60" type="qcurve" smooth="yes"/>
      <point x="1012" y="266" type="line"/>
      <point x="953" y="266"/>
      <point x="743" y="102" type="qcurve" smooth="yes"/>
      <point x="616" y="0"/>
      <point x="527" y="0" type="qcurve" smooth="yes"/>
      <point x="250" y="0"/>
      <point x="250" y="250" type="qcurve" smooth="yes"/>
      <point x="250" y="550" type="line"/>
      <point x="726" y="795" type="line" smooth="yes"/>
      <point x="1012" y="943"/>
      <point x="1012" y="1050" type="qcurve" smooth="yes"/>
      <point x="1012" y="1177" type="line" smooth="yes"/>
      <point x="1012" y="1207"/>
      <point x="950" y="1308"/>
      <point x="921" y="1308" type="qcurve" smooth="yes"/>
      <point x="862" y="1308"/>
      <point x="725" y="1177" type="qcurve"/>
      <point x="588" y="1308"/>
      <point x="529" y="1308" type="qcurve" smooth="yes"/>
      <point x="500" y="1308"/>
      <point x="438" y="1207"/>
      <point x="438" y="1177" type="qcurve" smooth="yes"/>
      <point x="438" y="970" type="line" smooth="yes"/>
      <point x="438" y="950"/>
      <point x="462" y="950" type="qcurve" smooth="yes"/>
      <point x="486" y="950"/>
      <point x="486" y="1000" type="qcurve" smooth="yes"/>
      <point x="486" y="1025"/>
      <point x="444" y="1025" type="qcurve" smooth="yes"/>
      <point x="432" y="1025" type="line"/>
      <point x="432" y="1125" type="line"/>
      <point x="444" y="1125" type="line" smooth="yes"/>
      <point x="586" y="1125"/>
      <point x="586" y="1000" type="qcurve" smooth="yes"/>
      <point x="586" y="850"/>
      <point x="438" y="850" type="qcurve" smooth="yes"/>
      <point x="250" y="850"/>
      <point x="250" y="970" type="qcurve" smooth="yes"/>
      <point x="250" y="1177" type="line" smooth="yes"/>
      <point x="250" y="1303"/>
      <point x="456" y="1500"/>
      <point x="507" y="1500" type="qcurve" smooth="yes"/>
      <point x="569" y="1500"/>
      <point x="725" y="1343" type="qcurve"/>
      <point x="881" y="1500"/>
      <point x="943" y="1500" type="qcurve" smooth="yes"/>
      <point x="994" y="1500"/>
      <point x="1200" y="1303"/>
      <point x="1200" y="1177" type="qcurve" smooth="yes"/>
      <point x="1200" y="1050" type="line" smooth="yes"/>
      <point x="1200" y="878"/>
      <point x="819" y="681" type="qcurve" smooth="yes"/>
      <point x="438" y="485" type="line"/>
      <point x="438" y="250" type="line" smooth="yes"/>
      <point x="438" y="144"/>
      <point x="527" y="144" type="qcurve" smooth="yes"/>
      <point x="586" y="144"/>
      <point x="637" y="186" type="qcurve" smooth="yes"/>
      <point x="909" y="400"/>
      <point x="1012" y="400" type="qcurve"/>
      <point x="1012" y="583" type="line"/>
      <point x="1200" y="673" type="line"/>
    </contour>
  </outline>
</glyph>
<glyph name="uni178D" format="2">
  <advance width="2162"/>
  <unicode hex="178D"/>
  <outline>
    <contour>
      <point x="530" y="95" type="qcurve" smooth="yes"/>
      <point x="438" y="0" type="line"/>
      <point x="250" y="0" type="line"/>
      <point x="250" y="1055" type="line"/>
      <point x="170" y="1118"/>
      <point x="170" y="1187" type="qcurve" smooth="yes"/>
      <point x="170" y="1242" type="line" smooth="yes"/>
      <point x="170" y="1294"/>
      <point x="422" y="1500"/>
      <point x="454" y="1500" type="qcurve" smooth="yes"/>
      <point x="491" y="1500"/>
      <point x="660" y="1323"/>
      <point x="690" y="1323" type="qcurve" smooth="yes"/>
      <point x="715" y="1323"/>
      <point x="872" y="1500"/>
      <point x="908" y="1500" type="qcurve" smooth="yes"/>
      <point x="943" y="1500"/>
      <point x="1200" y="1303"/>
      <point x="1200" y="1177" type="qcurve" smooth="yes"/>
      <point x="1200" y="0" type="line"/>
      <point x="1032" y="0" type="line"/>
      <point x="852" y="80"/>
      <point x="852" y="306" type="qcurve" smooth="yes"/>
      <point x="852" y="500"/>
      <point x="1157" y="500" type="qcurve" smooth="yes"/>
      <point x="1482" y="500"/>
      <point x="1482" y="217" type="qcurve" smooth="yes"/>
      <point x="1482" y="130"/>
      <point x="1600" y="130" type="qcurve" smooth="yes"/>
      <point x="1699" y="130"/>
      <point x="1699" y="217" type="qcurve" smooth="yes"/>
      <point x="1699" y="993" type="line"/>
      <point x="1612" y="1046" type="line" smooth="yes"/>
      <point x="1524" y="1099"/>
      <point x="1524" y="1131" type="qcurve" smooth="yes"/>
      <point x="1524" y="1162"/>
      <point x="1580" y="1247" type="qcurve" smooth="yes"/>
      <point x="1748" y="1500" type="line"/>
      <point x="1910" y="1406" type="line" smooth="yes"/>
      <point x="1964" y="1375"/>
      <point x="1983" y="1375" type="qcurve" smooth="yes"/>
      <point x="2001" y="1375"/>
      <point x="2037" y="1385" type="qcurve"/>
      <point x="2037" y="1350"/>
      <point x="1949" y="1212"/>
      <point x="1909" y="1212" type="qcurve" smooth="yes"/>
      <point x="1868" y="1212"/>
      <point x="1806" y="1249" type="qcurve" smooth="yes"/>
      <point x="1738" y="1288" type="line"/>
      <point x="1695" y="1213" type="line"/>
      <point x="1887" y="1100" type="line"/>
      <point x="1887" y="217" type="line" smooth="yes"/>
      <point x="1887" y="0"/>
      <point x="1600" y="0" type="qcurve" smooth="yes"/>
      <point x="1332" y="0"/>
      <point x="1332" y="217" type="qcurve" smooth="yes"/>
      <point x="1332" y="380"/>
      <point x="1157" y="380" type="qcurve" smooth="yes"/>
      <point x="962" y="380"/>
      <point x="962" y="306" type="qcurve" smooth="yes"/>
      <point x="965" y="217"/>
      <point x="1012" y="170" type="qcurve"/>
      <point x="1012" y="1177" type="line" smooth="yes"/>
      <point x="1012" y="1207"/>
      <point x="893" y="1308"/>
      <point x="860" y="1308" type="qcurve" smooth="yes"/>
      <point x="827" y="1308"/>
      <point x="710" y="1147"/>
      <point x="660" y="1147" type="qcurve" smooth="yes"/>
      <point x="588" y="1147"/>
      <point x="435" y="1308"/>
      <point x="397" y="1308" type="qcurve" smooth="yes"/>
      <point x="374" y="1308"/>
      <point x="320" y="1264"/>
      <point x="320" y="1218" type="qcurve" smooth="yes"/>
      <point x="320" y="1188"/>
      <point x="438" y="1110" type="qcurve"/>
      <point x="438" y="214" type="line"/>
      <point x="538" y="304"/>
      <point x="538" y="395" type="qcurve" smooth="yes"/>
      <point x="538" y="461"/>
      <point x="445" y="461" type="qcurve" smooth="yes"/>
      <point x="430" y="461" type="line"/>
      <point x="430" y="600" type="line"/>
      <point x="445" y="600" type="line" smooth="yes"/>
      <point x="683" y="600"/>
      <point x="683" y="405" type="qcurve" smooth="yes"/>
      <point x="683" y="252"/>
    </contour>
  </outline>
</glyph>
<glyph name="uni1791" format="2">
  <advance width="1450"/>
  <unicode hex="1791"/>
  <outline>
    <contour>
      <point x="392" y="450" type="line"/>
      <point x="570" y="450" type="line"/>
      <point x="570" y="250" type="line" smooth="yes"/>
      <point x="570" y="144"/>
      <point x="700" y="144" type="qcurve" smooth="yes"/>
      <point x="820" y="144"/>
      <point x="820" y="301" type="qcurve" smooth="yes"/>
      <point x="820" y="671" type="line" smooth="yes"/>
      <point x="820" y="831"/>
      <point x="1042" y="831" type="qcurve" smooth="yes"/>
      <point x="1200" y="831"/>
      <point x="1200" y="692" type="qcurve" smooth="yes"/>
      <point x="1200" y="541"/>
      <point x="1026" y="541" type="qcurve" smooth="yes"/>
      <point x="726" y="541" type="line" smooth="yes"/>
      <point x="250" y="541"/>
      <point x="250" y="945" type="qcurve" smooth="yes"/>
      <point x="250" y="1200" type="line" smooth="yes"/>
      <point x="250" y="1300"/>
      <point x="500" y="1500"/>
      <point x="700" y="1500" type="qcurve" smooth="yes"/>
      <point x="750" y="1500" type="line" smooth="yes"/>
      <point x="950" y="1500"/>
      <point x="1200" y="1300"/>
      <point x="1200" y="1200" type="qcurve" smooth="yes"/>
      <point x="1200" y="1060" type="line" smooth="yes"/>
      <point x="1200" y="940"/>
      <point x="1012" y="940" type="qcurve" smooth="yes"/>
      <point x="864" y="940"/>
      <point x="864" y="1090" type="qcurve" smooth="yes"/>
      <point x="864" y="1215"/>
      <point x="1006" y="1215" type="qcurve" smooth="yes"/>
      <point x="1018" y="1215" type="line"/>
      <point x="1018" y="1115" type="line"/>
      <point x="1006" y="1115" type="line" smooth="yes"/>
      <point x="964" y="1115"/>
      <point x="964" y="1090" type="qcurve" smooth="yes"/>
      <point x="964" y="1040"/>
      <point x="988" y="1040" type="qcurve" smooth="yes"/>
      <point x="1012" y="1040"/>
      <point x="1012" y="1060" type="qcurve" smooth="yes"/>
      <point x="1012" y="1200" type="line" smooth="yes"/>
      <point x="1012" y="1258"/>
      <point x="856" y="1356"/>
      <point x="750" y="1356" type="qcurve" smooth="yes"/>
      <point x="700" y="1356" type="line" smooth="yes"/>
      <point x="594" y="1356"/>
      <point x="438" y="1258"/>
      <point x="438" y="1200" type="qcurve" smooth="yes"/>
      <point x="438" y="945" type="line" smooth="yes"/>
      <point x="438" y="671"/>
      <point x="726" y="671" type="qcurve" smooth="yes"/>
      <point x="1026" y="673" type="line" smooth="yes"/>
      <point x="1070" y="674"/>
      <point x="1070" y="691" type="qcurve" smooth="yes"/>
      <point x="1070" y="710"/>
      <point x="1042" y="710" type="qcurve" smooth="yes"/>
      <point x="1008" y="710"/>
      <point x="1008" y="671" type="qcurve" smooth="yes"/>
      <point x="1008" y="302" type="line" smooth="yes"/>
      <point x="1008" y="0"/>
      <point x="700" y="0" type="qcurve" smooth="yes"/>
      <point x="392" y="0"/>
      <point x="392" y="250" type="qcurve" smooth="yes"/>
    </contour>
  </outline>
</glyph>
<glyph name="uni1792" format="2">
  <advance width="1450"/>
  <unicode hex="1792"/>
  <outline>
    <contour>
      <point x="1012" y="186" type="line"/>
      <point x="1012" y="856" type="line"/>
      <point x="997" y="856"/>
      <point x="972" y="806"/>
      <point x="972" y="765" type="qcurve" smooth="yes"/>
      <point x="972" y="740"/>
      <point x="1012" y="740" type="qcurve" smooth="yes"/>
      <point x="1022" y="740" type="line"/>
      <point x="1022" y="600" type="line"/>
      <point x="1012" y="600" type="line" smooth="yes"/>
      <point x="862" y="600"/>
      <point x="862" y="765" type="qcurve" smooth="yes"/>
      <point x="862" y="832"/>
      <point x="982" y="1000"/>
      <point x="1076" y="1000" type="qcurve" smooth="yes"/>
      <point x="1200" y="1000"/>
      <point x="1200" y="900" type="qcurve" smooth="yes"/>
      <point x="1200" y="0" type="line"/>
      <point x="1012" y="0" type="line"/>
      <point x="725" y="236" type="line"/>
      <point x="438" y="0" type="line"/>
      <point x="250" y="0" type="line"/>
      <point x="250" y="995" type="line"/>
      <point x="150" y="1068"/>
      <point x="150" y="1147" type="qcurve" smooth="yes"/>
      <point x="150" y="1202" type="line" smooth="yes"/>
      <point x="150" y="1254"/>
      <point x="442" y="1500"/>
      <point x="474" y="1500" type="qcurve" smooth="yes"/>
      <point x="511" y="1500"/>
      <point x="700" y="1303"/>
      <point x="730" y="1303" type="qcurve" smooth="yes"/>
      <point x="755" y="1303"/>
      <point x="932" y="1500"/>
      <point x="968" y="1500" type="qcurve" smooth="yes"/>
      <point x="1003" y="1500"/>
      <point x="1208" y="1283"/>
      <point x="1264" y="1283" type="qcurve" smooth="yes"/>
      <point x="1284" y="1283"/>
      <point x="1300" y="1294" type="qcurve"/>
      <point x="1230" y="1127"/>
      <point x="1165" y="1127" type="qcurve" smooth="yes"/>
      <point x="1097" y="1127"/>
      <point x="943" y="1288"/>
      <point x="910" y="1288" type="qcurve" smooth="yes"/>
      <point x="867" y="1288"/>
      <point x="750" y="1127"/>
      <point x="700" y="1127" type="qcurve" smooth="yes"/>
      <point x="628" y="1127"/>
      <point x="455" y="1288"/>
      <point x="417" y="1288" type="qcurve" smooth="yes"/>
      <point x="394" y="1288"/>
      <point x="300" y="1224"/>
      <point x="300" y="1178" type="qcurve" smooth="yes"/>
      <point x="300" y="1148"/>
      <point x="438" y="1050" type="qcurve"/>
      <point x="438" y="186" type="line"/>
      <point x="725" y="423" type="line"/>
    </contour>
  </outline>
</glyph>
<glyph name="uni1793" format="2">
  <advance width="1450"/>
  <unicode hex="1793"/>
  <outline>
    <contour>
      <point x="438" y="583" type="line"/>
      <point x="438" y="400" type="line"/>
      <point x="541" y="400"/>
      <point x="813" y="186" type="qcurve" smooth="yes"/>
      <point x="864" y="144"/>
      <point x="923" y="144" type="qcurve" smooth="yes"/>
      <point x="1012" y="144"/>
      <point x="1012" y="250" type="qcurve" smooth="yes"/>
      <point x="1012" y="485" type="line"/>
      <point x="631" y="681" type="line" smooth="yes"/>
      <point x="250" y="878"/>
      <point x="250" y="1050" type="qcurve" smooth="yes"/>
      <point x="250" y="1200" type="line" smooth="yes"/>
      <point x="250" y="1300"/>
      <point x="500" y="1500"/>
      <point x="700" y="1500" type="qcurve" smooth="yes"/>
      <point x="750" y="1500" type="line" smooth="yes"/>
      <point x="950" y="1500"/>
      <point x="1200" y="1300"/>
      <point x="1200" y="1200" type="qcurve" smooth="yes"/>
      <point x="1200" y="970" type="line" smooth="yes"/>
      <point x="1200" y="850"/>
      <point x="1012" y="850" type="qcurve" smooth="yes"/>
      <point x="864" y="850"/>
      <point x="864" y="1000" type="qcurve" smooth="yes"/>
      <point x="864" y="1125"/>
      <point x="1006" y="1125" type="qcurve" smooth="yes"/>
      <point x="1018" y="1125" type="line"/>
      <point x="1018" y="1025" type="line"/>
      <point x="1006" y="1025" type="line" smooth="yes"/>
      <point x="964" y="1025"/>
      <point x="964" y="1000" type="qcurve" smooth="yes"/>
      <point x="964" y="950"/>
      <point x="988" y="950" type="qcurve" smooth="yes"/>
      <point x="1012" y="950"/>
      <point x="1012" y="970" type="qcurve" smooth="yes"/>
      <point x="1012" y="1200" type="line" smooth="yes"/>
      <point x="1012" y="1258"/>
      <point x="856" y="1356"/>
      <point x="750" y="1356" type="qcurve" smooth="yes"/>
      <point x="700" y="1356" type="line" smooth="yes"/>
      <point x="594" y="1356"/>
      <point x="438" y="1258"/>
      <point x="438" y="1200" type="qcurve" smooth="yes"/>
      <point x="438" y="1050" type="line" smooth="yes"/>
      <point x="438" y="943"/>
      <point x="724" y="795" type="qcurve" smooth="yes"/>
      <point x="1200" y="550" type="line"/>
      <point x="1200" y="250" type="line" smooth="yes"/>
      <point x="1200" y="0"/>
      <point x="923" y="0" type="qcurve" smooth="yes"/>
      <point x="834" y="0"/>
      <point x="707" y="102" type="qcurve" smooth="yes"/>
      <point x="497" y="266"/>
      <point x="438" y="266" type="qcurve"/>
      <point x="438" y="0" type="line"/>
      <point x="250" y="0" type="line"/>
      <point x="250" y="673" type="line"/>
    </contour>
  </outline>
</glyph>
<glyph name="uni1794" format="2">
  <advance width="1475"/>
  <unicode hex="1794"/>
  <outline>
    <contour>
      <point x="1225" y="300" type="line" smooth="yes"/>
      <point x="1225" y="200"/>
      <point x="975" y="0"/>
      <point x="775" y="0" type="qcurve" smooth="yes"/>
      <point x="725" y="0" type="line" smooth="yes"/>
      <point x="525" y="0"/>
      <point x="275" y="200"/>
      <point x="275" y="300" type="qcurve" smooth="yes"/>
      <point x="275" y="993" type="line"/>
      <point x="188" y="1046" type="line" smooth="yes"/>
      <point x="100" y="1099"/>
      <point x="100" y="1131" type="qcurve" smooth="yes"/>
      <point x="100" y="1162"/>
      <point x="156" y="1247" type="qcurve" smooth="yes"/>
      <point x="324" y="1500" type="line"/>
      <point x="486" y="1406" type="line" smooth="yes"/>
      <point x="540" y="1375"/>
      <point x="559" y="1375" type="qcurve" smooth="yes"/>
      <point x="577" y="1375"/>
      <point x="613" y="1385" type="qcurve"/>
      <point x="613" y="1350"/>
      <point x="525" y="1212"/>
      <point x="485" y="1212" type="qcurve" smooth="yes"/>
      <point x="444" y="1212"/>
      <point x="382" y="1249" type="qcurve" smooth="yes"/>
      <point x="314" y="1288" type="line"/>
      <point x="271" y="1213" type="line"/>
      <point x="463" y="1100" type="line"/>
      <point x="463" y="300" type="line" smooth="yes"/>
      <point x="463" y="242"/>
      <point x="619" y="144"/>
      <point x="725" y="144" type="qcurve" smooth="yes"/>
      <point x="775" y="144" type="line" smooth="yes"/>
      <point x="881" y="144"/>
      <point x="1037" y="242"/>
      <point x="1037" y="300" type="qcurve" smooth="yes"/>
      <point x="1037" y="993" type="line"/>
      <point x="950" y="1046" type="line" smooth="yes"/>
      <point x="862" y="1099"/>
      <point x="862" y="1131" type="qcurve" smooth="yes"/>
      <point x="862" y="1162"/>
      <point x="918" y="1247" type="qcurve" smooth="yes"/>
      <point x="1086" y="1500" type="line"/>
      <point x="1248" y="1406" type="line" smooth="yes"/>
      <point x="1302" y="1375"/>
      <point x="1321" y="1375" type="qcurve" smooth="yes"/>
      <point x="1339" y="1375"/>
      <point x="1375" y="1385" type="qcurve"/>
      <point x="1375" y="1350"/>
      <point x="1287" y="1212"/>
      <point x="1247" y="1212" type="qcurve" smooth="yes"/>
      <point x="1206" y="1212"/>
      <point x="1144" y="1249" type="qcurve" smooth="yes"/>
      <point x="1076" y="1288" type="line"/>
      <point x="1033" y="1213" type="line"/>
      <point x="1225" y="1100" type="line"/>
    </contour>
  </outline>
</glyph>
<glyph name="uni1795" format="2">
  <advance width="1450"/>
  <unicode hex="1795"/>
  <outline>
    <contour>
      <point x="725" y="423" type="line"/>
      <point x="1012" y="186" type="line"/>
      <point x="1012" y="886" type="line"/>
      <point x="997" y="886"/>
      <point x="972" y="836"/>
      <point x="972" y="795" type="qcurve" smooth="yes"/>
      <point x="972" y="770"/>
      <point x="1012" y="770" type="qcurve" smooth="yes"/>
      <point x="1022" y="770" type="line"/>
      <point x="1022" y="630" type="line"/>
      <point x="1012" y="630" type="line" smooth="yes"/>
      <point x="862" y="630"/>
      <point x="862" y="795" type="qcurve" smooth="yes"/>
      <point x="862" y="862"/>
      <point x="982" y="1030"/>
      <point x="1076" y="1030" type="qcurve" smooth="yes"/>
      <point x="1200" y="1030"/>
      <point x="1200" y="930" type="qcurve" smooth="yes"/>
      <point x="1200" y="0" type="line"/>
      <point x="1012" y="0" type="line"/>
      <point x="725" y="236" type="line"/>
      <point x="438" y="0" type="line"/>
      <point x="250" y="0" type="line"/>
      <point x="250" y="995" type="line"/>
      <point x="150" y="1068"/>
      <point x="150" y="1147" type="qcurve" smooth="yes"/>
      <point x="150" y="1202" type="line" smooth="yes"/>
      <point x="150" y="1254"/>
      <point x="442" y="1500"/>
      <point x="474" y="1500" type="qcurve" smooth="yes"/>
      <point x="511" y="1500"/>
      <point x="770" y="1280"/>
      <point x="890" y="1280" type="qcurve" smooth="yes"/>
      <point x="1066" y="1280"/>
      <point x="1066" y="1420" type="qcurve" smooth="yes"/>
      <point x="1066" y="1522"/>
      <point x="920" y="1522" type="qcurve" smooth="yes"/>
      <point x="820" y="1522"/>
      <point x="820" y="1611" type="qcurve" smooth="yes"/>
      <point x="820" y="1700"/>
      <point x="920" y="1700" type="qcurve" smooth="yes"/>
      <point x="1200" y="1700"/>
      <point x="1200" y="1420" type="qcurve" smooth="yes"/>
      <point x="1200" y="1126"/>
      <point x="890" y="1126" type="qcurve" smooth="yes"/>
      <point x="678" y="1127"/>
      <point x="455" y="1288"/>
      <point x="417" y="1288" type="qcurve" smooth="yes"/>
      <point x="394" y="1288"/>
      <point x="300" y="1224"/>
      <point x="300" y="1178" type="qcurve" smooth="yes"/>
      <point x="300" y="1148"/>
      <point x="438" y="1050" type="qcurve"/>
      <point x="438" y="186" type="line"/>
    </contour>
  </outline>
</glyph>
<glyph name="uni1797" format="2">
  <advance width="1475"/>
  <unicode hex="1797"/>
  <outline>
    <contour>
      <point x="348" y="987" type="line"/>
      <point x="190" y="1048"/>
      <point x="190" y="1147" type="qcurve" smooth="yes"/>
      <point x="190" y="1202" type="line" smooth="yes"/>
      <point x="190" y="1254"/>
      <point x="452" y="1500"/>
      <point x="484" y="1500" type="qcurve" smooth="yes"/>
      <point x="521" y="1500"/>
      <point x="710" y="1303"/>
      <point x="740" y="1303" type="qcurve" smooth="yes"/>
      <point x="765" y="1303"/>
      <point x="942" y="1500"/>
      <point x="978" y="1500" type="qcurve" smooth="yes"/>
      <point x="1013" y="1500"/>
      <point x="1218" y="1283"/>
      <point x="1274" y="1283" type="qcurve" smooth="yes"/>
      <point x="1294" y="1283"/>
      <point x="1310" y="1294" type="qcurve"/>
      <point x="1240" y="1127"/>
      <point x="1175" y="1127" type="qcurve" smooth="yes"/>
      <point x="1107" y="1127"/>
      <point x="953" y="1288"/>
      <point x="920" y="1288" type="qcurve" smooth="yes"/>
      <point x="877" y="1288"/>
      <point x="760" y="1127"/>
      <point x="710" y="1127" type="qcurve" smooth="yes"/>
      <point x="638" y="1127"/>
      <point x="465" y="1288"/>
      <point x="427" y="1288" type="qcurve" smooth="yes"/>
      <point x="404" y="1288"/>
      <point x="340" y="1224"/>
      <point x="340" y="1178" type="qcurve" smooth="yes"/>
      <point x="340" y="1148"/>
      <point x="477" y="1078" type="qcurve"/>
    </contour>
    <contour>
      <point x="1022" y="0" type="line"/>
      <point x="1022" y="750" type="line" smooth="yes"/>
      <point x="1022" y="808"/>
      <point x="866" y="906"/>
      <point x="760" y="906" type="qcurve" smooth="yes"/>
      <point x="710" y="906" type="line" smooth="yes"/>
      <point x="604" y="906"/>
      <point x="448" y="808"/>
      <point x="448" y="750" type="qcurve" smooth="yes"/>
      <point x="448" y="0" type="line"/>
      <point x="260" y="0" type="line"/>
      <point x="194" y="95" type="line" smooth="yes"/>
      <point x="85" y="252"/>
      <point x="85" y="345" type="qcurve" smooth="yes"/>
      <point x="85" y="500"/>
      <point x="253" y="500" type="qcurve" smooth="yes"/>
      <point x="268" y="500" type="line"/>
      <point x="268" y="361" type="line"/>
      <point x="253" y="361" type="line" smooth="yes"/>
      <point x="210" y="361"/>
      <point x="210" y="315" type="qcurve"/>
      <point x="212" y="282"/>
      <point x="260" y="234" type="qcurve"/>
      <point x="260" y="750" type="line" smooth="yes"/>
      <point x="260" y="850"/>
      <point x="510" y="1050"/>
      <point x="710" y="1050" type="qcurve" smooth="yes"/>
      <point x="760" y="1050" type="line" smooth="yes"/>
      <point x="960" y="1050"/>
      <point x="1210" y="850"/>
      <point x="1210" y="750" type="qcurve" smooth="yes"/>
      <point x="1210" y="0" type="line"/>
    </contour>
  </outline>
</glyph>
<glyph name="uni1799" format="2">
  <advance width="2162"/>
  <unicode hex="1799"/>
  <outline>
    <contour>
      <point x="1887" y="300" type="line" smooth="yes"/>
      <point x="1887" y="200"/>
      <point x="1637" y="0"/>
      <point x="1422" y="0" type="qcurve" smooth="yes"/>
      <point x="1207" y="0"/>
      <point x="1007" y="200"/>
      <point x="1007" y="300" type="qcurve"/>
      <point x="1165" y="300" type="line"/>
      <point x="1165" y="242"/>
      <point x="1301" y="144"/>
      <point x="1422" y="144" type="qcurve" smooth="yes"/>
      <point x="1543" y="144"/>
      <point x="1699" y="242"/>
      <point x="1699" y="300" type="qcurve" smooth="yes"/>
      <point x="1699" y="993" type="line"/>
      <point x="1612" y="1046" type="line" smooth="yes"/>
      <point x="1524" y="1099"/>
      <point x="1524" y="1131" type="qcurve" smooth="yes"/>
      <point x="1524" y="1162"/>
      <point x="1580" y="1247" type="qcurve" smooth="yes"/>
      <point x="1748" y="1500" type="line"/>
      <point x="1910" y="1406" type="line" smooth="yes"/>
      <point x="1964" y="1375"/>
      <point x="1983" y="1375" type="qcurve" smooth="yes"/>
      <point x="2001" y="1375"/>
      <point x="2037" y="1385" type="qcurve"/>
      <point x="2037" y="1350"/>
      <point x="1949" y="1212"/>
      <point x="1909" y="1212" type="qcurve" smooth="yes"/>
      <point x="1868" y="1212"/>
      <point x="1806" y="1249" type="qcurve" smooth="yes"/>
      <point x="1738" y="1288" type="line"/>
      <point x="1695" y="1213" type="line"/>
      <point x="1887" y="1100" type="line"/>
    </contour>
    <contour>
      <point x="438" y="300" type="line" smooth="yes"/>
      <point x="438" y="242"/>
      <point x="594" y="144"/>
      <point x="715" y="144" type="qcurve" smooth="yes"/>
      <point x="836" y="144"/>
      <point x="992" y="242"/>
      <point x="992" y="300" type="qcurve" smooth="yes"/>
      <point x="992" y="993" type="line"/>
      <point x="905" y="1046" type="line" smooth="yes"/>
      <point x="817" y="1099"/>
      <point x="817" y="1131" type="qcurve" smooth="yes"/>
      <point x="817" y="1162"/>
      <point x="873" y="1247" type="qcurve" smooth="yes"/>
      <point x="1041" y="1500" type="line"/>
      <point x="1203" y="1406" type="line" smooth="yes"/>
      <point x="1257" y="1375"/>
      <point x="1276" y="1375" type="qcurve" smooth="yes"/>
      <point x="1294" y="1375"/>
      <point x="1330" y="1385" type="qcurve"/>
      <point x="1330" y="1350"/>
      <point x="1242" y="1212"/>
      <point x="1202" y="1212" type="qcurve" smooth="yes"/>
      <point x="1161" y="1212"/>
      <point x="1099" y="1249" type="qcurve" smooth="yes"/>
      <point x="1031" y="1288" type="line"/>
      <point x="988" y="1213" type="line"/>
      <point x="1180" y="1100" type="line"/>
      <point x="1180" y="300" type="line" smooth="yes"/>
      <point x="1180" y="200"/>
      <point x="930" y="0"/>
      <point x="715" y="0" type="qcurve" smooth="yes"/>
      <point x="500" y="0"/>
      <point x="250" y="200"/>
      <point x="250" y="300" type="qcurve" smooth="yes"/>
      <point x="250" y="1435" type="line" smooth="yes"/>
      <point x="250" y="1500"/>
      <point x="344" y="1500" type="qcurve" smooth="yes"/>
      <point x="438" y="1500"/>
      <point x="504" y="1405" type="qcurve" smooth="yes"/>
      <point x="613" y="1248"/>
      <point x="613" y="1155" type="qcurve" smooth="yes"/>
      <point x="613" y="1000"/>
      <point x="445" y="1000" type="qcurve" smooth="yes"/>
      <point x="430" y="1000" type="line"/>
      <point x="430" y="1139" type="line"/>
      <point x="445" y="1139" type="line" smooth="yes"/>
      <point x="488" y="1139"/>
      <point x="488" y="1185" type="qcurve" smooth="yes"/>
      <point x="488" y="1216"/>
      <point x="438" y="1266" type="qcurve"/>
    </contour>
  </outline>
</glyph>
<glyph name="uni179A" format="2">
  <advance width="713"/>
  <unicode hex="179A"/>
  <outline>
    <contour>
      <point x="445" y="0" type="line"/>
      <point x="257" y="0" type="line"/>
      <point x="191" y="95" type="line" smooth="yes"/>
      <point x="82" y="252"/>
      <point x="82" y="345" type="qcurve" smooth="yes"/>
      <point x="82" y="500"/>
      <point x="250" y="500" type="qcurve" smooth="yes"/>
      <point x="257" y="500" type="line"/>
      <point x="257" y="361" type="line"/>
      <point x="250" y="361" type="line" smooth="yes"/>
      <point x="207" y="361"/>
      <point x="207" y="315" type="qcurve" smooth="yes"/>
      <point x="207" y="284"/>
      <point x="257" y="214" type="qcurve"/>
      <point x="257" y="993" type="line"/>
      <point x="170" y="1046" type="line" smooth="yes"/>
      <point x="82" y="1099"/>
      <point x="82" y="1131" type="qcurve" smooth="yes"/>
      <point x="82" y="1162"/>
      <point x="138" y="1247" type="qcurve" smooth="yes"/>
      <point x="306" y="1500" type="line"/>
      <point x="468" y="1406" type="line" smooth="yes"/>
      <point x="522" y="1375"/>
      <point x="541" y="1375" type="qcurve" smooth="yes"/>
      <point x="559" y="1375"/>
      <point x="595" y="1385" type="qcurve"/>
      <point x="595" y="1350"/>
      <point x="507" y="1212"/>
      <point x="467" y="1212" type="qcurve" smooth="yes"/>
      <point x="426" y="1212"/>
      <point x="364" y="1249" type="qcurve" smooth="yes"/>
      <point x="296" y="1288" type="line"/>
      <point x="253" y="1213" type="line"/>
      <point x="445" y="1100" type="line"/>
    </contour>
  </outline>
</glyph>
<glyph name="uni179B" format="2">
  <advance width="2162"/>
  <unicode hex="179B"/>
  <outline>
    <contour>
      <point x="1912" y="300" type="line" smooth="yes"/>
      <point x="1912" y="200"/>
      <point x="1662" y="0"/>
      <point x="1462" y="0" type="qcurve" smooth="yes"/>
      <point x="1262" y="0"/>
      <point x="1012" y="200"/>
      <point x="1012" y="300" type="qcurve" smooth="yes"/>
      <point x="1012" y="1050" type="line" smooth="yes"/>
      <point x="1012" y="1126"/>
      <point x="729" y="1322"/>
      <point x="640" y="1322" type="qcurve" smooth="yes"/>
      <point x="536" y="1322"/>
      <point x="468" y="1271" type="qcurve" smooth="yes"/>
      <point x="339" y="1173" type="line"/>
      <point x="377" y="1148" type="line" smooth="yes"/>
      <point x="438" y="1110"/>
      <point x="438" y="1050" type="qcurve" smooth="yes"/>
      <point x="438" y="184" type="line"/>
      <point x="548" y="284"/>
      <point x="548" y="400" type="qcurve" smooth="yes"/>
      <point x="548" y="461"/>
      <point x="445" y="461" type="qcurve" smooth="yes"/>
      <point x="438" y="461" type="line"/>
      <point x="438" y="600" type="line"/>
      <point x="445" y="600" type="line" smooth="yes"/>
      <point x="693" y="600"/>
      <point x="693" y="400" type="qcurve" smooth="yes"/>
      <point x="693" y="252"/>
      <point x="566" y="126" type="qcurve" smooth="yes"/>
      <point x="438" y="0" type="line"/>
      <point x="250" y="0" type="line"/>
      <point x="250" y="1008" type="line"/>
      <point x="188" y="1046" type="line" smooth="yes"/>
      <point x="140" y="1075"/>
      <point x="140" y="1140" type="qcurve" smooth="yes"/>
      <point x="140" y="1205"/>
      <point x="240" y="1279" type="qcurve" smooth="yes"/>
      <point x="377" y="1381" type="line" smooth="yes"/>
      <point x="538" y="1500"/>
      <point x="640" y="1500" type="qcurve" smooth="yes"/>
      <point x="798" y="1500"/>
      <point x="1200" y="1225"/>
      <point x="1200" y="1050" type="qcurve" smooth="yes"/>
      <point x="1200" y="300" type="line" smooth="yes"/>
      <point x="1200" y="242"/>
      <point x="1356" y="144"/>
      <point x="1462" y="144" type="qcurve" smooth="yes"/>
      <point x="1568" y="144"/>
      <point x="1724" y="242"/>
      <point x="1724" y="300" type="qcurve" smooth="yes"/>
      <point x="1724" y="993" type="line"/>
      <point x="1637" y="1046" type="line" smooth="yes"/>
      <point x="1549" y="1099"/>
      <point x="1549" y="1131" type="qcurve" smooth="yes"/>
      <point x="1549" y="1162"/>
      <point x="1605" y="1247" type="qcurve" smooth="yes"/>
      <point x="1773" y="1500" type="line"/>
      <point x="1935" y="1406" type="line" smooth="yes"/>
      <point x="1989" y="1375"/>
      <point x="2008" y="1375" type="qcurve" smooth="yes"/>
      <point x="2026" y="1375"/>
      <point x="2062" y="1385" type="qcurve"/>
      <point x="2062" y="1350"/>
      <point x="1974" y="1212"/>
      <point x="1934" y="1212" type="qcurve" smooth="yes"/>
      <point x="1893" y="1212"/>
      <point x="1831" y="1249" type="qcurve" smooth="yes"/>
      <point x="1763" y="1288" type="line"/>
      <point x="1720" y="1213" type="line"/>
      <point x="1912" y="1100" type="line"/>
    </contour>
  </outline>
</glyph>
<glyph name="uni179C" format="2">
  <advance width="713"/>
  <unicode hex="179C"/>
  <outline>
    <contour>
      <point x="265" y="361" type="line"/>
      <point x="250" y="361" type="line" smooth="yes"/>
      <point x="207" y="361"/>
      <point x="207" y="315" type="qcurve" smooth="yes"/>
      <point x="207" y="284"/>
      <point x="257" y="214" type="qcurve"/>
      <point x="257" y="993" type="line"/>
      <point x="170" y="1046" type="line" smooth="yes"/>
      <point x="82" y="1099"/>
      <point x="82" y="1131" type="qcurve" smooth="yes"/>
      <point x="82" y="1162"/>
      <point x="130" y="1247" type="qcurve" smooth="yes"/>
      <point x="274" y="1500" type="line"/>
      <point x="416" y="1388"/>
      <point x="443" y="1388" type="qcurve" smooth="yes"/>
      <point x="470" y="1388"/>
      <point x="470" y="1440" type="qcurve" smooth="yes"/>
      <point x="470" y="1532"/>
      <point x="293" y="1562"/>
      <point x="293" y="1631" type="qcurve" smooth="yes"/>
      <point x="293" y="1700"/>
      <point x="376" y="1700" type="qcurve" smooth="yes"/>
      <point x="608" y="1700"/>
      <point x="608" y="1440" type="qcurve" smooth="yes"/>
      <point x="608" y="1206"/>
      <point x="463" y="1206" type="qcurve" smooth="yes"/>
      <point x="418" y="1206"/>
      <point x="284" y="1283" type="qcurve"/>
      <point x="253" y="1213" type="line"/>
      <point x="445" y="1100" type="line"/>
      <point x="445" y="0" type="line"/>
      <point x="257" y="0" type="line"/>
      <point x="191" y="95" type="line" smooth="yes"/>
      <point x="82" y="252"/>
      <point x="82" y="345" type="qcurve" smooth="yes"/>
      <point x="82" y="500"/>
      <point x="250" y="500" type="qcurve" smooth="yes"/>
      <point x="265" y="500" type="line"/>
    </contour>
  </outline>
</glyph>
<glyph name="uni179F" format="2">
  <advance width="2162"/>
  <unicode hex="179F"/>
  <outline>
    <contour>
      <point x="1912" y="300" type="line" smooth="yes"/>
      <point x="1912" y="200"/>
      <point x="1662" y="0"/>
      <point x="1462" y="0" type="qcurve" smooth="yes"/>
      <point x="1262" y="0"/>
      <point x="1012" y="200"/>
      <point x="1012" y="300" type="qcurve" smooth="yes"/>
      <point x="1012" y="750" type="line" smooth="yes"/>
      <point x="1012" y="808"/>
      <point x="856" y="906"/>
      <point x="750" y="906" type="qcurve" smooth="yes"/>
      <point x="700" y="906" type="line" smooth="yes"/>
      <point x="594" y="906"/>
      <point x="438" y="808"/>
      <point x="438" y="750" type="qcurve" smooth="yes"/>
      <point x="438" y="234" type="line"/>
      <point x="488" y="284"/>
      <point x="488" y="315" type="qcurve" smooth="yes"/>
      <point x="488" y="361"/>
      <point x="445" y="361" type="qcurve" smooth="yes"/>
      <point x="430" y="361" type="line"/>
      <point x="430" y="500" type="line"/>
      <point x="445" y="500" type="line" smooth="yes"/>
      <point x="613" y="500"/>
      <point x="613" y="345" type="qcurve" smooth="yes"/>
      <point x="613" y="252"/>
      <point x="504" y="95" type="qcurve" smooth="yes"/>
      <point x="438" y="0" type="line"/>
      <point x="250" y="0" type="line"/>
      <point x="250" y="750" type="line" smooth="yes"/>
      <point x="250" y="850"/>
      <point x="500" y="1050"/>
      <point x="700" y="1050" type="qcurve" smooth="yes"/>
      <point x="750" y="1050" type="line" smooth="yes"/>
      <point x="950" y="1050"/>
      <point x="1200" y="850"/>
      <point x="1200" y="750" type="qcurve" smooth="yes"/>
      <point x="1200" y="300" type="line" smooth="yes"/>
      <point x="1200" y="242"/>
      <point x="1356" y="144"/>
      <point x="1462" y="144" type="qcurve" smooth="yes"/>
      <point x="1568" y="144"/>
      <point x="1724" y="242"/>
      <point x="1724" y="300" type="qcurve" smooth="yes"/>
      <point x="1724" y="993" type="line"/>
      <point x="1637" y="1046" type="line" smooth="yes"/>
      <point x="1549" y="1099"/>
      <point x="1549" y="1131" type="qcurve" smooth="yes"/>
      <point x="1549" y="1162"/>
      <point x="1605" y="1247" type="qcurve" smooth="yes"/>
      <point x="1773" y="1500" type="line"/>
      <point x="1935" y="1406" type="line" smooth="yes"/>
      <point x="1989" y="1375"/>
      <point x="2008" y="1375" type="qcurve" smooth="yes"/>
      <point x="2026" y="1375"/>
      <point x="2062" y="1385" type="qcurve"/>
      <point x="2062" y="1350"/>
      <point x="1974" y="1212"/>
      <point x="1934" y="1212" type="qcurve" smooth="yes"/>
      <point x="1893" y="1212"/>
      <point x="1831" y="1249" type="qcurve" smooth="yes"/>
      <point x="1763" y="1288" type="line"/>
      <point x="1720" y="1213" type="line"/>
      <point x="1912" y="1100" type="line"/>
    </contour>
    <contour>
      <point x="507" y="973" type="line"/>
      <point x="387" y="1046" type="line" smooth="yes"/>
      <point x="299" y="1099"/>
      <point x="299" y="1131" type="qcurve" smooth="yes"/>
      <point x="299" y="1162"/>
      <point x="355" y="1247" type="qcurve" smooth="yes"/>
      <point x="523" y="1500" type="line"/>
      <point x="685" y="1406" type="line" smooth="yes"/>
      <point x="739" y="1375"/>
      <point x="788" y="1375" type="qcurve" smooth="yes"/>
      <point x="836" y="1375"/>
      <point x="872" y="1385" type="qcurve"/>
      <point x="872" y="1350"/>
      <point x="764" y="1212"/>
      <point x="704" y="1212" type="qcurve" smooth="yes"/>
      <point x="643" y="1212"/>
      <point x="581" y="1249" type="qcurve" smooth="yes"/>
      <point x="513" y="1288" type="line"/>
      <point x="470" y="1213" type="line"/>
      <point x="813" y="1010" type="line"/>
    </contour>
  </outline>
</glyph>
<glyph name="uni17A3" format="2">
  <advance width="1475"/>
  <unicode hex="17A3"/>
  <outline>
    <contour>
      <point x="265" y="361" type="line"/>
      <point x="250" y="361" type="line" smooth="yes"/>
      <point x="207" y="361"/>
      <point x="207" y="315" type="qcurve" smooth="yes"/>
      <point x="207" y="284"/>
      <point x="257" y="214" type="qcurve"/>
      <point x="257" y="993" type="line"/>
      <point x="170" y="1046" type="line" smooth="yes"/>
      <point x="82" y="1099"/>
      <point x="82" y="1131" type="qcurve" smooth="yes"/>
      <point x="82" y="1162"/>
      <point x="138" y="1247" type="qcurve" smooth="yes"/>
      <point x="306" y="1500" type="line"/>
      <point x="468" y="1406" type="line" smooth="yes"/>
      <point x="522" y="1375"/>
      <point x="541" y="1375" type="qcurve" smooth="yes"/>
      <point x="559" y="1375"/>
      <point x="595" y="1385" type="qcurve"/>
      <point x="595" y="1350"/>
      <point x="507" y="1212"/>
      <point x="467" y="1212" type="qcurve" smooth="yes"/>
      <point x="426" y="1212"/>
      <point x="364" y="1249" type="qcurve" smooth="yes"/>
      <point x="296" y="1288" type="line"/>
      <point x="253" y="1213" type="line"/>
      <point x="445" y="1100" type="line"/>
      <point x="445" y="0" type="line"/>
      <point x="257" y="0" type="line"/>
      <point x="191" y="95" type="line" smooth="yes"/>
      <point x="82" y="252"/>
      <point x="82" y="345" type="qcurve" smooth="yes"/>
      <point x="82" y="500"/>
      <point x="250" y="500" type="qcurve" smooth="yes"/>
      <point x="265" y="500" type="line"/>
    </contour>
    <contour>
      <point x="1037" y="993" type="line"/>
      <point x="950" y="1046" type="line" smooth="yes"/>
      <point x="862" y="1099"/>
      <point x="862" y="1131" type="qcurve" smooth="yes"/>
      <point x="862" y="1162"/>
      <point x="918" y="1247" type="qcurve" smooth="yes"/>
      <point x="1086" y="1500" type="line"/>
      <point x="1248" y="1406" type="line" smooth="yes"/>
      <point x="1302" y="1375"/>
      <point x="1321" y="1375" type="qcurve" smooth="yes"/>
      <point x="1339" y="1375"/>
      <point x="1375" y="1385" type="qcurve"/>
      <point x="1375" y="1350"/>
      <point x="1287" y="1212"/>
      <point x="1247" y="1212" type="qcurve" smooth="yes"/>
      <point x="1206" y="1212"/>
      <point x="1144" y="1249" type="qcurve" smooth="yes"/>
      <point x="1076" y="1288" type="line"/>
      <point x="1033" y="1213" type="line"/>
      <point x="1225" y="1100" type="line"/>
      <point x="1225" y="0" type="line"/>
      <point x="1037" y="0" type="line"/>
      <point x="971" y="95" type="line" smooth="yes"/>
      <point x="862" y="252"/>
      <point x="862" y="345" type="qcurve" smooth="yes"/>
      <point x="862" y="500"/>
      <point x="1030" y="500" type="qcurve" smooth="yes"/>
      <point x="1045" y="500" type="line"/>
      <point x="1045" y="361" type="line"/>
      <point x="1030" y="361" type="line" smooth="yes"/>
      <point x="987" y="361"/>
      <point x="987" y="315" type="qcurve" smooth="yes"/>
      <point x="987" y="284"/>
      <point x="1037" y="214" type="qcurve"/>
    </contour>
    <contour>
      <point x="433" y="628" type="line"/>
      <point x="433" y="772" type="line"/>
      <point x="1047" y="772" type="line"/>
      <point x="1047" y="628" type="line"/>
    </contour>
  </outline>
</glyph>
<glyph name="uni17A5" format="2">
  <advance width="1450"/>
  <unicode hex="17A5"/>
  <outline>
    <contour>
      <point x="1200" y="0" type="line"/>
      <point x="1012" y="0" type="line"/>
      <point x="1012" y="750" type="line" smooth="yes"/>
      <point x="1012" y="808"/>
      <point x="856" y="906"/>
      <point x="750" y="906" type="qcurve" smooth="yes"/>
      <point x="700" y="906" type="line" smooth="yes"/>
      <point x="594" y="906"/>
      <point x="438" y="808"/>
      <point x="438" y="750" type="qcurve" smooth="yes"/>
      <point x="438" y="234" type="line"/>
      <point x="488" y="284"/>
      <point x="488" y="315" type="qcurve" smooth="yes"/>
      <point x="488" y="361"/>
      <point x="445" y="361" type="qcurve" smooth="yes"/>
      <point x="430" y="361" type="line"/>
      <point x="430" y="500" type="line"/>
      <point x="445" y="500" type="line" smooth="yes"/>
      <point x="613" y="500"/>
      <point x="613" y="345" type="qcurve" smooth="yes"/>
      <point x="613" y="252"/>
      <point x="504" y="95" type="qcurve" smooth="yes"/>
      <point x="438" y="0" type="line"/>
      <point x="250" y="0" type="line"/>
      <point x="250" y="750" type="line" smooth="yes"/>
      <point x="250" y="850"/>
      <point x="500" y="1050"/>
      <point x="700" y="1050" type="qcurve" smooth="yes"/>
      <point x="750" y="1050" type="line" smooth="yes"/>
      <point x="950" y="1050"/>
      <point x="1200" y="850"/>
      <point x="1200" y="750" type="qcurve" smooth="yes"/>
    </contour>
    <contour>
      <point x="250" y="995" type="line"/>
      <point x="150" y="1068"/>
      <point x="150" y="1147" type="qcurve" smooth="yes"/>
      <point x="150" y="1202" type="line" smooth="yes"/>
      <point x="150" y="1254"/>
      <point x="442" y="1500"/>
      <point x="474" y="1500" type="qcurve" smooth="yes"/>
      <point x="511" y="1500"/>
      <point x="770" y="1280"/>
      <point x="890" y="1280" type="qcurve" smooth="yes"/>
      <point x="1066" y="1280"/>
      <point x="1066" y="1420" type="qcurve" smooth="yes"/>
      <point x="1066" y="1522"/>
      <point x="920" y="1522" type="qcurve" smooth="yes"/>
      <point x="820" y="1522"/>
      <point x="820" y="1611" type="qcurve" smooth="yes"/>
      <point x="820" y="1700"/>
      <point x="920" y="1700" type="qcurve" smooth="yes"/>
      <point x="1200" y="1700"/>
      <point x="1200" y="1420" type="qcurve" smooth="yes"/>
      <point x="1200" y="1126"/>
      <point x="890" y="1126" type="qcurve" smooth="yes"/>
      <point x="678" y="1127"/>
      <point x="455" y="1288"/>
      <point x="417" y="1288" type="qcurve" smooth="yes"/>
      <point x="394" y="1288"/>
      <point x="300" y="1224"/>
      <point x="300" y="1178" type="qcurve" smooth="yes"/>
      <point x="300" y="1148"/>
      <point x="438" y="1050" type="qcurve"/>
    </contour>
  </outline>
</glyph>
<glyph name="uni17A6" format="2">
  <advance width="2137"/>
  <unicode hex="17A6"/>
  <outline>
    <contour>
      <point x="1012" y="0" type="line"/>
      <point x="1012" y="1200" type="line" smooth="yes"/>
      <point x="1012" y="1258"/>
      <point x="856" y="1356"/>
      <point x="750" y="1356" type="qcurve" smooth="yes"/>
      <point x="700" y="1356" type="line" smooth="yes"/>
      <point x="594" y="1356"/>
      <point x="438" y="1258"/>
      <point x="438" y="1200" type="qcurve" smooth="yes"/>
      <point x="438" y="184" type="line"/>
      <point x="548" y="284"/>
      <point x="548" y="400" type="qcurve" smooth="yes"/>
      <point x="548" y="461"/>
      <point x="445" y="461" type="qcurve" smooth="yes"/>
      <point x="430" y="461" type="line"/>
      <point x="430" y="600" type="line"/>
      <point x="445" y="600" type="line" smooth="yes"/>
      <point x="693" y="600"/>
      <point x="693" y="400" type="qcurve" smooth="yes"/>
      <point x="693" y="252"/>
      <point x="566" y="126" type="qcurve" smooth="yes"/>
      <point x="438" y="0" type="line"/>
      <point x="250" y="0" type="line"/>
      <point x="250" y="1200" type="line" smooth="yes"/>
      <point x="250" y="1300"/>
      <point x="500" y="1500"/>
      <point x="700" y="1500" type="qcurve" smooth="yes"/>
      <point x="750" y="1500" type="line" smooth="yes"/>
      <point x="950" y="1500"/>
      <point x="1200" y="1300"/>
      <point x="1200" y="1200" type="qcurve" smooth="yes"/>
      <point x="1200" y="0" type="line"/>
    </contour>
    <contour>
      <point x="1912" y="-425" type="line" smooth="yes"/>
      <point x="1912" y="-600"/>
      <point x="1442" y="-600" type="qcurve" smooth="yes"/>
      <point x="971" y="-600"/>
      <point x="971" y="-425" type="qcurve" smooth="yes"/>
      <point x="971" y="-288" type="line" smooth="yes"/>
      <point x="971" y="-179"/>
      <point x="726" y="-179" type="qcurve" smooth="yes"/>
      <point x="479" y="-179"/>
      <point x="479" y="-318" type="qcurve" smooth="yes"/>
      <point x="479" y="-480" type="line" smooth="yes"/>
      <point x="479" y="-518"/>
      <point x="513" y="-518" type="qcurve" smooth="yes"/>
      <point x="546" y="-518"/>
      <point x="546" y="-480" type="qcurve" smooth="yes"/>
      <point x="546" y="-452"/>
      <point x="500" y="-452" type="qcurve" smooth="yes"/>
      <point x="423" y="-452" type="line"/>
      <point x="423" y="-360" type="line"/>
      <point x="498" y="-360" type="line" smooth="yes"/>
      <point x="635" y="-360"/>
      <point x="635" y="-480" type="qcurve" smooth="yes"/>
      <point x="635" y="-600"/>
      <point x="468" y="-600" type="qcurve" smooth="yes"/>
      <point x="300" y="-600"/>
      <point x="300" y="-480" type="qcurve" smooth="yes"/>
      <point x="300" y="-318" type="line" smooth="yes"/>
      <point x="300" y="-70"/>
      <point x="726" y="-70" type="qcurve" smooth="yes"/>
      <point x="1150" y="-70"/>
      <point x="1150" y="-288" type="qcurve" smooth="yes"/>
      <point x="1150" y="-425" type="line" smooth="yes"/>
      <point x="1150" y="-500"/>
      <point x="1437" y="-500" type="qcurve" smooth="yes"/>
      <point x="1724" y="-500"/>
      <point x="1724" y="-425" type="qcurve" smooth="yes"/>
      <point x="1724" y="993" type="line"/>
      <point x="1637" y="1046" type="line" smooth="yes"/>
      <point x="1549" y="1099"/>
      <point x="1549" y="1131" type="qcurve" smooth="yes"/>
      <point x="1549" y="1162"/>
      <point x="1597" y="1247" type="qcurve" smooth="yes"/>
      <point x="1741" y="1500" type="line"/>
      <point x="1883" y="1388"/>
      <point x="1910" y="1388" type="qcurve" smooth="yes"/>
      <point x="1937" y="1388"/>
      <point x="1937" y="1440" type="qcurve" smooth="yes"/>
      <point x="1937" y="1532"/>
      <point x="1760" y="1562"/>
      <point x="1760" y="1631" type="qcurve" smooth="yes"/>
      <point x="1760" y="1700"/>
      <point x="1843" y="1700" type="qcurve" smooth="yes"/>
      <point x="2075" y="1700"/>
      <point x="2075" y="1440" type="qcurve" smooth="yes"/>
      <point x="2075" y="1206"/>
      <point x="1930" y="1206" type="qcurve" smooth="yes"/>
      <point x="1885" y="1206"/>
      <point x="1751" y="1283" type="qcurve"/>
      <point x="1720" y="1213" type="line"/>
      <point x="1912" y="1100" type="line"/>
    </contour>
  </outline>
</glyph>
<glyph name="uni17A7" format="2">
  <advance width="1450"/>
  <unicode hex="17A7"/>
  <outline>
    <contour>
      <point x="1200" y="673" type="line"/>
      <point x="1200" y="50" type="line" smooth="yes"/>
      <point x="1200" y="-100"/>
      <point x="1046" y="-100" type="qcurve" smooth="yes"/>
      <point x="942" y="-100"/>
      <point x="942" y="-28" type="qcurve"/>
      <point x="1012" y="4"/>
      <point x="1012" y="60" type="qcurve" smooth="yes"/>
      <point x="1012" y="266" type="line"/>
      <point x="953" y="266"/>
      <point x="743" y="102" type="qcurve" smooth="yes"/>
      <point x="616" y="0"/>
      <point x="527" y="0" type="qcurve" smooth="yes"/>
      <point x="250" y="0"/>
      <point x="250" y="250" type="qcurve" smooth="yes"/>
      <point x="250" y="550" type="line"/>
      <point x="726" y="795" type="line" smooth="yes"/>
      <point x="1012" y="943"/>
      <point x="1012" y="1050" type="qcurve" smooth="yes"/>
      <point x="1012" y="1200" type="line" smooth="yes"/>
      <point x="1012" y="1258"/>
      <point x="856" y="1356"/>
      <point x="750" y="1356" type="qcurve" smooth="yes"/>
      <point x="700" y="1356" type="line" smooth="yes"/>
      <point x="594" y="1356"/>
      <point x="438" y="1258"/>
      <point x="438" y="1200" type="qcurve" smooth="yes"/>
      <point x="438" y="970" type="line" smooth="yes"/>
      <point x="438" y="950"/>
      <point x="462" y="950" type="qcurve" smooth="yes"/>
      <point x="486" y="950"/>
      <point x="486" y="1000" type="qcurve" smooth="yes"/>
      <point x="486" y="1025"/>
      <point x="444" y="1025" type="qcurve" smooth="yes"/>
      <point x="432" y="1025" type="line"/>
      <point x="432" y="1125" type="line"/>
      <point x="444" y="1125" type="line" smooth="yes"/>
      <point x="586" y="1125"/>
      <point x="586" y="1000" type="qcurve" smooth="yes"/>
      <point x="586" y="850"/>
      <point x="438" y="850" type="qcurve" smooth="yes"/>
      <point x="250" y="850"/>
      <point x="250" y="970" type="qcurve" smooth="yes"/>
      <point x="250" y="1200" type="line" smooth="yes"/>
      <point x="250" y="1300"/>
      <point x="500" y="1500"/>
      <point x="700" y="1500" type="qcurve" smooth="yes"/>
      <point x="750" y="1500" type="line" smooth="yes"/>
      <point x="950" y="1500"/>
      <point x="1200" y="1300"/>
      <point x="1200" y="1200" type="qcurve" smooth="yes"/>
      <point x="1200" y="1050" type="line" smooth="yes"/>
      <point x="1200" y="878"/>
      <point x="819" y="681" type="qcurve" smooth="yes"/>
      <point x="438" y="485" type="line"/>
      <point x="438" y="250" type="line" smooth="yes"/>
      <point x="438" y="144"/>
      <point x="527" y="144" type="qcurve" smooth="yes"/>
      <point x="586" y="144"/>
      <point x="637" y="186" type="qcurve" smooth="yes"/>
      <point x="909" y="400"/>
      <point x="1012" y="400" type="qcurve"/>
      <point x="1012" y="583" type="line"/>
    </contour>
  </outline>
</glyph>
<glyph name="uni17A8" format="2">
  <advance width="1450"/>
  <unicode hex="17A8"/>
  <outline>
    <contour>
      <point x="1200" y="50" type="line" smooth="yes"/>
      <point x="1200" y="-100"/>
      <point x="1046" y="-100" type="qcurve" smooth="yes"/>
      <point x="942" y="-100"/>
      <point x="942" y="-28" type="qcurve"/>
      <point x="1012" y="4"/>
      <point x="1012" y="60" type="qcurve" smooth="yes"/>
      <point x="1012" y="266" type="line"/>
      <point x="953" y="266"/>
      <point x="743" y="102" type="qcurve" smooth="yes"/>
      <point x="616" y="0"/>
      <point x="527" y="0" type="qcurve" smooth="yes"/>
      <point x="250" y="0"/>
      <point x="250" y="250" type="qcurve" smooth="yes"/>
      <point x="250" y="550" type="line"/>
      <point x="726" y="795" type="line" smooth="yes"/>
      <point x="1012" y="943"/>
      <point x="1012" y="1050" type="qcurve" smooth="yes"/>
      <point x="1012" y="1200" type="line" smooth="yes"/>
      <point x="1012" y="1258"/>
      <point x="856" y="1356"/>
      <point x="750" y="1356" type="qcurve" smooth="yes"/>
      <point x="700" y="1356" type="line" smooth="yes"/>
      <point x="594" y="1356"/>
      <point x="438" y="1258"/>
      <point x="438" y="1200" type="qcurve" smooth="yes"/>
      <point x="438" y="970" type="line" smooth="yes"/>
      <point x="438" y="950"/>
      <point x="462" y="950" type="qcurve" smooth="yes"/>
      <point x="486" y="950"/>
      <point x="486" y="1000" type="qcurve" smooth="yes"/>
      <point x="486" y="1025"/>
      <point x="444" y="1025" type="qcurve" smooth="yes"/>
      <point x="432" y="1025" type="line"/>
      <point x="432" y="1125" type="line"/>
      <point x="444" y="1125" type="line" smooth="yes"/>
      <point x="586" y="1125"/>
      <point x="586" y="1000" type="qcurve" smooth="yes"/>
      <point x="586" y="850"/>
      <point x="438" y="850" type="qcurve" smooth="yes"/>
      <point x="250" y="850"/>
      <point x="250" y="970" type="qcurve" smooth="yes"/>
      <point x="250" y="1200" type="line" smooth="yes"/>
      <point x="250" y="1300"/>
      <point x="500" y="1500"/>
      <point x="700" y="1500" type="qcurve" smooth="yes"/>
      <point x="750" y="1500" type="line" smooth="yes"/>
      <point x="950" y="1500"/>
      <point x="1200" y="1300"/>
      <point x="1200" y="1200" type="qcurve" smooth="yes"/>
      <point x="1200" y="1050" type="line" smooth="yes"/>
      <point x="1200" y="878"/>
      <point x="819" y="681" type="qcurve" smooth="yes"/>
      <point x="438" y="485" type="line"/>
      <point x="438" y="250" type="line" smooth="yes"/>
      <point x="438" y="144"/>
      <point x="527" y="144" type="qcurve" smooth="yes"/>
      <point x="586" y="144"/>
      <point x="637" y="186" type="qcurve" smooth="yes"/>
      <point x="909" y="400"/>
      <point x="1012" y="400" type="qcurve"/>
      <point x="1012" y="583" type="line"/>
      <point x="1200" y="673" type="line"/>
    </contour>
    <contour>
      <point x="338" y="1437" type="line"/>
      <point x="180" y="1498"/>
      <point x="180" y="1597" type="qcurve" smooth="yes"/>
      <point x="180" y="1652" type="line" smooth="yes"/>
      <point x="180" y="1704"/>
      <point x="442" y="1950"/>
      <point x="474" y="1950" type="qcurve" smooth="yes"/>
      <point x="511" y="1950"/>
      <point x="700" y="1753"/>
      <point x="730" y="1753" type="qcurve" smooth="yes"/>
      <point x="755" y="1753"/>
      <point x="932" y="1950"/>
      <point x="968" y="1950" type="qcurve" smooth="yes"/>
      <point x="1003" y="1950"/>
      <point x="1208" y="1733"/>
      <point x="1264" y="1733" type="qcurve" smooth="yes"/>
      <point x="1284" y="1733"/>
      <point x="1300" y="1744" type="qcurve"/>
      <point x="1230" y="1577"/>
      <point x="1165" y="1577" type="qcurve" smooth="yes"/>
      <point x="1097" y="1577"/>
      <point x="943" y="1738"/>
      <point x="910" y="1738" type="qcurve" smooth="yes"/>
      <point x="867" y="1738"/>
      <point x="750" y="1577"/>
      <point x="700" y="1577" type="qcurve" smooth="yes"/>
      <point x="628" y="1577"/>
      <point x="455" y="1738"/>
      <point x="417" y="1738" type="qcurve" smooth="yes"/>
      <point x="394" y="1738"/>
      <point x="330" y="1674"/>
      <point x="330" y="1628" type="qcurve" smooth="yes"/>
      <point x="330" y="1598"/>
      <point x="467" y="1528" type="qcurve"/>
    </contour>
  </outline>
</glyph>
<glyph name="uni17AA" format="2">
  <advance width="1450"/>
  <unicode hex="17AA"/>
  <outline>
    <contour>
      <point x="1200" y="673" type="line"/>
      <point x="1200" y="50" type="line" smooth="yes"/>
      <point x="1200" y="-100"/>
      <point x="1046" y="-100" type="qcurve" smooth="yes"/>
      <point x="942" y="-100"/>
      <point x="942" y="-28" type="qcurve"/>
      <point x="1012" y="4"/>
      <point x="1012" y="60" type="qcurve" smooth="yes"/>
      <point x="1012" y="266" type="line"/>
      <point x="953" y="266"/>
      <point x="743" y="102" type="qcurve" smooth="yes"/>
      <point x="616" y="0"/>
      <point x="527" y="0" type="qcurve" smooth="yes"/>
      <point x="250" y="0"/>
      <point x="250" y="250" type="qcurve" smooth="yes"/>
      <point x="250" y="550" type="line"/>
      <point x="726" y="795" type="line" smooth="yes"/>
      <point x="1012" y="943"/>
      <point x="1012" y="1050" type="qcurve" smooth="yes"/>
      <point x="1012" y="1200" type="line" smooth="yes"/>
      <point x="1012" y="1258"/>
      <point x="856" y="1356"/>
      <point x="750" y="1356" type="qcurve" smooth="yes"/>
      <point x="700" y="1356" type="line" smooth="yes"/>
      <point x="594" y="1356"/>
      <point x="438" y="1258"/>
      <point x="438" y="1200" type="qcurve" smooth="yes"/>
      <point x="438" y="970" type="line" smooth="yes"/>
      <point x="438" y="950"/>
      <point x="462" y="950" type="qcurve" smooth="yes"/>
      <point x="486" y="950"/>
      <point x="486" y="1000" type="qcurve" smooth="yes"/>
      <point x="486" y="1025"/>
      <point x="444" y="1025" type="qcurve" smooth="yes"/>
      <point x="432" y="1025" type="line"/>
      <point x="432" y="1125" type="line"/>
      <point x="444" y="1125" type="line" smooth="yes"/>
      <point x="586" y="1125"/>
      <point x="586" y="1000" type="qcurve" smooth="yes"/>
      <point x="586" y="850"/>
      <point x="438" y="850" type="qcurve" smooth="yes"/>
      <point x="250" y="850"/>
      <point x="250" y="970" type="qcurve" smooth="yes"/>
      <point x="250" y="1200" type="line" smooth="yes"/>
      <point x="250" y="1300"/>
      <point x="500" y="1500"/>
      <point x="700" y="1500" type="qcurve" smooth="yes"/>
      <point x="750" y="1500" type="line" smooth="yes"/>
      <point x="950" y="1500"/>
      <point x="1200" y="1300"/>
      <point x="1200" y="1200" type="qcurve" smooth="yes"/>
      <point x="1200" y="1050" type="line" smooth="yes"/>
      <point x="1200" y="878"/>
      <point x="819" y="681" type="qcurve" smooth="yes"/>
      <point x="438" y="485" type="line"/>
      <point x="438" y="250" type="line" smooth="yes"/>
      <point x="438" y="144"/>
      <point x="527" y="144" type="qcurve" smooth="yes"/>
      <point x="586" y="144"/>
      <point x="637" y="186" type="qcurve" smooth="yes"/>
      <point x="909" y="400"/>
      <point x="1012" y="400" type="qcurve"/>
      <point x="1012" y="583" type="line"/>
    </contour>
    <contour>
      <point x="250" y="1445" type="line"/>
      <point x="150" y="1518"/>
      <point x="150" y="1597" type="qcurve" smooth="yes"/>
      <point x="150" y="1652" type="line" smooth="yes"/>
      <point x="150" y="1704"/>
      <point x="442" y="1950"/>
      <point x="474" y="1950" type="qcurve" smooth="yes"/>
      <point x="511" y="1950"/>
      <point x="770" y="1730"/>
      <point x="890" y="1730" type="qcurve" smooth="yes"/>
      <point x="1066" y="1730"/>
      <point x="1066" y="1870" type="qcurve" smooth="yes"/>
      <point x="1066" y="1972"/>
      <point x="920" y="1972" type="qcurve" smooth="yes"/>
      <point x="820" y="1972"/>
      <point x="820" y="2061" type="qcurve" smooth="yes"/>
      <point x="820" y="2150"/>
      <point x="920" y="2150" type="qcurve" smooth="yes"/>
      <point x="1200" y="2150"/>
      <point x="1200" y="1870" type="qcurve" smooth="yes"/>
      <point x="1200" y="1576"/>
      <point x="890" y="1576" type="qcurve" smooth="yes"/>
      <point x="678" y="1577"/>
      <point x="455" y="1738"/>
      <point x="417" y="1738" type="qcurve" smooth="yes"/>
      <point x="394" y="1738"/>
      <point x="300" y="1674"/>
      <point x="300" y="1628" type="qcurve" smooth="yes"/>
      <point x="300" y="1598"/>
      <point x="438" y="1500" type="qcurve"/>
    </contour>
  </outline>
</glyph>
<glyph name="uni17AC" format="2">
  <advance width="1475"/>
  <unicode hex="17AC"/>
  <outline>
    <contour>
      <point x="1370" y="-620" type="line"/>
      <point x="1340" y="-620" type="line" smooth="yes"/>
      <point x="1153" y="-620"/>
      <point x="1091" y="-428" type="qcurve"/>
      <point x="1154" y="-352" type="line"/>
      <point x="1208" y="-490"/>
      <point x="1340" y="-490" type="qcurve" smooth="yes"/>
      <point x="1370" y="-490" type="line"/>
    </contour>
    <contour>
      <point x="906" y="-70" type="line"/>
      <point x="1220" y="-70"/>
      <point x="1220" y="-259" type="qcurve" smooth="yes"/>
      <point x="1220" y="-623"/>
      <point x="386" y="-623" type="qcurve" smooth="yes"/>
      <point x="186" y="-623"/>
      <point x="186" y="-580" type="qcurve"/>
      <point x="1036" y="-524"/>
      <point x="1036" y="-259" type="qcurve" smooth="yes"/>
      <point x="1036" y="-198"/>
      <point x="906" y="-198" type="qcurve"/>
    </contour>
    <contour>
      <point x="1225" y="300" type="line" smooth="yes"/>
      <point x="1225" y="200"/>
      <point x="975" y="0"/>
      <point x="775" y="0" type="qcurve" smooth="yes"/>
      <point x="725" y="0" type="line" smooth="yes"/>
      <point x="525" y="0"/>
      <point x="275" y="200"/>
      <point x="275" y="300" type="qcurve" smooth="yes"/>
      <point x="275" y="993" type="line"/>
      <point x="188" y="1046" type="line" smooth="yes"/>
      <point x="100" y="1099"/>
      <point x="100" y="1131" type="qcurve" smooth="yes"/>
      <point x="100" y="1162"/>
      <point x="156" y="1247" type="qcurve" smooth="yes"/>
      <point x="324" y="1500" type="line"/>
      <point x="486" y="1406" type="line" smooth="yes"/>
      <point x="540" y="1375"/>
      <point x="559" y="1375" type="qcurve" smooth="yes"/>
      <point x="577" y="1375"/>
      <point x="613" y="1385" type="qcurve"/>
      <point x="613" y="1350"/>
      <point x="525" y="1212"/>
      <point x="485" y="1212" type="qcurve" smooth="yes"/>
      <point x="444" y="1212"/>
      <point x="382" y="1249" type="qcurve" smooth="yes"/>
      <point x="314" y="1288" type="line"/>
      <point x="271" y="1213" type="line"/>
      <point x="463" y="1100" type="line"/>
      <point x="463" y="300" type="line" smooth="yes"/>
      <point x="463" y="242"/>
      <point x="619" y="144"/>
      <point x="725" y="144" type="qcurve" smooth="yes"/>
      <point x="775" y="144" type="line" smooth="yes"/>
      <point x="881" y="144"/>
      <point x="1037" y="242"/>
      <point x="1037" y="300" type="qcurve" smooth="yes"/>
      <point x="1037" y="993" type="line"/>
      <point x="950" y="1046" type="line" smooth="yes"/>
      <point x="862" y="1099"/>
      <point x="862" y="1131" type="qcurve" smooth="yes"/>
      <point x="862" y="1162"/>
      <point x="918" y="1247" type="qcurve" smooth="yes"/>
      <point x="1086" y="1500" type="line"/>
      <point x="1248" y="1406" type="line" smooth="yes"/>
      <point x="1302" y="1375"/>
      <point x="1321" y="1375" type="qcurve" smooth="yes"/>
      <point x="1339" y="1375"/>
      <point x="1375" y="1385" type="qcurve"/>
      <point x="1375" y="1350"/>
      <point x="1287" y="1212"/>
      <point x="1247" y="1212" type="qcurve" smooth="yes"/>
      <point x="1206" y="1212"/>
      <point x="1144" y="1249" type="qcurve" smooth="yes"/>
      <point x="1076" y="1288" type="line"/>
      <point x="1033" y="1213" type="line"/>
      <point x="1225" y="1100" type="line"/>
    </contour>
  </outline>
</glyph>
<glyph name="uni17AD" format="2">
  <advance width="1450"/>
  <unicode hex="17AD"/>
  <outline>
    <contour>
      <point x="1200" y="0" type="line"/>
      <point x="1012" y="0" type="line"/>
      <point x="1012" y="1177" type="line" smooth="yes"/>
      <point x="1012" y="1207"/>
      <point x="893" y="1308"/>
      <point x="860" y="1308" type="qcurve" smooth="yes"/>
      <point x="827" y="1308"/>
      <point x="710" y="1147"/>
      <point x="660" y="1147" type="qcurve" smooth="yes"/>
      <point x="588" y="1147"/>
      <point x="435" y="1308"/>
      <point x="397" y="1308" type="qcurve" smooth="yes"/>
      <point x="374" y="1308"/>
      <point x="320" y="1264"/>
      <point x="320" y="1218" type="qcurve" smooth="yes"/>
      <point x="320" y="1188"/>
      <point x="438" y="1110" type="qcurve"/>
      <point x="438" y="214" type="line"/>
      <point x="538" y="304"/>
      <point x="538" y="395" type="qcurve" smooth="yes"/>
      <point x="538" y="461"/>
      <point x="445" y="461" type="qcurve" smooth="yes"/>
      <point x="430" y="461" type="line"/>
      <point x="430" y="600" type="line"/>
      <point x="445" y="600" type="line" smooth="yes"/>
      <point x="683" y="600"/>
      <point x="683" y="405" type="qcurve" smooth="yes"/>
      <point x="683" y="252"/>
      <point x="530" y="95" type="qcurve" smooth="yes"/>
      <point x="438" y="0" type="line"/>
      <point x="250" y="0" type="line"/>
      <point x="250" y="1055" type="line"/>
      <point x="170" y="1118"/>
      <point x="170" y="1187" type="qcurve" smooth="yes"/>
      <point x="170" y="1242" type="line" smooth="yes"/>
      <point x="170" y="1294"/>
      <point x="422" y="1500"/>
      <point x="454" y="1500" type="qcurve" smooth="yes"/>
      <point x="491" y="1500"/>
      <point x="660" y="1323"/>
      <point x="690" y="1323" type="qcurve" smooth="yes"/>
      <point x="715" y="1323"/>
      <point x="872" y="1500"/>
      <point x="908" y="1500" type="qcurve" smooth="yes"/>
      <point x="943" y="1500"/>
      <point x="1200" y="1303"/>
      <point x="1200" y="1177" type="qcurve" smooth="yes"/>
    </contour>
    <contour>
      <point x="886" y="-70" type="line"/>
      <point x="1200" y="-70"/>
      <point x="1200" y="-259" type="qcurve" smooth="yes"/>
      <point x="1200" y="-623"/>
      <point x="366" y="-623" type="qcurve" smooth="yes"/>
      <point x="166" y="-623"/>
      <point x="166" y="-580" type="qcurve"/>
      <point x="1016" y="-524"/>
      <point x="1016" y="-259" type="qcurve" smooth="yes"/>
      <point x="1016" y="-198"/>
      <point x="886" y="-198" type="qcurve"/>
    </contour>
  </outline>
</glyph>
<glyph name="uni17AF" format="2">
  <advance width="1450"/>
  <unicode hex="17AF"/>
  <outline>
    <contour>
      <point x="1012" y="186" type="line"/>
      <point x="1012" y="1090" type="line" smooth="yes"/>
      <point x="1012" y="1146"/>
      <point x="848" y="1322"/>
      <point x="781" y="1322" type="qcurve" smooth="yes"/>
      <point x="673" y="1322"/>
      <point x="438" y="1096" type="qcurve"/>
      <point x="250" y="1096"/>
      <point x="250" y="1266" type="qcurve" smooth="yes"/>
      <point x="250" y="1332"/>
      <point x="300" y="1458"/>
      <point x="300" y="1526" type="qcurve" smooth="yes"/>
      <point x="300" y="1614"/>
      <point x="200" y="1614" type="qcurve"/>
      <point x="200" y="1700"/>
      <point x="300" y="1700" type="qcurve" smooth="yes"/>
      <point x="480" y="1700"/>
      <point x="480" y="1526" type="qcurve" smooth="yes"/>
      <point x="480" y="1444"/>
      <point x="430" y="1336"/>
      <point x="430" y="1306" type="qcurve" smooth="yes"/>
      <point x="430" y="1281"/>
      <point x="434" y="1262" type="qcurve"/>
      <point x="452" y="1290"/>
      <point x="705" y="1500"/>
      <point x="781" y="1500" type="qcurve" smooth="yes"/>
      <point x="899" y="1500"/>
      <point x="1200" y="1205"/>
      <point x="1200" y="1090" type="qcurve" smooth="yes"/>
      <point x="1200" y="0" type="line"/>
      <point x="1012" y="0" type="line"/>
      <point x="725" y="236" type="line"/>
      <point x="438" y="0" type="line"/>
      <point x="250" y="0" type="line"/>
      <point x="250" y="836" type="line"/>
      <point x="235" y="836"/>
      <point x="210" y="786"/>
      <point x="210" y="765" type="qcurve" smooth="yes"/>
      <point x="210" y="740"/>
      <point x="250" y="740" type="qcurve" smooth="yes"/>
      <point x="260" y="740" type="line"/>
      <point x="260" y="610" type="line"/>
      <point x="250" y="610" type="line" smooth="yes"/>
      <point x="110" y="610"/>
      <point x="110" y="765" type="qcurve" smooth="yes"/>
      <point x="110" y="812"/>
      <point x="220" y="980"/>
      <point x="314" y="980" type="qcurve" smooth="yes"/>
      <point x="438" y="980"/>
      <point x="438" y="880" type="qcurve" smooth="yes"/>
      <point x="438" y="186" type="line"/>
      <point x="725" y="423" type="line"/>
    </contour>
  </outline>
</glyph>
<glyph name="uni17B0" format="2">
  <advance width="1450"/>
  <unicode hex="17B0"/>
  <outline>
    <contour>
      <point x="1200" y="-251" type="line" smooth="yes"/>
      <point x="1200" y="-478"/>
      <point x="963" y="-478" type="qcurve" smooth="yes"/>
      <point x="880" y="-478"/>
      <point x="798" y="-418" type="qcurve"/>
      <point x="765" y="-595"/>
      <point x="576" y="-595" type="qcurve" smooth="yes"/>
      <point x="300" y="-595"/>
      <point x="300" y="-414" type="qcurve" smooth="yes"/>
      <point x="300" y="-270"/>
      <point x="459" y="-229" type="qcurve" smooth="yes"/>
      <point x="1097" y="-61" type="line"/>
      <point x="1097" y="-195" type="line"/>
      <point x="518" y="-347" type="line" smooth="yes"/>
      <point x="479" y="-358"/>
      <point x="479" y="-410" type="qcurve" smooth="yes"/>
      <point x="479" y="-466"/>
      <point x="579" y="-466" type="qcurve" smooth="yes"/>
      <point x="712" y="-466"/>
      <point x="712" y="-336" type="qcurve" smooth="yes"/>
      <point x="712" y="-208" type="line"/>
      <point x="821" y="-208" type="line"/>
      <point x="853" y="-343"/>
      <point x="963" y="-343" type="qcurve" smooth="yes"/>
      <point x="1012" y="-343"/>
      <point x="1012" y="-251" type="qcurve" smooth="yes"/>
      <point x="1012" y="1177" type="line" smooth="yes"/>
      <point x="1012" y="1207"/>
      <point x="893" y="1308"/>
      <point x="860" y="1308" type="qcurve" smooth="yes"/>
      <point x="827" y="1308"/>
      <point x="710" y="1147"/>
      <point x="660" y="1147" type="qcurve" smooth="yes"/>
      <point x="588" y="1147"/>
      <point x="435" y="1308"/>
      <point x="397" y="1308" type="qcurve" smooth="yes"/>
      <point x="374" y="1308"/>
      <point x="320" y="1264"/>
      <point x="320" y="1218" type="qcurve" smooth="yes"/>
      <point x="320" y="1188"/>
      <point x="438" y="1110" type="qcurve"/>
      <point x="438" y="214" type="line"/>
      <point x="538" y="304"/>
      <point x="538" y="395" type="qcurve" smooth="yes"/>
      <point x="538" y="461"/>
      <point x="445" y="461" type="qcurve" smooth="yes"/>
      <point x="430" y="461" type="line"/>
      <point x="430" y="600" type="line"/>
      <point x="445" y="600" type="line" smooth="yes"/>
      <point x="683" y="600"/>
      <point x="683" y="405" type="qcurve" smooth="yes"/>
      <point x="683" y="252"/>
      <point x="530" y="95" type="qcurve" smooth="yes"/>
      <point x="438" y="0" type="line"/>
      <point x="250" y="0" type="line"/>
      <point x="250" y="1055" type="line"/>
      <point x="170" y="1118"/>
      <point x="170" y="1187" type="qcurve" smooth="yes"/>
      <point x="170" y="1242" type="line" smooth="yes"/>
      <point x="170" y="1294"/>
      <point x="422" y="1500"/>
      <point x="454" y="1500" type="qcurve" smooth="yes"/>
      <point x="491" y="1500"/>
      <point x="660" y="1323"/>
      <point x="690" y="1323" type="qcurve" smooth="yes"/>
      <point x="715" y="1323"/>
      <point x="872" y="1500"/>
      <point x="908" y="1500" type="qcurve" smooth="yes"/>
      <point x="943" y="1500"/>
      <point x="1200" y="1303"/>
      <point x="1200" y="1177" type="qcurve" smooth="yes"/>
    </contour>
  </outline>
</glyph>
<glyph name="uni17B1" format="2">
  <advance width="1450"/>
  <unicode hex="17B1"/>
  <outline>
    <contour>
      <point x="427" y="1520" type="line"/>
      <point x="210" y="1585"/>
      <point x="210" y="1691" type="qcurve" smooth="yes"/>
      <point x="210" y="1737"/>
      <point x="440" y="1910"/>
      <point x="569" y="1910" type="qcurve" smooth="yes"/>
      <point x="741" y="1910"/>
      <point x="1210" y="1706"/>
      <point x="1210" y="1522" type="qcurve"/>
      <point x="1050" y="1522" type="line"/>
      <point x="1050" y="1613"/>
      <point x="700" y="1760"/>
      <point x="569" y="1760" type="qcurve" smooth="yes"/>
      <point x="469" y="1760"/>
      <point x="390" y="1712"/>
      <point x="390" y="1689" type="qcurve" smooth="yes"/>
      <point x="390" y="1631"/>
      <point x="532" y="1570" type="qcurve"/>
    </contour>
    <contour>
      <point x="1200" y="673" type="line"/>
      <point x="1200" y="50" type="line" smooth="yes"/>
      <point x="1200" y="-100"/>
      <point x="1046" y="-100" type="qcurve" smooth="yes"/>
      <point x="942" y="-100"/>
      <point x="942" y="-28" type="qcurve"/>
      <point x="1012" y="4"/>
      <point x="1012" y="60" type="qcurve" smooth="yes"/>
      <point x="1012" y="266" type="line"/>
      <point x="953" y="266"/>
      <point x="743" y="102" type="qcurve" smooth="yes"/>
      <point x="616" y="0"/>
      <point x="527" y="0" type="qcurve" smooth="yes"/>
      <point x="250" y="0"/>
      <point x="250" y="250" type="qcurve" smooth="yes"/>
      <point x="250" y="550" type="line"/>
      <point x="726" y="795" type="line" smooth="yes"/>
      <point x="1012" y="943"/>
      <point x="1012" y="1050" type="qcurve" smooth="yes"/>
      <point x="1012" y="1200" type="line" smooth="yes"/>
      <point x="1012" y="1258"/>
      <point x="856" y="1356"/>
      <point x="750" y="1356" type="qcurve" smooth="yes"/>
      <point x="700" y="1356" type="line" smooth="yes"/>
      <point x="594" y="1356"/>
      <point x="438" y="1258"/>
      <point x="438" y="1200" type="qcurve" smooth="yes"/>
      <point x="438" y="970" type="line" smooth="yes"/>
      <point x="438" y="950"/>
      <point x="462" y="950" type="qcurve" smooth="yes"/>
      <point x="486" y="950"/>
      <point x="486" y="1000" type="qcurve" smooth="yes"/>
      <point x="486" y="1025"/>
      <point x="444" y="1025" type="qcurve" smooth="yes"/>
      <point x="432" y="1025" type="line"/>
      <point x="432" y="1125" type="line"/>
      <point x="444" y="1125" type="line" smooth="yes"/>
      <point x="586" y="1125"/>
      <point x="586" y="1000" type="qcurve" smooth="yes"/>
      <point x="586" y="850"/>
      <point x="438" y="850" type="qcurve" smooth="yes"/>
      <point x="250" y="850"/>
      <point x="250" y="970" type="qcurve" smooth="yes"/>
      <point x="250" y="1200" type="line" smooth="yes"/>
      <point x="250" y="1300"/>
      <point x="500" y="1500"/>
      <point x="700" y="1500" type="qcurve" smooth="yes"/>
      <point x="750" y="1500" type="line" smooth="yes"/>
      <point x="950" y="1500"/>
      <point x="1200" y="1300"/>
      <point x="1200" y="1200" type="qcurve" smooth="yes"/>
      <point x="1200" y="1050" type="line" smooth="yes"/>
      <point x="1200" y="878"/>
      <point x="819" y="681" type="qcurve" smooth="yes"/>
      <point x="438" y="485" type="line"/>
      <point x="438" y="250" type="line" smooth="yes"/>
      <point x="438" y="144"/>
      <point x="527" y="144" type="qcurve" smooth="yes"/>
      <point x="586" y="144"/>
      <point x="637" y="186" type="qcurve" smooth="yes"/>
      <point x="909" y="400"/>
      <point x="1012" y="400" type="qcurve"/>
      <point x="1012" y="583" type="line"/>
    </contour>
  </outline>
</glyph>
<glyph name="uni17B2" format="2">
  <advance width="1450"/>
  <unicode hex="17B2"/>
  <outline>
    <contour>
      <point x="646" y="472" type="line"/>
      <point x="895" y="670" type="line" smooth="yes"/>
      <point x="1007" y="761"/>
      <point x="1007" y="880" type="qcurve" smooth="yes"/>
      <point x="1007" y="960"/>
      <point x="920" y="960" type="qcurve" smooth="yes"/>
      <point x="775" y="960"/>
      <point x="775" y="880" type="qcurve" smooth="yes"/>
      <point x="775" y="818"/>
      <point x="813" y="818" type="qcurve" smooth="yes"/>
      <point x="842" y="818"/>
      <point x="885" y="838" type="qcurve"/>
      <point x="875" y="720"/>
      <point x="802" y="720" type="qcurve" smooth="yes"/>
      <point x="635" y="720"/>
      <point x="635" y="880" type="qcurve" smooth="yes"/>
      <point x="635" y="1060"/>
      <point x="920" y="1060" type="qcurve" smooth="yes"/>
      <point x="1195" y="1060"/>
      <point x="1195" y="880" type="qcurve" smooth="yes"/>
      <point x="1195" y="757"/>
      <point x="1029" y="626" type="qcurve" smooth="yes"/>
      <point x="722" y="385" type="line"/>
    </contour>
    <contour>
      <point x="1007" y="400" type="line" smooth="yes"/>
      <point x="1007" y="547"/>
      <point x="893" y="547" type="qcurve"/>
      <point x="893" y="632" type="line"/>
      <point x="1195" y="632"/>
      <point x="1195" y="400" type="qcurve" smooth="yes"/>
      <point x="1195" y="300" type="line" smooth="yes"/>
      <point x="1195" y="200"/>
      <point x="945" y="0"/>
      <point x="745" y="0" type="qcurve" smooth="yes"/>
      <point x="695" y="0" type="line" smooth="yes"/>
      <point x="495" y="0"/>
      <point x="245" y="200"/>
      <point x="245" y="300" type="qcurve" smooth="yes"/>
      <point x="250" y="1200" type="line" smooth="yes"/>
      <point x="250" y="1300"/>
      <point x="500" y="1500"/>
      <point x="700" y="1500" type="qcurve" smooth="yes"/>
      <point x="750" y="1500" type="line" smooth="yes"/>
      <point x="950" y="1500"/>
      <point x="1200" y="1300"/>
      <point x="1200" y="1200" type="qcurve"/>
      <point x="1012" y="1200" type="line"/>
      <point x="1012" y="1258"/>
      <point x="856" y="1356"/>
      <point x="750" y="1356" type="qcurve" smooth="yes"/>
      <point x="700" y="1356" type="line" smooth="yes"/>
      <point x="594" y="1356"/>
      <point x="433" y="1258"/>
      <point x="433" y="1200" type="qcurve" smooth="yes"/>
      <point x="433" y="300" type="line" smooth="yes"/>
      <point x="433" y="242"/>
      <point x="589" y="144"/>
      <point x="695" y="144" type="qcurve" smooth="yes"/>
      <point x="745" y="144" type="line" smooth="yes"/>
      <point x="851" y="144"/>
      <point x="1007" y="242"/>
      <point x="1007" y="300" type="qcurve" smooth="yes"/>
    </contour>
  </outline>
</glyph>
<glyph name="uni17B6" format="2">
  <advance width="688"/>
  <unicode hex="17B6"/>
  <outline>
    <contour>
      <point x="250" y="0" type="line"/>
      <point x="250" y="1128" type="line" smooth="yes"/>
      <point x="250" y="1164"/>
      <point x="17" y="1346"/>
      <point x="-41" y="1346" type="qcurve" smooth="yes"/>
      <point x="-138" y="1346"/>
      <point x="-361" y="1113" type="qcurve"/>
      <point x="-361" y="1260"/>
      <point x="-128" y="1500"/>
      <point x="-7" y="1500" type="qcurve" smooth="yes"/>
      <point x="112" y="1500"/>
      <point x="438" y="1253"/>
      <point x="438" y="1128" type="qcurve" smooth="yes"/>
      <point x="438" y="0" type="line"/>
    </contour>
  </outline>
</glyph>
<glyph name="uni17B9" format="2">
  <unicode hex="17B9"/>
  <outline>
    <contour>
      <point x="-255" y="2030" type="qcurve" smooth="yes"/>
      <point x="-255" y="1860"/>
      <point x="-440" y="1860" type="qcurve"/>
      <point x="-440" y="1950" type="line"/>
      <point x="-365" y="1950"/>
      <point x="-365" y="2025" type="qcurve" smooth="yes"/>
      <point x="-365" y="2100"/>
      <point x="-460" y="2100" type="qcurve" smooth="yes"/>
      <point x="-555" y="2100"/>
      <point x="-555" y="2030" type="qcurve"/>
      <point x="-635" y="2030" type="line"/>
      <point x="-635" y="2200"/>
      <point x="-445" y="2200" type="qcurve" smooth="yes"/>
      <point x="-255" y="2200"/>
    </contour>
    <contour>
      <point x="-386" y="1976" type="qcurve" smooth="yes"/>
      <point x="-255" y="1860" type="line"/>
      <point x="-255" y="1760" type="line"/>
      <point x="-875" y="1760" type="line" smooth="yes"/>
      <point x="-1165" y="1760"/>
      <point x="-1165" y="1960" type="qcurve" smooth="yes"/>
      <point x="-1165" y="2170"/>
      <point x="-845" y="2170" type="qcurve" smooth="yes"/>
      <point x="-605" y="2170"/>
    </contour>
    <contour>
      <point x="-465" y="1890" type="line"/>
      <point x="-604" y="2040"/>
      <point x="-845" y="2040" type="qcurve" smooth="yes"/>
      <point x="-995" y="2040"/>
      <point x="-995" y="1960" type="qcurve" smooth="yes"/>
      <point x="-995" y="1890"/>
      <point x="-875" y="1890" type="qcurve" smooth="yes"/>
    </contour>
  </outline>
</glyph>
<glyph name="uni17BB" format="2">
  <unicode hex="17BB"/>
  <outline>
    <contour>
      <point x="-400" y="-650" type="line"/>
      <point x="-400" y="-300" type="line"/>
      <point x="-480" y="-300"/>
      <point x="-480" y="-200" type="qcurve" smooth="yes"/>
      <point x="-480" y="-100"/>
      <point x="-360" y="-100" type="qcurve" smooth="yes"/>
      <point x="-250" y="-100"/>
      <point x="-250" y="-200" type="qcurve" smooth="yes"/>
      <point x="-250" y="-650" type="line"/>
    </contour>
  </outline>
</glyph>
<glyph name="uni17BC" format="2">
  <unicode hex="17BC"/>
  <outline>
    <contour>
      <point x="-848" y="-526" type="qcurve" smooth="yes"/>
      <point x="-848" y="-488"/>
      <point x="-827" y="-435" type="qcurve" smooth="yes"/>
      <point x="-755" y="-270" type="line"/>
      <point x="-804" y="-270"/>
      <point x="-804" y="-185" type="qcurve" smooth="yes"/>
      <point x="-804" y="-100"/>
      <point x="-685" y="-100" type="qcurve" smooth="yes"/>
      <point x="-567" y="-100"/>
      <point x="-567" y="-170" type="qcurve" smooth="yes"/>
      <point x="-567" y="-241"/>
      <point x="-594" y="-307" type="qcurve" smooth="yes"/>
      <point x="-661" y="-463" type="line" smooth="yes"/>
      <point x="-673" y="-493"/>
      <point x="-673" y="-516" type="qcurve" smooth="yes"/>
      <point x="-673" y="-540"/>
      <point x="-626" y="-540" type="qcurve" smooth="yes"/>
      <point x="-557" y="-540"/>
      <point x="-371" y="-100"/>
      <point x="-307" y="-100" type="qcurve" smooth="yes"/>
      <point x="-262" y="-100"/>
      <point x="-262" y="-138" type="qcurve" smooth="yes"/>
      <point x="-262" y="-176"/>
      <point x="-439" y="-650"/>
      <point x="-646" y="-650" type="qcurve" smooth="yes"/>
      <point x="-848" y="-650"/>
    </contour>
  </outline>
</glyph>
<glyph name="uni17BD" format="2">
  <unicode hex="17BD"/>
  <outline>
    <contour>
      <point x="-650" y="-207" type="qcurve" smooth="yes"/>
      <point x="-650" y="-235"/>
      <point x="-792" y="-475"/>
      <point x="-792" y="-499" type="qcurve" smooth="yes"/>
      <point x="-792" y="-520"/>
      <point x="-773" y="-520" type="qcurve" smooth="yes"/>
      <point x="-699" y="-520"/>
      <point x="-578" y="-373" type="qcurve"/>
      <point x="-541" y="-373" type="line"/>
      <point x="-502" y="-520"/>
      <point x="-443" y="-520" type="qcurve" smooth="yes"/>
      <point x="-400" y="-520"/>
      <point x="-331" y="-100" type="qcurve"/>
      <point x="-253" y="-100"/>
      <point x="-253" y="-198" type="qcurve" smooth="yes"/>
      <point x="-253" y="-296"/>
      <point x="-307" y="-650"/>
      <point x="-443" y="-650" type="qcurve" smooth="yes"/>
      <point x="-526" y="-650"/>
      <point x="-581" y="-503" type="qcurve"/>
      <point x="-718" y="-650"/>
      <point x="-853" y="-650" type="qcurve" smooth="yes"/>
      <point x="-949" y="-650"/>
      <point x="-949" y="-521" type="qcurve" smooth="yes"/>
      <point x="-949" y="-444"/>
      <point x="-798" y="-275"/>
      <point x="-798" y="-224" type="qcurve" smooth="yes"/>
      <point x="-798" y="-190"/>
      <point x="-831" y="-190" type="qcurve" smooth="yes"/>
      <point x="-864" y="-190"/>
      <point x="-890" y="-210" type="qcurve"/>
      <point x="-890" y="-100"/>
      <point x="-783" y="-100" type="qcurve" smooth="yes"/>
      <point x="-650" y="-100"/>
    </contour>
  </outline>
</glyph>
<glyph name="uni17BE" format="2">
  <unicode hex="17BE"/>
  <outline>
    <contour>
      <point x="-255" y="1790" type="line"/>
      <point x="-405" y="1790" type="line"/>
      <point x="-405" y="2190" type="line"/>
      <point x="-255" y="2190" type="line"/>
    </contour>
    <contour>
      <point x="-386" y="1976" type="qcurve" smooth="yes"/>
      <point x="-255" y="1860" type="line"/>
      <point x="-255" y="1760" type="line"/>
      <point x="-875" y="1760" type="line" smooth="yes"/>
      <point x="-1165" y="1760"/>
      <point x="-1165" y="1960" type="qcurve" smooth="yes"/>
      <point x="-1165" y="2170"/>
      <point x="-845" y="2170" type="qcurve" smooth="yes"/>
      <point x="-605" y="2170"/>
    </contour>
    <contour>
      <point x="-465" y="1890" type="line"/>
      <point x="-604" y="2040"/>
      <point x="-845" y="2040" type="qcurve" smooth="yes"/>
      <point x="-995" y="2040"/>
      <point x="-995" y="1960" type="qcurve" smooth="yes"/>
      <point x="-995" y="1890"/>
      <point x="-875" y="1890" type="qcurve" smooth="yes"/>
    </contour>
  </outline>
</glyph>
<glyph name="uni17BF" format="2">
  <advance width="688"/>
  <unicode hex="17BF"/>
  <outline>
    <contour>
      <point x="63" y="2330" type="line"/>
      <point x="63" y="2080" type="line"/>
      <point x="-67" y="2080" type="line"/>
      <point x="-67" y="2330" type="line"/>
    </contour>
    <contour>
      <point x="353" y="2280" type="line"/>
      <point x="353" y="1860" type="line"/>
      <point x="223" y="1860" type="line"/>
      <point x="223" y="2280" type="line"/>
    </contour>
    <contour>
      <point x="353" y="1820" type="line"/>
      <point x="-267" y="1820" type="line" smooth="yes"/>
      <point x="-517" y="1820"/>
      <point x="-517" y="2020" type="qcurve" smooth="yes"/>
      <point x="-517" y="2220"/>
      <point x="-237" y="2220" type="qcurve" smooth="yes"/>
      <point x="4" y="2221"/>
      <point x="222" y="2033" type="qcurve" smooth="yes"/>
      <point x="353" y="1920" type="line"/>
    </contour>
    <contour>
      <point x="143" y="1950" type="line"/>
      <point x="4" y="2100"/>
      <point x="-237" y="2100" type="qcurve" smooth="yes"/>
      <point x="-387" y="2100"/>
      <point x="-387" y="2020" type="qcurve" smooth="yes"/>
      <point x="-387" y="1950"/>
      <point x="-267" y="1950" type="qcurve" smooth="yes"/>
    </contour>
    <contour>
      <point x="-250" y="-100" type="line"/>
      <point x="-250" y="-350" type="line" smooth="yes"/>
      <point x="-250" y="-500"/>
      <point x="0" y="-500" type="qcurve" smooth="yes"/>
      <point x="250" y="-500"/>
      <point x="250" y="-350" type="qcurve" smooth="yes"/>
      <point x="250" y="1610" type="line" smooth="yes"/>
      <point x="250" y="1820"/>
      <point x="54" y="1820" type="qcurve"/>
      <point x="54" y="1920" type="line"/>
      <point x="438" y="1920"/>
      <point x="438" y="1610" type="qcurve" smooth="yes"/>
      <point x="438" y="-350" type="line" smooth="yes"/>
      <point x="438" y="-650"/>
      <point x="0" y="-650" type="qcurve" smooth="yes"/>
      <point x="-438" y="-650"/>
      <point x="-438" y="-375" type="qcurve" smooth="yes"/>
      <point x="-438" y="-100" type="line"/>
    </contour>
  </outline>
</glyph>
<glyph name="uni17C0" format="2">
  <advance width="688"/>
  <unicode hex="17C0"/>
  <outline>
    <contour>
      <point x="438" y="-350" type="line" smooth="yes"/>
      <point x="438" y="-650"/>
      <point x="0" y="-650" type="qcurve" smooth="yes"/>
      <point x="-438" y="-650"/>
      <point x="-438" y="-350" type="qcurve" smooth="yes"/>
      <point x="-438" y="-100" type="line"/>
      <point x="-250" y="-100" type="line"/>
      <point x="-250" y="-350" type="line" smooth="yes"/>
      <point x="-250" y="-500"/>
      <point x="0" y="-500" type="qcurve" smooth="yes"/>
      <point x="250" y="-500"/>
      <point x="250" y="-350" type="qcurve" smooth="yes"/>
      <point x="250" y="1610" type="line" smooth="yes"/>
      <point x="250" y="1820"/>
      <point x="-4" y="1820" type="qcurve" smooth="yes"/>
      <point x="-140" y="1820" type="line" smooth="yes"/>
      <point x="-390" y="1820"/>
      <point x="-390" y="2001" type="qcurve" smooth="yes"/>
      <point x="-390" y="2034"/>
      <point x="-350" y="2193"/>
      <point x="-350" y="2245" type="qcurve" smooth="yes"/>
      <point x="-350" y="2296"/>
      <point x="-444" y="2296" type="qcurve"/>
      <point x="-444" y="2370"/>
      <point x="-307" y="2370" type="qcurve" smooth="yes"/>
      <point x="-170" y="2370"/>
      <point x="-170" y="2245" type="qcurve" smooth="yes"/>
      <point x="-170" y="2182"/>
      <point x="-210" y="2038"/>
      <point x="-210" y="2001" type="qcurve" smooth="yes"/>
      <point x="-210" y="1960"/>
      <point x="-140" y="1960" type="qcurve" smooth="yes"/>
      <point x="-4" y="1960" type="line" smooth="yes"/>
      <point x="438" y="1960"/>
      <point x="438" y="1610" type="qcurve" smooth="yes"/>
    </contour>
  </outline>
</glyph>
<glyph name="uni17C3" format="2">
  <advance width="713"/>
  <unicode hex="17C3"/>
  <outline>
    <contour>
      <point x="257" y="993" type="line"/>
      <point x="170" y="1046" type="line" smooth="yes"/>
      <point x="82" y="1099"/>
      <point x="82" y="1131" type="qcurve" smooth="yes"/>
      <point x="82" y="1162"/>
      <point x="138" y="1247" type="qcurve" smooth="yes"/>
      <point x="306" y="1500" type="line"/>
      <point x="468" y="1406" type="line" smooth="yes"/>
      <point x="522" y="1375"/>
      <point x="541" y="1375" type="qcurve" smooth="yes"/>
      <point x="559" y="1375"/>
      <point x="595" y="1385" type="qcurve"/>
      <point x="595" y="1350"/>
      <point x="507" y="1212"/>
      <point x="467" y="1212" type="qcurve" smooth="yes"/>
      <point x="426" y="1212"/>
      <point x="364" y="1249" type="qcurve" smooth="yes"/>
      <point x="296" y="1288" type="line"/>
      <point x="253" y="1213" type="line"/>
      <point x="445" y="1100" type="line"/>
      <point x="445" y="214" type="line"/>
      <point x="495" y="284"/>
      <point x="495" y="315" type="qcurve" smooth="yes"/>
      <point x="495" y="361"/>
      <point x="452" y="361" type="qcurve" smooth="yes"/>
      <point x="437" y="361" type="line"/>
      <point x="437" y="500" type="line"/>
      <point x="452" y="500" type="line" smooth="yes"/>
      <point x="620" y="500"/>
      <point x="620" y="345" type="qcurve" smooth="yes"/>
      <point x="620" y="252"/>
      <point x="511" y="95" type="qcurve" smooth="yes"/>
      <point x="445" y="0" type="line"/>
      <point x="257" y="0" type="line"/>
    </contour>
    <contour>
      <point x="280" y="1842" type="line"/>
      <point x="280" y="1762"/>
      <point x="350" y="1762" type="qcurve" smooth="yes"/>
      <point x="430" y="1762"/>
      <point x="430" y="1853" type="qcurve" smooth="yes"/>
      <point x="430" y="1963"/>
      <point x="330" y="1963" type="qcurve" smooth="yes"/>
      <point x="280" y="1963" type="line" smooth="yes"/>
      <point x="130" y="1963"/>
      <point x="130" y="2055" type="qcurve" smooth="yes"/>
      <point x="130" y="2158"/>
      <point x="30" y="2158" type="qcurve"/>
      <point x="30" y="2280"/>
      <point x="130" y="2280" type="qcurve" smooth="yes"/>
      <point x="280" y="2280"/>
      <point x="280" y="2085" type="qcurve"/>
      <point x="330" y="2085" type="line" smooth="yes"/>
      <point x="610" y="2085"/>
      <point x="610" y="1853" type="qcurve" smooth="yes"/>
      <point x="610" y="1640"/>
      <point x="350" y="1640" type="qcurve" smooth="yes"/>
      <point x="130" y="1640"/>
      <point x="130" y="1842" type="qcurve"/>
    </contour>
  </outline>
</glyph>
<glyph name="uni17C4" format="2">
  <advance width="688"/>
  <unicode hex="17C4"/>
  <outline>
    <contour>
      <point x="-250" y="1348" type="qcurve" smooth="yes"/>
      <point x="-250" y="1396"/>
      <point x="-98" y="1500"/>
      <point x="-7" y="1500" type="qcurve" smooth="yes"/>
      <point x="82" y="1500"/>
      <point x="168" y="1433" type="qcurve" smooth="yes"/>
      <point x="360" y="1282" type="line" smooth="yes"/>
      <point x="438" y="1223"/>
      <point x="438" y="1128" type="qcurve" smooth="yes"/>
      <point x="438" y="0" type="line"/>
      <point x="250" y="0" type="line"/>
      <point x="250" y="1128" type="line"/>
      <point x="-3" y="1346"/>
      <point x="-41" y="1346" type="qcurve" smooth="yes"/>
      <point x="-78" y="1346"/>
      <point x="-201" y="1253" type="qcurve"/>
      <point x="-250" y="1300"/>
    </contour>
  </outline>
</glyph>
<glyph name="uni17C5" format="2">
  <advance width="688"/>
  <unicode hex="17C5"/>
  <outline>
    <contour>
      <point x="-250" y="1348" type="qcurve" smooth="yes"/>
      <point x="-250" y="1396"/>
      <point x="-98" y="1500"/>
      <point x="-7" y="1500" type="qcurve" smooth="yes"/>
      <point x="82" y="1500"/>
      <point x="168" y="1433" type="qcurve" smooth="yes"/>
      <point x="360" y="1282" type="line" smooth="yes"/>
      <point x="438" y="1223"/>
      <point x="438" y="1128" type="qcurve" smooth="yes"/>
      <point x="438" y="0" type="line"/>
      <point x="250" y="0" type="line"/>
      <point x="250" y="1128" type="line"/>
      <point x="-3" y="1346"/>
      <point x="-41" y="1346" type="qcurve" smooth="yes"/>
      <point x="-78" y="1346"/>
      <point x="-201" y="1253" type="qcurve"/>
      <point x="-250" y="1300"/>
    </contour>
    <contour>
      <point x="310" y="1178" type="line"/>
      <point x="310" y="1754" type="line" smooth="yes"/>
      <point x="310" y="1807"/>
      <point x="200" y="1807" type="qcurve"/>
      <point x="200" y="1907"/>
      <point x="315" y="1907" type="qcurve" smooth="yes"/>
      <point x="490" y="1907"/>
      <point x="490" y="1754" type="qcurve" smooth="yes"/>
      <point x="490" y="1394" type="line" smooth="yes"/>
      <point x="490" y="1256"/>
      <point x="305" y="1124" type="qcurve"/>
    </contour>
  </outline>
</glyph>
